<svg width="20" height="18" viewBox="0 0 20 18" fill="none" xmlns="http://www.w3.org/2000/svg">
  <path d="M18.1098 0.495605L11.0781 5.69853L12.3857 2.63228L18.1098 0.495605Z" fill="#E17726" stroke="#E17726" stroke-width="0.131549" stroke-linecap="round" stroke-linejoin="round" />
  <path d="M1.89014 0.495605L8.85919 5.74709L7.61423 2.63227L1.89014 0.495605Z" fill="#E27625" stroke="#E27625" stroke-width="0.131549" stroke-linecap="round" stroke-linejoin="round" />
  <path d="M15.578 12.5591L13.707 15.4172L17.7132 16.5203L18.8608 12.6216L15.578 12.5591Z" fill="#E27625" stroke="#E27625" stroke-width="0.131549" stroke-linecap="round" stroke-linejoin="round" />
  <path d="M1.146 12.6216L2.28663 16.5203L6.28585 15.4172L4.42186 12.5591L1.146 12.6216Z" fill="#E27625" stroke="#E27625" stroke-width="0.131549" stroke-linecap="round" stroke-linejoin="round" />
  <path d="M6.07032 7.73093L4.95752 9.40976L8.92194 9.59013L8.78981 5.32373L6.07032 7.73093Z" fill="#E27625" stroke="#E27625" stroke-width="0.131549" stroke-linecap="round" stroke-linejoin="round" />
  <path d="M13.9297 7.73116L11.1686 5.27539L11.0781 9.59036L15.0425 9.40999L13.9297 7.73116Z" fill="#E27625" stroke="#E27625" stroke-width="0.131549" stroke-linecap="round" stroke-linejoin="round" />
  <path d="M6.28564 15.4174L8.68514 14.2589L6.6195 12.6494L6.28564 15.4174Z" fill="#E27625" stroke="#E27625" stroke-width="0.131549" stroke-linecap="round" stroke-linejoin="round" />
  <path d="M11.3149 14.2589L13.7075 15.4174L13.3806 12.6494L11.3149 14.2589Z" fill="#E27625" stroke="#E27625" stroke-width="0.131549" stroke-linecap="round" stroke-linejoin="round" />
  <path d="M13.7075 15.4178L11.3149 14.2593L11.5097 15.8132L11.4888 16.4722L13.7075 15.4178Z" fill="#D5BFB2" stroke="#D5BFB2" stroke-width="0.131549" stroke-linecap="round" stroke-linejoin="round" />
  <path d="M6.28564 15.4178L8.5113 16.4722L8.49738 15.8132L8.68514 14.2593L6.28564 15.4178Z" fill="#D5BFB2" stroke="#D5BFB2" stroke-width="0.131549" stroke-linecap="round" stroke-linejoin="round" />
  <path d="M8.55364 11.6224L6.56445 11.0397L7.96938 10.3945L8.55364 11.6224Z" fill="#233447" stroke="#233447" stroke-width="0.131549" stroke-linecap="round" stroke-linejoin="round" />
  <path d="M11.4468 11.6224L12.031 10.3945L13.4429 11.0397L11.4468 11.6224Z" fill="#233447" stroke="#233447" stroke-width="0.131549" stroke-linecap="round" stroke-linejoin="round" />
  <path d="M6.28583 15.4172L6.63361 12.5591L4.42188 12.6216L6.28583 15.4172Z" fill="#CC6228" stroke="#CC6228" stroke-width="0.131549" stroke-linecap="round" stroke-linejoin="round" />
  <path d="M13.3662 12.5591L13.707 15.4172L15.5779 12.6216L13.3662 12.5591Z" fill="#CC6228" stroke="#CC6228" stroke-width="0.131549" stroke-linecap="round" stroke-linejoin="round" />
  <path d="M15.0425 9.40967L11.0781 9.59003L11.4467 11.6227L12.031 10.3948L13.4429 11.0399L15.0425 9.40967Z" fill="#CC6228" stroke="#CC6228" stroke-width="0.131549" stroke-linecap="round" stroke-linejoin="round" />
  <path d="M6.56415 11.0399L7.96908 10.3948L8.55334 11.6227L8.92194 9.59003L4.95752 9.40967L6.56415 11.0399Z" fill="#CC6228" stroke="#CC6228" stroke-width="0.131549" stroke-linecap="round" stroke-linejoin="round" />
  <path d="M4.95752 9.40967L6.61981 12.6494L6.56413 11.0399L4.95752 9.40967Z" fill="#E27525" stroke="#E27525" stroke-width="0.131549" stroke-linecap="round" stroke-linejoin="round" />
  <path d="M13.443 11.0399L13.3804 12.6494L15.0427 9.40967L13.443 11.0399Z" fill="#E27525" stroke="#E27525" stroke-width="0.131549" stroke-linecap="round" stroke-linejoin="round" />
  <path d="M8.92188 9.59033L8.55322 11.623L9.01921 14.0232L9.12356 10.8599L8.92188 9.59033Z" fill="#E27525" stroke="#E27525" stroke-width="0.131549" stroke-linecap="round" stroke-linejoin="round" />
  <path d="M11.0781 9.59033L10.8833 10.853L10.9807 14.0232L11.4467 11.623L11.0781 9.59033Z" fill="#E27525" stroke="#E27525" stroke-width="0.131549" stroke-linecap="round" stroke-linejoin="round" />
  <path d="M11.4469 11.6228L10.981 14.023L11.3148 14.2589L13.3805 12.6495L13.4431 11.04L11.4469 11.6228Z" fill="#F5841F" stroke="#F5841F" stroke-width="0.131549" stroke-linecap="round" stroke-linejoin="round" />
  <path d="M6.56445 11.04L6.62013 12.6495L8.68577 14.2589L9.01963 14.023L8.55364 11.6228L6.56445 11.04Z" fill="#F5841F" stroke="#F5841F" stroke-width="0.131549" stroke-linecap="round" stroke-linejoin="round" />
  <path d="M11.4881 16.472L11.5089 15.8129L11.3281 15.6603H8.67127L8.49738 15.8129L8.5113 16.472L6.28564 15.4175L7.06461 16.0557L8.64343 17.1449H11.3489L12.9347 16.0557L13.7067 15.4175L11.4881 16.472Z" fill="#C0AC9D" stroke="#C0AC9D" stroke-width="0.131549" stroke-linecap="round" stroke-linejoin="round" />
  <path d="M11.3149 14.2588L10.981 14.0229H9.01966L8.68586 14.2588L8.49805 15.8128L8.67194 15.6601H11.3288L11.5096 15.8128L11.3149 14.2588Z" fill="#161616" stroke="#161616" stroke-width="0.131549" stroke-linecap="round" stroke-linejoin="round" />
  <path d="M18.4091 6.03844L19.0003 3.16644L18.1101 0.495605L11.3149 5.52513L13.93 7.73114L17.6232 8.80644L18.437 7.85604L18.0823 7.59933L18.6456 7.08601L18.2144 6.75301L18.7778 6.32289L18.4091 6.03844Z" fill="#763E1A" stroke="#763E1A" stroke-width="0.131549" stroke-linecap="round" stroke-linejoin="round" />
  <path d="M1 3.16644L1.59814 6.03844L1.21561 6.32289L1.78593 6.75301L1.35471 7.08601L1.91808 7.59933L1.56336 7.85604L2.37712 8.80644L6.07032 7.73114L8.68541 5.52513L1.89026 0.495605L1 3.16644Z" fill="#763E1A" stroke="#763E1A" stroke-width="0.131549" stroke-linecap="round" stroke-linejoin="round" />
  <path d="M17.623 8.8062L13.9298 7.73096L15.0427 9.40978L13.3804 12.6494L15.5782 12.6217H18.861L17.623 8.8062Z" fill="#F5841F" stroke="#F5841F" stroke-width="0.131549" stroke-linecap="round" stroke-linejoin="round" />
  <path d="M6.0702 7.73096L2.37705 8.8062L1.146 12.6217H4.42186L6.61966 12.6494L4.95741 9.40978L6.0702 7.73096Z" fill="#F5841F" stroke="#F5841F" stroke-width="0.131549" stroke-linecap="round" stroke-linejoin="round" />
  <path d="M11.0779 9.5899L11.3144 5.52464L12.3855 2.63184H7.61426L8.68533 5.52464L8.9218 9.5899L9.01223 10.8663L9.01919 14.0228H10.9805L10.9875 10.8663L11.0779 9.5899Z" fill="#F5841F" stroke="#F5841F" stroke-width="0.131549" stroke-linecap="round" stroke-linejoin="round" />
</svg>
