<svg viewBox="0 0 18 18" fill="none" xmlns="http://www.w3.org/2000/svg">
  <path d="M9.00007 0C4.03012 0 0 4.13135 0 9.22785C0 13.305 2.5788 16.764 6.1548 17.9841C6.6046 18.0696 6.76973 17.784 6.76973 17.5402C6.76973 17.3202 6.76138 16.5933 6.75751 15.8222C4.25368 16.3804 3.72534 14.7334 3.72534 14.7334C3.31593 13.6668 2.72604 13.3832 2.72604 13.3832C1.90947 12.8105 2.7876 12.8222 2.7876 12.8222C3.69136 12.8873 4.16724 13.7732 4.16724 13.7732C4.96995 15.1839 6.27269 14.7761 6.78627 14.5403C6.86705 13.9439 7.10029 13.5368 7.35768 13.3063C5.35864 13.073 3.25721 12.2818 3.25721 8.74589C3.25721 7.73842 3.60879 6.91524 4.18453 6.26901C4.09108 6.03658 3.78302 5.09803 4.27171 3.82696C4.27171 3.82696 5.02748 3.57895 6.74737 4.77285C7.46529 4.56839 8.23521 4.46586 9.00007 4.46234C9.76493 4.46586 10.5355 4.56839 11.2547 4.77285C12.9725 3.57895 13.7272 3.82696 13.7272 3.82696C14.2171 5.09803 13.9089 6.03658 13.8155 6.26901C14.3925 6.91524 14.7417 7.73842 14.7417 8.74589C14.7417 12.2902 12.6363 13.0706 10.6322 13.299C10.955 13.5854 11.2426 14.1469 11.2426 15.0079C11.2426 16.2426 11.2322 17.2363 11.2322 17.5402C11.2322 17.7858 11.3942 18.0735 11.8504 17.9829C15.4245 16.7614 18 13.3036 18 9.22785C18 4.13135 13.9705 0 9.00007 0ZM3.37082 13.1453C3.351 13.1911 3.28065 13.2049 3.21657 13.1734C3.15129 13.1433 3.11463 13.0808 3.13579 13.0348C3.15516 12.9876 3.22566 12.9744 3.29079 13.0061C3.35622 13.0362 3.39347 13.0993 3.37082 13.1453ZM3.81352 13.5503C3.7706 13.5911 3.68669 13.5721 3.62976 13.5077C3.57089 13.4433 3.55986 13.3573 3.60338 13.3159C3.64765 13.2751 3.72902 13.2942 3.78804 13.3585C3.84691 13.4236 3.85838 13.509 3.81352 13.5503ZM4.11724 14.0685C4.06209 14.1078 3.97192 14.0709 3.91618 13.9889C3.86104 13.9068 3.86104 13.8084 3.91738 13.769C3.97327 13.7296 4.06209 13.765 4.11858 13.8465C4.17357 13.9299 4.17357 14.0283 4.11724 14.0685ZM4.63088 14.6686C4.58155 14.7244 4.47647 14.7094 4.39957 14.6333C4.32088 14.5589 4.29897 14.4533 4.34845 14.3976C4.39838 14.3416 4.50405 14.3574 4.58155 14.4329C4.65964 14.5071 4.68349 14.6135 4.63088 14.6686ZM5.29471 14.8713C5.27295 14.9435 5.17175 14.9764 5.06981 14.9457C4.96802 14.914 4.9014 14.8294 4.92197 14.7563C4.94313 14.6836 5.04477 14.6494 5.14746 14.6822C5.2491 14.7137 5.31587 14.7978 5.29471 14.8713ZM6.05018 14.9572C6.05271 15.0333 5.96627 15.0964 5.85926 15.0978C5.75165 15.1002 5.66462 15.0386 5.66342 14.9638C5.66342 14.8869 5.74793 14.8244 5.85553 14.8226C5.96254 14.8204 6.05018 14.8816 6.05018 14.9572ZM6.79234 14.928C6.80516 15.0023 6.73079 15.0785 6.62452 15.0989C6.52005 15.1184 6.42332 15.0726 6.41006 14.9989C6.39709 14.9228 6.4728 14.8466 6.57713 14.8269C6.68354 14.8079 6.77878 14.8525 6.79234 14.928Z" fill="currentColor" />
</svg>