<svg viewBox="0 0 116 116" fill="none" xmlns="http://www.w3.org/2000/svg">
  <path d="M68.0427 0.289787C66.8344 1.01769 66.2521 1.93484 66.2666 3.09948C66.2812 3.5071 66.223 4.03119 66.1502 4.27867C65.8299 5.32684 65.9027 6.53516 66.2957 6.53516C66.4704 6.53516 67.3148 5.09392 67.3148 4.75908C67.3148 4.62806 67.6205 4.16221 67.9845 3.71091C68.3484 3.25961 68.7124 2.67729 68.7852 2.42981C68.9453 1.86205 68.989 0.377135 68.8579 0.144207C68.7124 -0.0741625 68.625 -0.0596046 68.0427 0.289787Z" fill="currentColor" />
  <path d="M22.9131 9.3012C22.9131 9.37399 22.9859 9.44678 23.0732 9.44678C23.146 9.44678 23.1751 9.37399 23.1315 9.3012C23.0878 9.21385 23.015 9.15562 22.9713 9.15562C22.9422 9.15562 22.9131 9.21385 22.9131 9.3012Z" fill="currentColor" />
  <path d="M60.9965 15.9396C60.9528 16.0706 60.9091 16.2744 60.9091 16.4054C60.9091 16.7985 60.1521 18.2106 59.5552 18.9239C59.1622 19.4189 59.0166 19.7246 59.0166 20.1177C59.0166 21.4861 59.8901 20.6855 60.3268 18.9094C60.5015 18.2106 60.7344 17.4681 60.8363 17.2643C60.9383 17.0605 61.0693 16.6238 61.1275 16.3035C61.2294 15.7066 61.1566 15.5174 60.9965 15.9396Z" fill="currentColor" />
  <path d="M68.1152 19.2006C68.0716 19.2734 68.1007 19.3462 68.1735 19.3462C68.2608 19.3462 68.3336 19.2734 68.3336 19.2006C68.3336 19.1133 68.3045 19.055 68.2754 19.055C68.2317 19.055 68.1589 19.1133 68.1152 19.2006Z" fill="currentColor" />
  <path d="M52.0288 27.1929C52.0288 27.2657 52.1016 27.3822 52.1744 27.4259C52.2617 27.4695 52.32 27.455 52.32 27.3676C52.32 27.2948 52.2617 27.1784 52.1744 27.1347C52.1016 27.091 52.0288 27.1056 52.0288 27.1929Z" fill="currentColor" />
  <path d="M64.9857 28.474C64.3743 28.7069 64.2578 28.9689 64.2578 30.1627C64.2578 31.1672 64.2869 31.2982 64.4762 31.1381C64.5926 31.0362 64.6946 30.876 64.6946 30.7741C64.6946 30.5703 65.1895 30.0899 65.306 30.1918C65.4225 30.3228 65.7427 29.1727 65.6845 28.8088C65.6408 28.4448 65.3788 28.3284 64.9857 28.474Z" fill="currentColor" />
  <path d="M66.5864 28.7505C66.5864 28.8669 66.6592 28.9252 66.732 28.8815C66.8194 28.8378 66.8776 28.7359 66.8776 28.6486C66.8776 28.5758 66.8194 28.5175 66.732 28.5175C66.6592 28.5175 66.5864 28.6195 66.5864 28.7505Z" fill="currentColor" />
  <path d="M52.145 29.537C52.0431 30.1629 52.0867 30.3959 52.2614 30.2357C52.3051 30.1921 52.3197 29.8572 52.2905 29.5224L52.2469 28.8818L52.145 29.537Z" fill="currentColor" />
  <path d="M44.5313 29.537C44.5749 29.6098 44.6477 29.6826 44.6914 29.6826C44.7205 29.6826 44.7496 29.6098 44.7496 29.537C44.7496 29.4497 44.6768 29.3915 44.5895 29.3915C44.5167 29.3915 44.4876 29.4497 44.5313 29.537Z" fill="currentColor" />
  <path d="M65.7569 30.192C65.7132 30.323 65.7132 30.454 65.7569 30.4977C65.8879 30.6287 66.1499 30.4103 66.1499 30.1774C66.1499 29.9008 65.8733 29.9154 65.7569 30.192Z" fill="currentColor" />
  <path d="M57.4881 30.7011C57.5318 30.7739 57.6337 30.8467 57.7211 30.8467C57.7939 30.8467 57.8521 30.7739 57.8521 30.7011C57.8521 30.6138 57.7502 30.5555 57.6192 30.5555C57.5027 30.5555 57.4445 30.6138 57.4881 30.7011Z" fill="currentColor" />
  <path d="M56.4982 32.3758C56.3235 33.8753 56.2362 34.3411 56.1052 34.3411C55.8577 34.3411 55.8286 33.8607 56.0324 33.4676C56.1488 33.2347 56.2507 32.9581 56.2507 32.8562C56.2507 32.7543 56.076 33.0163 55.8722 33.4531C55.552 34.1228 55.5228 34.2829 55.6684 34.5595C55.8431 34.8798 55.7849 36.7286 55.5811 37.4274C55.5374 37.573 55.5665 37.6895 55.6393 37.6895C55.8577 37.6895 56.0906 36.9179 56.0032 36.4957C55.9596 36.3064 56.1052 35.4184 56.3235 34.5304C56.5565 33.5259 56.6875 32.6233 56.6584 32.1429L56.6147 31.3567L56.4982 32.3758Z" fill="currentColor" />
  <path d="M21.894 33.0302C21.894 33.103 21.9668 33.1758 22.0396 33.1758C22.127 33.1758 22.1852 33.103 22.1852 33.0302C22.1852 32.9429 22.127 32.8846 22.0396 32.8846C21.9668 32.8846 21.894 32.9429 21.894 33.0302Z" fill="currentColor" />
  <path d="M63.311 33.1762C63.2674 33.249 63.2965 33.3218 63.3693 33.3218C63.4566 33.3218 63.5294 33.249 63.5294 33.1762C63.5294 33.0888 63.5003 33.0306 63.4712 33.0306C63.4275 33.0306 63.3547 33.0888 63.311 33.1762Z" fill="currentColor" />
  <path d="M62.3651 34.5885C61.7682 35.5639 61.2295 36.1025 60.2542 36.6703C59.8611 36.9032 59.337 37.2817 59.1041 37.5292C58.8129 37.8349 58.58 37.9514 58.4053 37.9077C58.216 37.8349 58.0996 37.9514 57.954 38.3008C57.8375 38.5628 57.5318 38.9704 57.2843 39.2034C57.0368 39.4508 56.833 39.7129 56.833 39.7857C56.833 39.9458 55.6102 42.3915 54.9259 43.629C54.7367 43.9638 54.4601 44.2841 54.3291 44.3278C54.1835 44.3714 54.067 44.4879 54.067 44.6044C54.067 44.7063 53.9942 44.8227 53.9214 44.8518C53.8341 44.881 53.7613 45.1576 53.7467 45.4778C53.7322 46.1475 53.5575 46.4387 53.2518 46.3222C53.1353 46.2785 52.9315 46.2931 52.8005 46.3513C52.6549 46.4095 52.2036 46.4532 51.8105 46.4678L51.0681 46.4969L51.0535 45.9291C51.039 45.6234 51.1118 45.143 51.2282 44.8373C51.3301 44.5461 51.5048 43.6581 51.5922 42.8574C51.6795 42.0567 51.8979 40.8193 52.0871 40.1205C52.4656 38.6938 52.3637 38.6065 51.9124 39.9458C51.6358 40.7756 51.5631 41.1978 51.3738 43.1486C51.3156 43.629 51.1409 44.386 50.9807 44.8227C50.8206 45.2595 50.6605 45.8127 50.6168 46.0602C50.544 46.4532 50.5585 46.4823 50.7769 46.2931C50.9807 46.1184 51.0098 46.1184 50.9225 46.3222C50.8206 46.5842 50.4566 46.7589 50.2674 46.6279C50.18 46.5842 50.0345 46.6279 49.918 46.7153C49.8015 46.8026 49.6414 46.8463 49.5541 46.7881C49.4667 46.7298 49.3066 46.8026 49.2047 46.9482C49.1028 47.0792 48.9863 47.1374 48.9426 47.0647C48.8698 46.9336 48.3312 45.2886 48.1856 44.7499C48.0691 44.3132 48.2147 45.5215 48.3749 46.2494C48.4768 46.8026 48.4622 46.89 48.1856 47.0792C47.8217 47.3413 47.2976 47.3558 46.657 47.1374C46.1184 46.9482 45.9728 47.021 46.1329 47.3995C46.2057 47.5451 46.2494 47.7052 46.2348 47.7489C46.2348 47.7926 46.3222 47.8362 46.4386 47.8362C46.5551 47.8362 46.6425 47.7489 46.6425 47.6324C46.6425 47.2976 46.9336 47.4286 46.9482 47.7634C46.9627 47.9527 46.9918 48.2439 47.0064 48.4185C47.0355 48.6369 46.9773 48.7097 46.8317 48.6515C46.6861 48.5932 46.6716 48.535 46.788 48.4622C46.9045 48.3894 46.8754 48.3021 46.7152 48.1711C46.526 48.0109 46.4969 48.04 46.4969 48.3458C46.4969 48.6078 46.6133 48.7388 47.0064 48.8844C47.5887 49.0882 47.6761 49.4376 47.2393 49.8307C47.021 50.0199 46.9482 50.0345 46.8754 49.8889C46.8317 49.787 46.8317 49.8452 46.8754 50.0199C46.9191 50.2237 46.8899 50.3548 46.788 50.3548C46.6861 50.3548 46.657 50.4712 46.7298 50.675C46.8172 50.9662 46.8026 50.9807 46.5988 50.8206C46.4678 50.7041 46.3513 50.3984 46.3222 50.1073C46.2785 49.656 46.2057 49.5686 45.7253 49.4085C45.1721 49.2192 45.1721 49.2192 45.0848 49.6414C45.0411 49.8743 44.9537 50.0636 44.8809 50.0636C44.8082 50.0636 44.8809 50.3548 45.0411 50.7187C45.2158 51.1263 45.2594 51.4029 45.1721 51.4612C45.0848 51.5048 45.0556 51.6504 45.0993 51.7669C45.143 51.8833 45.0848 52.2036 44.9683 52.4948C44.7936 52.9024 44.7062 52.9897 44.5752 52.8587C44.4442 52.7277 44.4442 52.6404 44.5752 52.5093C44.6771 52.4074 44.7499 52.2619 44.7499 52.1745C44.7354 51.8397 44.3132 52.6258 44.3132 52.9897C44.3132 53.2081 44.2258 53.4265 44.1385 53.4556C44.022 53.4993 44.0511 53.543 44.2113 53.543C44.3423 53.5575 44.4588 53.6594 44.4588 53.7759C44.4588 53.8923 44.5461 53.9797 44.648 53.9651C44.8227 53.9215 44.8518 54.0525 44.8809 55.0861C44.8955 55.4937 45.0556 55.9013 45.3905 56.4109C45.6525 56.8331 45.9146 57.3426 45.9728 57.5755C46.1038 58.085 47.1811 59.1332 47.4577 59.0313C47.6761 58.944 47.7197 59.0167 47.8653 59.7155C47.9527 60.0795 47.909 60.1377 47.283 60.3998L46.6133 60.6909L45.7981 60.2542C44.9828 59.8174 44.4588 59.701 44.4588 59.963C44.4588 60.1377 43.7745 60.1523 43.6726 59.9776C43.629 59.9193 43.2068 59.8174 42.7555 59.7592C42.2896 59.701 41.7073 59.6282 41.4598 59.5845C40.8775 59.4972 40.6155 59.8029 40.6446 60.5599C40.7028 61.7828 41.3579 62.3942 42.7992 62.5398C43.4834 62.6126 43.6435 62.5835 44.0803 62.2486L44.5752 61.8701L45.2303 63.0347C46.1475 64.6652 46.1475 64.7671 45.2594 65.0874C44.8664 65.233 44.4151 65.3495 44.2841 65.3495C43.7309 65.3495 40.0914 66.6742 39.1451 67.2274C37.733 68.0427 35.2727 69.2801 35.0689 69.2801C34.9815 69.2801 34.6321 69.4111 34.3119 69.5713C33.977 69.7314 33.4966 69.8479 33.2346 69.8333C32.3611 69.8042 31.7351 70.0226 31.0509 70.5903C30.6869 70.9106 30.0609 71.3328 29.6679 71.5512C27.2804 72.8614 23.3206 75.3799 23.1168 75.7147C23.0149 75.8894 23.4953 75.5837 24.7327 74.7248C25.941 73.8804 28.1247 72.5702 29.3621 71.9588C30.1919 71.5366 30.454 71.4638 30.6578 71.5948C31.0363 71.8278 31.7351 71.7841 32.3465 71.4784C32.6377 71.3328 33.0744 71.1727 33.3219 71.1144C33.7732 70.998 36.7576 69.5422 36.6848 69.4694C36.6557 69.4403 35.9278 69.746 35.0543 70.139C34.1954 70.5467 33.4529 70.8378 33.4238 70.8087C33.3801 70.7796 33.3947 70.5903 33.4529 70.4011C33.5112 70.1536 33.7004 70.008 34.1226 69.877C34.4429 69.7896 35.5638 69.2947 36.6266 68.7851C37.6893 68.2756 38.8831 67.7515 39.2761 67.6205C39.6692 67.4895 40.2661 67.2129 40.6009 67.0236C41.2997 66.6015 43.2505 65.8881 43.4834 65.9755C43.5562 65.99 42.7555 66.4704 41.6782 67.0091C40.6009 67.5477 39.6692 68.0572 39.5818 68.1446C39.4945 68.2319 39.5527 68.2319 39.7565 68.13C40.1642 67.9262 40.8775 67.6496 40.9503 67.6787C40.9794 67.6933 41.0522 67.6496 41.0959 67.5768C41.1687 67.4604 41.7801 67.111 43.8037 66.0482C44.7062 65.5678 46.2057 65.2912 45.9873 65.6406C45.9437 65.7134 45.6962 65.7862 45.4633 65.7862C44.8518 65.7862 43.6435 66.616 43.3524 67.2274C43.1777 67.5914 43.134 67.9262 43.2068 68.494C43.2796 69.12 43.2359 69.3675 43.003 69.7896C42.8428 70.0808 42.7118 70.3865 42.7118 70.4739C42.7118 70.5758 42.5808 70.7796 42.4206 70.9543C41.3579 72.017 40.1642 73.3709 39.8439 73.8513C39.6401 74.1716 39.0869 74.8267 38.621 75.3071C38.1406 75.7875 37.7621 76.2097 37.7621 76.2388C37.7621 76.3553 39.2616 75.0305 40.4553 73.8513C41.1395 73.1671 41.6927 72.5265 41.6927 72.4246C41.6927 72.1189 42.9884 71.1872 43.5562 71.0853C43.8328 71.0271 44.2404 70.8961 44.4442 70.7941C44.648 70.6777 44.8809 70.5903 44.9537 70.5903C45.0411 70.5903 45.2595 70.4448 45.4487 70.2555C45.6525 70.0808 45.7835 70.008 45.7253 70.0954C45.6816 70.1827 45.9873 70.4011 46.4386 70.5903C46.8608 70.7796 47.2684 71.0562 47.3121 71.2163C47.414 71.5366 46.788 72.3955 46.2203 72.6867C45.769 72.9196 45.3614 73.3563 45.5943 73.3563C45.6671 73.3563 45.8127 73.2544 45.9146 73.138C46.0165 73.0215 46.1912 72.9196 46.2931 72.9196C46.4095 72.9196 46.4969 72.8614 46.4969 72.8031C46.4969 72.7304 46.7589 72.5411 47.0646 72.3664L47.6324 72.0461L48.0837 72.8323C48.3312 73.269 48.6369 73.6621 48.7679 73.7057C48.9426 73.7785 48.9717 73.895 48.8989 74.2007C48.8116 74.5647 48.8262 74.5647 49.0008 74.3317C49.1901 74.0842 49.2192 74.0842 49.3939 74.2881C49.5104 74.4191 49.8015 74.521 50.049 74.521C50.2965 74.521 50.8352 74.6957 51.2282 74.8849C52.1163 75.3217 52.2036 75.3217 52.553 74.9432C52.7714 74.7102 52.9315 74.652 53.3391 74.7248C53.7031 74.783 53.9214 74.7394 54.1398 74.5355C54.4455 74.2589 54.9696 74.0988 55.7557 74.0406C56.0178 74.0115 56.3235 73.9241 56.44 73.8222C56.6147 73.6766 56.6729 73.6766 56.7457 73.8222C56.7894 73.9241 56.7894 73.8368 56.7457 73.633C56.6583 73.2108 56.8913 72.9487 57.0805 73.2399C57.1388 73.3418 57.197 73.4583 57.197 73.5019C57.2115 73.5456 57.2698 73.9678 57.328 74.4482C57.4445 75.3508 57.8521 76.4426 58.1141 76.6173C58.2015 76.6756 58.2452 76.8211 58.2015 76.9667C58.1287 77.1705 58.1433 77.1851 58.2743 76.9958C58.4199 76.8066 58.449 76.8066 58.58 76.9958C58.6528 77.1123 58.7256 77.4326 58.7256 77.6946C58.7256 78.4516 60.6909 84.2312 61.084 84.6388C61.1568 84.7116 61.084 84.435 60.9238 84.0128C60.7491 83.5906 60.6181 83.1393 60.6181 83.0083C60.6181 82.8773 60.458 82.4405 60.2687 82.0329C59.7883 81.0138 59.4971 80.0821 59.3079 79.0776C59.2351 78.6118 59.0604 77.8111 58.9439 77.287C58.6237 75.9331 58.6237 75.9186 58.9876 75.7584C59.2351 75.642 59.3079 75.4964 59.3079 75.0305C59.3079 74.7102 59.3807 74.1862 59.468 73.8659C59.5554 73.5456 59.6282 73.1525 59.6282 72.9924C59.6282 72.8323 59.701 72.2645 59.7737 71.7259L59.9339 70.7505L60.3852 70.9834C60.6327 71.1144 61.346 71.5657 61.9866 72.0025C63.1803 72.8177 63.1658 72.8177 63.7917 72.2208C63.8937 72.1335 64.112 72.0461 64.2722 72.0461C64.5051 72.0461 64.5488 72.1044 64.476 72.3664L64.3741 72.7012L64.6216 72.3664C64.8108 72.1044 65.0001 72.0461 65.626 72.0461C66.2812 72.0461 66.4413 72.1044 66.8052 72.4829C67.0236 72.7158 67.4021 72.9487 67.6205 72.9924C67.8534 73.0506 68.0718 73.1525 68.1155 73.2253C68.3193 73.531 68.5668 73.3418 68.5085 72.9196C68.4503 72.512 68.4649 72.4974 68.8142 72.6721C69.0326 72.774 69.2655 72.9924 69.3383 73.1671C69.4257 73.3563 69.6149 73.5019 69.7751 73.5019C69.9207 73.5019 70.139 73.6038 70.2409 73.7494C70.4739 74.026 71.2745 74.3754 71.6385 74.3754C71.9879 74.3608 72.5993 73.3855 72.4974 73.007C72.3664 72.4829 71.6239 72.148 70.8232 72.2645C70.139 72.3518 69.3966 72.1772 68.4503 71.6676C68.2319 71.5512 67.9699 71.4638 67.868 71.4784C67.1983 71.5657 66.7325 71.0416 66.7325 70.2264C66.7325 69.8333 66.5286 69.7314 66.3831 70.0808C66.2957 70.3283 65.7716 70.372 65.6406 70.1536C65.5824 70.0662 65.5241 69.7314 65.495 69.4111C65.4805 69.0763 65.3786 68.7415 65.2912 68.6541C65.0583 68.4212 65.0874 68.1155 65.4368 67.4604C65.9027 66.5869 65.9463 66.5723 66.4122 67.2274C66.7325 67.6787 66.8635 67.7661 66.9363 67.606C66.9945 67.4167 67.0818 67.4021 67.3148 67.5332C67.6933 67.737 67.7078 67.4313 67.373 66.7616C67.0964 66.2229 67.111 66.2375 67.8097 67.0673C68.3775 67.7515 68.5376 67.7079 68.0136 67.0091L67.6933 66.5869L68.1591 67.0091C68.4212 67.2566 68.625 67.4021 68.625 67.3439C68.625 67.0964 67.868 66.0774 67.6933 66.0774C67.4167 66.0774 67.2857 65.6843 67.5331 65.5824C67.6496 65.5387 67.9553 65.6989 68.2174 65.9318C68.4649 66.1647 68.7123 66.3249 68.756 66.2812C68.7997 66.2375 68.625 66.0191 68.3775 65.8008C67.7952 65.3203 67.7806 65.1602 68.3047 64.6507C68.5231 64.4323 68.7706 64.1266 68.8434 63.9665C69.0617 63.5588 69.6149 63.5152 70.0953 63.8791C70.3137 64.0538 70.5321 64.1848 70.5758 64.1848C70.6194 64.1848 71.0998 64.476 71.6385 64.8254C72.381 65.3058 72.7449 65.6552 73.0652 66.2229C73.4874 66.9508 74.1425 67.4313 74.5501 67.2857C74.652 67.242 74.7976 66.9945 74.8849 66.7179C75.0596 66.2084 75.278 66.0919 75.5837 66.3976C75.7002 66.5141 75.7584 66.5141 75.7584 66.4122C75.7584 66.3249 75.6565 66.2084 75.5255 66.1647C75.2052 66.0482 75.3653 65.8881 75.8457 65.8444C76.0932 65.8153 76.4863 65.99 76.9522 66.3103C77.3598 66.5869 77.7528 66.8053 77.8547 66.8053C77.9421 66.8053 78.4662 67.0673 79.0048 67.3876C79.5435 67.6933 79.9511 67.8971 79.9074 67.8389C79.8783 67.7661 79.4124 67.4604 78.8884 67.1547C78.3788 66.8344 77.9421 66.5287 77.9421 66.4704C77.9421 66.3976 77.8402 66.1065 77.7092 65.8444C77.5199 65.4514 77.5054 65.2621 77.6218 64.9855C77.7528 64.6944 77.7528 64.6507 77.5781 64.7235C77.4471 64.7671 77.3598 64.7089 77.3598 64.5633C77.3598 63.9519 79.7473 64.9273 81.0429 66.0919C81.5379 66.5287 81.9747 66.8053 82.2076 66.8053C82.8627 66.8053 83.6343 67.2274 83.7798 67.6642C83.9545 68.1446 84.5805 68.6541 85.1046 68.7124C85.5996 68.7851 86.2401 68.3338 86.2401 67.9262C86.2401 67.1983 85.4249 66.7907 84.202 66.8926C83.6634 66.9363 83.5324 66.8926 83.183 66.5141C82.95 66.2666 82.3823 65.9027 81.9164 65.6843C81.4506 65.4805 81.0429 65.2621 80.9993 65.2184C80.9556 65.1748 80.6644 64.9273 80.3442 64.6944C79.427 64.0101 78.1605 62.8164 78.2041 62.6854C78.2187 62.6271 78.1605 62.5835 78.0586 62.598C77.9567 62.6126 77.7528 62.5835 77.6218 62.5398C77.4762 62.4815 77.2579 62.4088 77.1414 62.3651C76.9667 62.3069 76.9376 62.2341 77.0686 62.0157C77.287 61.6081 77.2579 61.5353 76.923 61.6372C76.5882 61.7391 76.5591 61.579 76.8066 60.8802C76.9813 60.4143 77.4326 60.2251 77.7092 60.5017C77.7674 60.5745 77.8693 60.6181 77.913 60.6327C78.7573 60.7055 80.4606 61.5644 81.6107 62.467C82.3677 63.0639 83.7653 63.7481 84.2311 63.7481C84.5368 63.7481 84.7552 63.9373 85.2793 64.6361C86.0218 65.6261 86.211 65.6115 85.4977 64.6216C85.2502 64.2867 85.1046 63.9519 85.1774 63.8791C85.3375 63.719 86.7788 64.4469 87.332 65.0001C87.6086 65.2767 87.9143 65.8299 88.1327 66.4995C88.4529 67.4458 88.5548 67.5914 89.0353 67.8243C89.9087 68.2465 89.9233 67.7952 89.0789 66.7325C88.8315 66.4122 88.4529 65.7862 88.2346 65.3203C87.8561 64.4905 87.201 63.7481 86.8516 63.7481C86.5022 63.7481 85.818 63.1658 85.1483 62.2923C84.4204 61.346 83.5324 60.8365 82.6152 60.8365C82.324 60.8365 81.9019 60.7346 81.6544 60.6036C81.4214 60.4725 81.0284 60.2542 80.7809 60.1377C80.2423 59.8757 79.689 59.3807 79.689 59.1769C79.689 58.9585 78.2624 58.1869 78.0731 58.2889C78.0003 58.3471 77.9712 58.449 78.0149 58.5218C78.1313 58.711 78.0731 58.6965 77.4326 58.3616C77.1123 58.2015 76.792 58.0705 76.6901 58.0705C76.6028 58.0705 76.4135 57.9395 76.2679 57.7793C76.1369 57.6337 75.8021 57.4299 75.5546 57.3426C75.2343 57.2407 75.0014 57.0223 74.8412 56.6875C74.5938 56.1634 73.8513 55.7412 73.2108 55.7412C73.0215 55.7412 72.7303 55.6102 72.5411 55.4646L72.1917 55.188L72.7449 55.0861C73.0506 55.0279 73.2835 54.8968 73.2835 54.7804C73.2835 54.6639 73.3418 54.5766 73.4146 54.5766C73.4874 54.5766 73.531 54.4601 73.5165 54.3145C73.5019 54.0234 74.1425 53.8923 74.5501 54.1107C74.8121 54.2708 75.3508 54.0962 75.8021 53.7176C75.9913 53.5575 76.0496 53.3683 75.9913 53.0771C75.9331 52.8296 75.9768 52.6549 76.0932 52.6258C77.3598 52.2473 79.4124 51.534 79.2378 51.5194C79.1067 51.5194 78.4807 51.6941 77.8547 51.8979C75.7875 52.5676 75.773 52.5676 75.6419 52.058C75.5109 51.5776 74.9432 51.301 74.5792 51.534C74.4627 51.6067 74.157 51.665 73.9095 51.665C73.5165 51.665 73.4291 51.6067 73.4146 51.3301C73.4146 51.1554 73.3709 51.0972 73.3272 51.1991C73.1671 51.6067 72.5411 51.6941 71.9151 51.3884C71.5803 51.2282 70.9252 50.9225 70.4447 50.7187C68.4503 49.8452 68.3047 49.6996 68.9744 49.3357C69.4402 49.1028 69.6732 48.4913 69.7168 47.5305C69.746 46.7007 69.8479 46.4241 70.139 46.4241C70.2409 46.4241 70.4447 46.264 70.5903 46.0747C70.7359 45.8855 71.0998 45.638 71.4201 45.5361C71.7258 45.4342 71.9442 45.3323 71.9151 45.2886C71.7695 45.1576 70.7213 45.6089 70.3428 45.9437C69.8187 46.4532 69.6732 46.2931 69.8187 45.3759C69.9934 44.3278 69.9789 44.1094 69.7751 43.8619C69.6441 43.7018 69.5567 43.6872 69.4111 43.8182C69.1782 44.0075 69.1345 44.7645 69.3529 44.8955C69.4402 44.9392 69.4985 45.2158 69.4985 45.507C69.4985 45.9146 69.382 46.1329 68.887 46.6134C68.3775 47.1083 68.1737 47.2102 67.7224 47.2102C66.9799 47.1811 66.0773 46.7589 66.2812 46.5115C66.3831 46.3804 66.3831 46.2785 66.252 46.1475C66.121 46.0019 66.2375 45.9874 66.878 46.0456L67.6787 46.1329L66.8052 45.9291C66.3248 45.8127 65.3786 45.6089 64.6943 45.4633C63.4278 45.2012 63.1803 45.0557 62.0448 43.9056C61.6808 43.5271 61.6517 43.4106 61.71 42.5954C61.7536 41.7656 62.1176 40.6446 62.7727 39.3344C62.9619 38.9559 62.9765 38.8248 62.8309 38.6793C62.6999 38.5482 62.6562 38.5774 62.6562 38.8685C62.6562 39.0578 62.5689 39.3489 62.467 39.5091C62.3505 39.6692 62.0885 40.2515 61.8555 40.8193C61.6226 41.3725 61.346 41.9403 61.2295 42.0858C61.0694 42.2896 61.0694 42.377 61.2441 42.7409C61.5061 43.2505 61.346 43.5416 60.5599 43.9347C60.0503 44.1967 60.0503 44.1967 60.0795 43.9056C60.1086 43.6726 60.0212 43.5999 59.701 43.5999C59.4826 43.5853 59.2497 43.498 59.1769 43.396C59.0895 43.2505 59.0313 43.2796 58.9731 43.5416C58.9148 43.7454 58.711 44.1385 58.5072 44.4297C58.3179 44.7354 58.0996 45.143 58.0559 45.3323C58.0122 45.5361 57.9103 45.6962 57.823 45.6962C57.7502 45.6962 57.7356 45.5652 57.7793 45.405C57.8375 45.2304 57.8084 45.1139 57.7065 45.1139C57.6046 45.1139 57.5755 44.881 57.6192 44.4151L57.7065 43.7309L57.4881 44.386C57.3717 44.7499 57.1533 45.143 57.0223 45.2595C56.8767 45.3759 56.7457 45.638 56.7166 45.8418C56.6729 46.264 56.1197 46.89 55.8722 46.8026C55.7703 46.7589 55.6538 46.8026 55.6247 46.9045C55.5956 47.0064 55.5228 47.0355 55.4646 46.9919C55.3481 46.8754 55.5228 46.4095 55.6538 46.4823C55.7121 46.526 55.814 46.3222 55.9013 46.0456C55.9887 45.769 56.0032 45.5506 55.945 45.5506C55.8722 45.5506 55.814 45.638 55.814 45.7253C55.7994 45.9291 55.1589 46.7153 54.9987 46.7153C54.9551 46.7153 54.9696 46.6279 55.057 46.526C55.2608 46.2785 56.5419 43.76 56.5419 43.6144C56.5419 43.5416 56.7748 42.9302 57.066 42.2605C57.3571 41.5763 57.5609 40.994 57.5318 40.9503C57.4881 40.9066 57.1679 41.5909 56.833 42.4498C56.4836 43.3087 56.1343 44.1239 56.0323 44.2404C55.945 44.3569 55.7121 44.8227 55.5228 45.2595C55.319 45.6962 55.1152 46.0893 55.0715 46.1329C55.0278 46.1766 54.8823 46.395 54.7512 46.6425C54.5329 47.0501 54.5183 47.0501 54.5038 46.7444C54.5038 46.5551 54.4455 46.4532 54.3582 46.4969C54.1253 46.6425 54.1835 45.8855 54.431 45.405C54.7076 44.8664 54.8532 44.8373 54.7367 45.3323C54.6785 45.5361 54.7076 45.6962 54.7804 45.6962C54.8532 45.6962 54.9551 45.5215 54.9987 45.2886C55.057 45.0702 55.1443 44.7645 55.188 44.6044C55.2753 44.3132 55.2608 44.3132 54.9551 44.5898C54.562 44.9538 54.562 44.8955 55.0861 43.8328C55.3336 43.3378 55.5228 42.872 55.5228 42.7992C55.5228 42.7409 55.6538 42.5662 55.814 42.4207C55.9741 42.2751 56.1051 42.0858 56.1051 41.9839C56.1051 41.882 56.2362 41.6928 56.3963 41.5472C56.5564 41.4016 56.6875 41.1396 56.6875 40.9794C56.6875 40.6009 57.5027 39.6692 57.7065 39.8002C57.7793 39.8439 57.8521 39.8293 57.8521 39.742C57.8521 39.6692 57.9249 39.4217 58.0122 39.1888C58.1287 38.8685 58.1869 38.8248 58.3034 38.9995C58.4199 39.1742 58.4344 39.1451 58.3616 38.9122C58.3034 38.6938 58.4053 38.4609 58.6819 38.1406C58.9003 37.8931 59.1332 37.6893 59.1914 37.6893C59.3516 37.6893 61.0985 36.6411 61.4625 36.3209C61.6517 36.1462 61.9429 35.724 62.103 35.36C62.2632 34.9961 62.5252 34.5157 62.6853 34.2973C62.8455 34.0644 62.9474 33.8606 62.9183 33.8315C62.8891 33.7878 62.6417 34.1372 62.3651 34.5885ZM65.8299 45.9146C65.9026 45.9874 65.5533 46.6279 65.3786 46.7298C65.1748 46.8754 64.3886 46.6134 64.0683 46.3076C63.8209 46.0602 63.8209 46.0019 64.0247 45.8127C64.1994 45.6234 64.3886 45.6089 65.0146 45.7253C65.4368 45.7981 65.8007 45.8855 65.8299 45.9146ZM69.3383 48.4913C69.12 49.03 68.4066 49.423 68.1009 49.1756C67.9262 49.03 67.9553 48.9281 68.2756 48.4768C68.494 48.1856 68.8434 47.7634 69.0472 47.5451L69.4257 47.1229L69.4694 47.5887C69.4985 47.8508 69.4402 48.2584 69.3383 48.4913ZM55.4646 47.5305C55.3336 47.647 55.2317 47.8071 55.2317 47.8799C55.2317 47.9381 55.1298 48.0255 55.0133 48.0837C54.8968 48.1274 54.7949 48.0983 54.7949 48.0255C54.7949 47.8362 55.3336 47.2976 55.5374 47.2976C55.6247 47.2976 55.5811 47.3995 55.4646 47.5305ZM69.9352 51.2282C69.9352 51.301 69.9061 51.3738 69.877 51.3738C69.8333 51.3738 69.7605 51.301 69.7168 51.2282C69.6732 51.1409 69.7023 51.0827 69.7751 51.0827C69.8624 51.0827 69.9352 51.1409 69.9352 51.2282ZM71.6967 54.8241C71.886 55.057 71.8714 55.0715 71.653 54.8823C71.5075 54.7804 71.391 54.6639 71.391 54.6348C71.391 54.5183 71.5075 54.5911 71.6967 54.8241ZM73.6475 56.571C73.5893 56.7166 73.5019 56.9495 73.4728 57.0805C73.3854 57.3717 73.1962 57.4154 73.0652 57.197C73.0215 57.1097 72.8468 57.0514 72.7012 57.0514C72.381 57.0514 72.2063 56.8331 72.3227 56.5419C72.3809 56.3963 72.6139 56.3235 73.0797 56.3235C73.662 56.3235 73.7348 56.3526 73.6475 56.571ZM74.1425 56.9641C74.2735 57.1242 74.2298 57.1824 73.9387 57.2261C73.5893 57.2989 73.4437 57.0951 73.6766 56.8622C73.8222 56.7166 73.9532 56.7457 74.1425 56.9641ZM47.5159 60.7491C47.5159 60.7928 47.4577 60.8656 47.3704 60.9093C47.2976 60.953 47.2248 60.9238 47.2248 60.8511C47.2248 60.7637 47.2976 60.6909 47.3704 60.6909C47.4577 60.6909 47.5159 60.72 47.5159 60.7491ZM60.9966 62.7873C60.8656 63.0347 60.7637 63.1221 60.6909 63.0202C60.6327 62.9328 60.7055 62.729 60.851 62.5689C61.1859 62.2049 61.2587 62.2923 60.9966 62.7873ZM78.3206 63.8646C78.3934 63.9373 78.7573 64.0975 79.1213 64.2431C79.7327 64.4614 80.5043 65.0583 80.184 65.0583C79.9657 65.0583 77.9421 63.9956 77.9421 63.8646C77.9421 63.719 78.1313 63.719 78.3206 63.8646ZM73.138 65.3495C73.3272 65.4659 73.3272 65.495 73.1088 65.495C72.9778 65.495 72.8177 65.4223 72.774 65.3495C72.6576 65.1602 72.8468 65.1602 73.138 65.3495ZM74.2153 65.7716C74.4773 66.0628 74.4919 66.6742 74.2298 66.747C73.9678 66.8344 73.5747 66.4122 73.4874 65.9463C73.4 65.5678 73.4291 65.495 73.6766 65.495C73.8367 65.495 74.0842 65.6261 74.2153 65.7716ZM77.6655 66.2666C77.8256 66.5432 77.8111 66.5432 77.3743 66.2375C76.8502 65.859 76.8066 65.7862 77.2142 65.8881C77.3743 65.9318 77.5927 66.1065 77.6655 66.2666ZM66.878 66.6888C66.7761 66.4995 66.747 66.3103 66.7761 66.2812C66.8198 66.2375 66.9508 66.4122 67.0818 66.6742C67.3439 67.2129 67.373 67.2857 67.1838 67.1838C67.111 67.1255 67.0091 67.1838 66.9799 67.2711C66.878 67.5332 66.2957 66.8198 66.2957 66.4413C66.2957 66.1938 66.3394 66.2084 66.6742 66.5869C66.9654 66.9363 67.0091 66.9508 66.878 66.6888ZM46.1184 67.0382C46.4823 67.0964 46.788 67.1692 46.788 67.2274C46.788 67.2711 46.5551 67.5623 46.2785 67.868C45.6671 68.5231 45.3031 69.1928 45.405 69.4548C45.4341 69.5567 45.2594 69.7751 44.9974 69.9352C44.2986 70.3865 43.1485 70.9252 43.0612 70.8524C42.9302 70.7068 43.1922 70.2846 43.3815 70.3574C43.4979 70.4011 43.5416 70.3574 43.4834 70.2264C43.4397 70.1099 43.6144 69.746 43.8619 69.3966L44.3132 68.7997L43.9783 68.6396C43.5271 68.4066 43.4979 68.0136 43.9056 67.5768C44.4588 66.9654 44.8664 66.8781 46.1184 67.0382ZM60.2978 67.504C60.327 67.606 60.2542 67.6787 60.1231 67.6787C59.9921 67.6787 59.8902 67.5768 59.8902 67.4458C59.8902 67.1983 60.2105 67.242 60.2978 67.504ZM61.0112 69.12C61.6517 69.3383 61.8264 69.3529 62.2195 69.1928C62.6562 69.0035 63.093 69.0472 63.093 69.2801C63.093 69.3529 62.9474 69.4403 62.7727 69.4694C62.467 69.5276 62.4815 69.5276 62.8164 69.5567C63.1512 69.5713 63.224 69.6441 63.2822 70.1099C63.3259 70.5175 63.2822 70.7359 63.0784 70.9543C62.8309 71.2163 62.7436 71.2163 61.9138 71.0416C60.8947 70.8378 59.8902 70.4448 59.8902 70.2409C59.8902 70.1827 60.0212 70.1536 60.1959 70.1973C60.5599 70.2992 60.4725 70.1827 60.0067 69.9498C59.5845 69.7314 59.4826 69.2801 59.8465 69.2656C59.9921 69.2656 60.0358 69.2219 59.9339 69.1782C59.6573 69.0763 59.701 68.8434 60.0067 68.8434C60.1377 68.8579 60.589 68.9744 61.0112 69.12ZM64.6943 69.2801C64.6943 69.3529 64.6652 69.4257 64.6361 69.4257C64.5924 69.4257 64.5196 69.3529 64.476 69.2801C64.4323 69.1928 64.4614 69.1345 64.5342 69.1345C64.6216 69.1345 64.6943 69.1928 64.6943 69.2801ZM65.3786 70.4302C65.5824 71.0416 65.5824 71.0999 65.3349 71.2746C65.0146 71.5075 64.9564 71.5075 64.6361 71.2746C64.4032 71.0999 64.3741 70.9543 64.4614 70.3865C64.5488 69.8042 64.607 69.7023 64.869 69.746C65.0728 69.7751 65.233 69.9935 65.3786 70.4302ZM59.5991 71.2018C59.5991 71.5512 59.5554 71.9879 59.4971 72.1772C59.4098 72.512 59.4098 72.512 59.1478 72.0316C58.8129 71.4056 58.8129 71.2454 59.1332 70.8961C59.5117 70.4739 59.5991 70.5321 59.5991 71.2018ZM67.4604 72.4974C67.4604 72.5848 67.4021 72.5993 67.3148 72.5557C67.242 72.512 67.1692 72.3955 67.1692 72.3227C67.1692 72.2354 67.242 72.2208 67.3148 72.2645C67.4021 72.3082 67.4604 72.4246 67.4604 72.4974ZM59.4535 72.9487C59.4535 73.0506 59.3807 73.2399 59.3079 73.3563C59.1914 73.531 59.1623 73.4874 59.1623 73.1671C59.1623 72.9487 59.2351 72.774 59.3079 72.774C59.3952 72.774 59.4535 72.8614 59.4535 72.9487Z" fill="currentColor" />
  <path d="M44.6045 67.6786C44.6045 67.7514 44.6773 67.8242 44.7501 67.8242C44.8374 67.8242 44.8957 67.7514 44.8957 67.6786C44.8957 67.5913 44.8374 67.5331 44.7501 67.5331C44.6773 67.5331 44.6045 67.5913 44.6045 67.6786Z" fill="currentColor" />
  <path d="M60.4727 69.4403C60.4727 69.5131 60.5454 69.5422 60.6182 69.4985C60.7056 69.4548 60.7638 69.3821 60.7638 69.3384C60.7638 69.3093 60.7056 69.2802 60.6182 69.2802C60.5454 69.2802 60.4727 69.3529 60.4727 69.4403Z" fill="currentColor" />
  <path d="M62.307 37.2963C62.2342 37.4419 62.2634 37.733 62.3653 37.9951C62.6128 38.5628 62.6419 38.4901 62.5108 37.6894C62.4381 37.209 62.3798 37.107 62.307 37.2963Z" fill="currentColor" />
  <path d="M63.0928 37.9804C63.0928 38.0532 63.1656 38.126 63.2384 38.126C63.3257 38.126 63.3839 38.0532 63.3839 37.9804C63.3839 37.893 63.3257 37.8348 63.2384 37.8348C63.1656 37.8348 63.0928 37.893 63.0928 37.9804Z" fill="currentColor" />
  <path d="M60.6614 38.3008C60.3265 38.7376 60.312 38.8977 60.6323 38.6065C60.807 38.4318 60.9234 38.2426 60.8797 38.1989C60.8361 38.1552 60.7342 38.1989 60.6614 38.3008Z" fill="currentColor" />
  <path d="M56.192 38.8107C56.0318 38.9708 56.1046 39.1455 56.323 39.1455C56.4395 39.1455 56.5414 39.0873 56.5414 39.0145C56.5414 38.8252 56.3084 38.6942 56.192 38.8107Z" fill="currentColor" />
  <path d="M68.4798 39.1453C68.3633 39.2181 68.3196 39.32 68.3633 39.3782C68.4215 39.4219 68.5671 39.3637 68.6981 39.2327C68.9602 38.9852 68.8291 38.9269 68.4798 39.1453Z" fill="currentColor" />
  <path d="M40.4408 40.2808C40.3244 40.4555 40.3244 40.6011 40.4263 40.7758C40.5718 40.9796 40.6155 40.9796 40.8484 40.6593C41.125 40.3099 41.0959 40.0187 40.7757 40.0187C40.6737 40.0187 40.5282 40.1352 40.4408 40.2808Z" fill="currentColor" />
  <path d="M47.0648 41.1104C47.3122 41.5908 47.5161 41.8528 47.5161 41.6927C47.5161 41.6053 47.3705 41.387 47.2103 41.1832C47.0211 40.9357 46.9628 40.9211 47.0648 41.1104Z" fill="currentColor" />
  <path d="M45.9142 42.6098C45.6376 42.7408 45.23 43.0029 45.0261 43.1921C44.6768 43.4978 44.6476 43.5852 44.7641 44.1238C44.8369 44.4441 45.0116 44.91 45.1281 45.1429C45.3173 45.5214 45.3319 45.5942 45.1426 45.7398C44.9534 45.8853 44.9534 46.0018 45.1135 46.4968L45.3027 47.0791L45.3173 46.5841C45.3319 46.2202 45.3901 46.1183 45.5502 46.1911C45.7249 46.2493 45.754 46.1619 45.7249 45.7689C45.7104 45.4341 45.6085 45.2302 45.4483 45.172C45.3027 45.1283 45.1863 45.041 45.1863 44.9828C45.1863 44.91 45.492 44.9536 45.856 45.0847C46.6858 45.3613 47.0788 45.172 47.4428 44.3713C47.7485 43.7017 47.6466 43.1921 47.1225 42.6972C46.6858 42.2895 46.5984 42.2895 45.9142 42.6098Z" fill="currentColor" />
  <path d="M57.8813 42.4494C57.8959 42.5222 57.8231 42.7551 57.7212 42.988C57.6339 43.221 57.5756 43.483 57.6047 43.5704C57.6484 43.6577 57.7212 43.5558 57.7794 43.3374C57.8377 43.1191 57.9687 42.9153 58.0852 42.8716C58.1871 42.8279 58.2453 42.6969 58.2016 42.5659C58.1143 42.3475 57.8377 42.2456 57.8813 42.4494Z" fill="currentColor" />
  <path d="M68.4497 43.1048C68.4789 43.2504 68.5808 43.3523 68.6681 43.3231C68.9447 43.2358 68.9302 42.9738 68.6536 42.901C68.4352 42.8427 68.3915 42.8864 68.4497 43.1048Z" fill="currentColor" />
  <path d="M49.5101 44.2696C49.4664 44.4298 49.5247 44.7646 49.6411 44.983C49.743 45.2014 49.8449 45.5071 49.8449 45.6526C49.8449 45.871 49.8741 45.8856 49.9905 45.6963C50.0633 45.5799 50.1361 45.2014 50.1361 44.8665C50.1361 44.4152 50.0633 44.2114 49.8595 44.1095C49.6411 43.9785 49.5683 44.0076 49.5101 44.2696Z" fill="currentColor" />
  <path d="M56.9788 44.1677C56.8769 44.2987 56.8187 44.4152 56.8478 44.4589C56.8915 44.488 56.9934 44.3861 57.0953 44.2405C57.2991 43.8911 57.2409 43.862 56.9788 44.1677Z" fill="currentColor" />
  <path d="M73.7636 44.168C73.7199 44.299 73.487 44.5028 73.254 44.6193C73.0211 44.7503 72.861 44.8813 72.9047 44.925C73.0211 45.056 74.0111 44.3427 74.0111 44.1243C74.0111 43.8768 73.88 43.9059 73.7636 44.168Z" fill="currentColor" />
  <path d="M52.2618 44.9099C52.1017 45.3175 52.1745 45.4631 52.3928 45.1719C52.5093 45.0263 52.6112 44.8516 52.6112 44.7788C52.6112 44.5896 52.3492 44.6769 52.2618 44.9099Z" fill="currentColor" />
  <path d="M47.0791 45.4632C47.0791 45.4923 47.2101 45.5506 47.3703 45.5942C47.5304 45.6379 47.6323 45.6088 47.5741 45.536C47.5013 45.405 47.0791 45.3467 47.0791 45.4632Z" fill="currentColor" />
  <path d="M88.5981 47.2975C88.2633 47.3703 87.9284 47.4576 87.8557 47.5013C87.681 47.6178 89.0057 49.0444 89.2823 49.0444C89.4134 49.0444 89.6754 48.928 89.8792 48.7824C90.1704 48.5931 90.2432 48.4184 90.214 47.9817C90.214 47.676 90.1704 47.3994 90.1413 47.3557C89.9957 47.2101 89.1804 47.181 88.5981 47.2975Z" fill="currentColor" />
  <path d="M90.5344 48.3168C90.4907 48.3896 90.5489 48.4624 90.6799 48.4624C90.811 48.4624 90.8692 48.3896 90.8255 48.3168C90.7818 48.2295 90.7091 48.1712 90.6799 48.1712C90.6508 48.1712 90.578 48.2295 90.5344 48.3168Z" fill="currentColor" />
  <path d="M93.7374 48.5208C93.3152 48.7101 92.6455 49.4671 92.6455 49.7437C92.6455 49.8165 92.893 49.9184 93.1842 49.9621C93.6209 50.0349 93.9412 49.9621 94.6691 49.6273C95.4843 49.2342 95.659 49.2051 96.0812 49.3361C96.6198 49.5253 96.8673 49.438 96.8673 49.0886C96.8673 48.9139 96.7509 48.8848 96.2122 48.9576C95.6736 49.0449 95.4552 49.0013 94.902 48.6955C94.538 48.4772 94.2178 48.317 94.2032 48.317C94.1887 48.3316 93.9848 48.4189 93.7374 48.5208Z" fill="currentColor" />
  <path d="M84.9297 48.8408C84.9297 48.9573 85.0025 49.0155 85.0753 48.9718C85.1626 48.9136 85.1917 48.8117 85.1481 48.7389C85.017 48.5351 84.9297 48.5788 84.9297 48.8408Z" fill="currentColor" />
  <path d="M42.7114 49.6415C42.7114 49.7143 42.7842 49.7434 42.857 49.6997C42.9444 49.656 43.0026 49.5832 43.0026 49.5396C43.0026 49.5104 42.9444 49.4813 42.857 49.4813C42.7842 49.4813 42.7114 49.5541 42.7114 49.6415Z" fill="currentColor" />
  <path d="M42.0571 50.6459C42.1007 50.7187 42.2172 50.7915 42.29 50.7915C42.3773 50.7915 42.3919 50.7187 42.3482 50.6459C42.3045 50.5586 42.1881 50.5003 42.1153 50.5003C42.0279 50.5003 42.0134 50.5586 42.0571 50.6459Z" fill="currentColor" />
  <path d="M78.8588 62.5686C78.8443 62.7288 78.9462 62.9471 79.0772 63.049C79.2373 63.1801 79.281 63.1946 79.1936 63.049C79.1354 62.9617 79.15 62.8743 79.2373 62.8743C79.3101 62.8743 79.3538 62.7579 79.3392 62.6123C79.281 62.2629 78.8879 62.2192 78.8588 62.5686Z" fill="currentColor" />
  <path d="M80.4167 63.049C80.4167 63.1363 80.3003 63.1509 80.1692 63.1072C79.9363 63.0199 79.9363 63.0199 80.1547 63.2674C80.2857 63.4129 80.4022 63.5876 80.4167 63.675C80.5041 64.0681 80.8535 64.3301 81.4503 64.4029L82.0909 64.4902L81.6687 64.1408C81.4358 63.937 81.1592 63.806 81.0427 63.8497C80.9262 63.8934 80.8535 63.8642 80.8826 63.7769C80.9117 63.6895 80.7952 63.5149 80.6351 63.3838C80.3439 63.1509 80.3439 63.1509 80.6788 63.2091C81.0718 63.2965 81.1155 63.0781 80.7079 62.9762C80.5477 62.9325 80.4167 62.9616 80.4167 63.049Z" fill="currentColor" />
  <path d="M69.062 63.894C69.062 63.9668 69.1348 64.0396 69.2221 64.0396C69.2949 64.0396 69.3241 63.9668 69.2804 63.894C69.2367 63.8066 69.1639 63.7484 69.1202 63.7484C69.0911 63.7484 69.062 63.8066 69.062 63.894Z" fill="currentColor" />
  <path d="M99.0508 63.894C99.0508 63.9668 99.1236 64.0396 99.1964 64.0396C99.2837 64.0396 99.3419 63.9668 99.3419 63.894C99.3419 63.8066 99.2837 63.7484 99.1964 63.7484C99.1236 63.7484 99.0508 63.8066 99.0508 63.894Z" fill="currentColor" />
  <path d="M69.8038 64.8688C69.9057 65.0435 70.0222 65.16 70.0659 65.1163C70.1095 65.0872 70.0222 64.9416 69.8766 64.796C69.6291 64.5631 69.6146 64.5631 69.8038 64.8688Z" fill="currentColor" />
  <path d="M78.7572 65.8445C79.0629 66.1211 79.3541 66.3103 79.3832 66.2812C79.4705 66.1939 78.5534 65.3495 78.3496 65.3495C78.2622 65.3495 78.4369 65.5679 78.7572 65.8445Z" fill="currentColor" />
  <path d="M70.328 65.6556C70.4299 65.7576 70.5463 65.8012 70.59 65.7576C70.6337 65.7139 70.5609 65.6265 70.4153 65.5829C70.2115 65.4955 70.197 65.5101 70.328 65.6556Z" fill="currentColor" />
  <path d="M84.0273 65.5679C83.8817 65.7135 84.1001 66.4996 84.3039 66.5724C84.8134 66.7762 84.9299 66.3395 84.5077 65.8154C84.2165 65.4806 84.1583 65.4514 84.0273 65.5679Z" fill="currentColor" />
  <path d="M71.5371 66.2081C71.5371 66.2955 71.6099 66.3974 71.6827 66.4411C71.77 66.4847 71.8283 66.4265 71.8283 66.31C71.8283 66.179 71.77 66.0771 71.6827 66.0771C71.6099 66.0771 71.5371 66.1353 71.5371 66.2081Z" fill="currentColor" />
  <path d="M83.6924 66.3686C83.7361 66.4414 83.8089 66.5142 83.8525 66.5142C83.8816 66.5142 83.9108 66.4414 83.9108 66.3686C83.9108 66.2812 83.838 66.223 83.7506 66.223C83.6778 66.223 83.6487 66.2812 83.6924 66.3686Z" fill="currentColor" />
  <path d="M69.062 66.6162C69.062 66.6889 69.2076 66.8782 69.3968 67.0383L69.7171 67.3149L69.426 66.951C69.2658 66.7472 69.1202 66.5579 69.1057 66.5288C69.0766 66.4997 69.062 66.5288 69.062 66.6162Z" fill="currentColor" />
  <path d="M32.7836 67.4897C32.8855 67.5334 33.0165 67.5189 33.0602 67.4752C33.1184 67.4315 33.0311 67.3878 32.8709 67.4024C32.7108 67.4024 32.6671 67.4461 32.7836 67.4897Z" fill="currentColor" />
  <path d="M31.9095 67.6349C31.9968 67.664 32.1715 67.664 32.2735 67.6349C32.3608 67.5912 32.288 67.5621 32.0842 67.5621C31.8804 67.5621 31.8076 67.5912 31.9095 67.6349Z" fill="currentColor" />
  <path d="M28.6485 68.1012C28.4593 68.2905 28.6485 68.4215 28.9979 68.3342C29.5803 68.1886 29.6967 68.0139 29.1726 68.0284C28.9251 68.043 28.6922 68.0721 28.6485 68.1012Z" fill="currentColor" />
  <path d="M82.8921 68.3776C82.8921 68.4504 83.2997 68.7561 83.8092 69.0618C84.3042 69.3675 84.9448 69.8334 85.2359 70.0809C85.5271 70.3429 85.8182 70.5758 85.891 70.605C85.9784 70.6341 86.1822 70.8816 86.3714 71.129C86.7208 71.6531 87.3468 71.7841 87.4924 71.3911C87.6234 71.0708 87.2886 70.736 86.8227 70.736C86.6044 70.736 86.3423 70.6341 86.2404 70.5176C86.1385 70.4011 85.9784 70.2992 85.891 70.2992C85.8037 70.2992 85.2796 69.9353 84.7118 69.484C83.62 68.6105 82.8921 68.1738 82.8921 68.3776Z" fill="currentColor" />
  <path d="M72.4097 68.6982C72.4097 68.7855 72.5116 68.8438 72.628 68.8438C72.7445 68.8438 72.8464 68.8146 72.8464 68.7855C72.8464 68.7564 72.7445 68.6982 72.628 68.6399C72.5116 68.5963 72.4097 68.6254 72.4097 68.6982Z" fill="currentColor" />
  <path d="M104 68.9892C104 69.062 104.175 69.1348 104.408 69.1348C104.714 69.1348 104.758 69.1056 104.583 68.9892C104.292 68.7999 104 68.7999 104 68.9892Z" fill="currentColor" />
  <path d="M104.947 68.9742C104.845 69.1634 105.413 69.4691 105.617 69.3527C105.719 69.2799 105.704 69.1925 105.588 69.047C105.398 68.814 105.078 68.7849 104.947 68.9742Z" fill="currentColor" />
  <path d="M37.1799 69.1347C37.0489 69.222 37.0343 69.2803 37.1362 69.2803C37.2236 69.2803 37.3546 69.2075 37.3983 69.1347C37.5147 68.96 37.4565 68.96 37.1799 69.1347Z" fill="currentColor" />
  <path d="M80.1548 69.1636C80.2567 69.4402 80.708 69.4839 80.708 69.2218C80.708 69.0762 80.577 68.9889 80.4023 68.9889C80.2276 68.9889 80.1257 69.0617 80.1548 69.1636Z" fill="currentColor" />
  <path d="M86.5312 69.1347C86.5312 69.2075 86.604 69.2803 86.6914 69.2803C86.7642 69.2803 86.7933 69.2075 86.7496 69.1347C86.7059 69.0473 86.6332 68.9891 86.5895 68.9891C86.5604 68.9891 86.5312 69.0473 86.5312 69.1347Z" fill="currentColor" />
  <path d="M67.9261 69.5273C67.9552 69.6728 68.0571 69.7893 68.159 69.7893C68.2609 69.7893 68.4065 69.8912 68.4793 70.0077C68.5521 70.1241 68.6249 70.1678 68.6249 70.1096C68.6249 69.9203 68.159 69.2798 68.0135 69.2798C67.9407 69.2798 67.897 69.3962 67.9261 69.5273Z" fill="currentColor" />
  <path d="M45.434 70.6487C45.3758 70.7943 45.4194 70.838 45.5505 70.7797C45.6669 70.7361 45.7252 70.6487 45.6815 70.5759C45.5796 70.4012 45.5213 70.4158 45.434 70.6487Z" fill="currentColor" />
  <path d="M25.8974 70.7073C25.5917 71.0276 26.043 71.1295 26.4506 70.8238C26.6836 70.6491 26.669 70.62 26.3487 70.62C26.1449 70.62 25.9411 70.6637 25.8974 70.7073Z" fill="currentColor" />
  <path d="M44.8521 70.969C44.7356 71.0854 44.8666 71.3184 45.0559 71.3184C45.1287 71.3184 45.1869 71.2165 45.1869 71.1C45.1869 70.8816 45.0122 70.8088 44.8521 70.969Z" fill="currentColor" />
  <path d="M69.1347 71.391C69.2366 71.8423 69.3094 71.9879 69.4113 71.886C69.4404 71.8569 69.3676 71.624 69.2512 71.391L69.0474 70.9543L69.1347 71.391Z" fill="currentColor" />
  <path d="M44.8228 71.9003C44.8664 71.9731 44.9392 72.0459 44.9829 72.0459C45.012 72.0459 45.0411 71.9731 45.0411 71.9003C45.0411 71.813 44.9683 71.7547 44.881 71.7547C44.8082 71.7547 44.7791 71.813 44.8228 71.9003Z" fill="currentColor" />
  <path d="M45.3906 72.0603C45.114 72.3806 45.114 72.3806 45.4489 72.2059C45.6236 72.1185 45.7691 71.9729 45.7691 71.9001C45.7691 71.6818 45.6964 71.7254 45.3906 72.0603Z" fill="currentColor" />
  <path d="M93.7373 71.9003C93.781 71.9731 93.8538 72.0459 93.8975 72.0459C93.9266 72.0459 93.9557 71.9731 93.9557 71.9003C93.9557 71.813 93.8829 71.7547 93.7955 71.7547C93.7228 71.7547 93.6936 71.813 93.7373 71.9003Z" fill="currentColor" />
  <path d="M92.9658 72.1332C93.024 72.4389 93.2861 72.468 93.3443 72.1477C93.3734 72.0022 93.3006 71.9002 93.1551 71.9002C93.0095 71.9002 92.9367 71.9876 92.9658 72.1332Z" fill="currentColor" />
  <path d="M95.1929 72.2499C95.4404 72.4537 95.7461 72.6284 95.8772 72.6284C96.2411 72.6284 96.0519 72.2354 95.6297 72.1334C95.4404 72.0898 95.1784 72.0024 95.0183 71.9588C94.8581 71.9151 94.9163 72.017 95.1929 72.2499Z" fill="currentColor" />
  <path d="M38.999 73.2109C38.9554 73.2837 38.9845 73.3564 39.0573 73.3564C39.1446 73.3564 39.2174 73.2837 39.2174 73.2109C39.2174 73.1235 39.1883 73.0653 39.1592 73.0653C39.1155 73.0653 39.0427 73.1235 38.999 73.2109Z" fill="currentColor" />
  <path d="M62.5396 73.2395C62.2484 73.5307 62.3357 73.7636 62.7288 73.6762C62.9326 73.6471 63.1364 73.5452 63.1801 73.4724C63.2383 73.3851 63.151 73.3705 62.9472 73.4287C62.6706 73.5161 62.6269 73.487 62.6997 73.2977C62.8162 73.0211 62.7725 73.0066 62.5396 73.2395Z" fill="currentColor" />
  <path d="M63.5295 73.3564C63.3985 73.4437 63.3839 73.502 63.4858 73.502C63.5732 73.502 63.7042 73.4292 63.7479 73.3564C63.8643 73.1817 63.8061 73.1817 63.5295 73.3564Z" fill="currentColor" />
  <path d="M37.1797 73.662C37.1797 73.7348 37.2525 73.7639 37.3253 73.7202C37.4126 73.6765 37.4708 73.6037 37.4708 73.5601C37.4708 73.5309 37.4126 73.5018 37.3253 73.5018C37.2525 73.5018 37.1797 73.5746 37.1797 73.662Z" fill="currentColor" />
  <path d="M56.8476 74.3171C56.8476 74.4772 56.8913 74.5209 56.9349 74.4044C56.9786 74.3025 56.964 74.1715 56.9204 74.1278C56.8767 74.0696 56.833 74.1569 56.8476 74.3171Z" fill="currentColor" />
  <path d="M67.2564 74.696C66.9216 75.3657 66.9507 76.0645 67.3438 76.3265C67.7951 76.6468 67.897 76.6177 68.4356 76.1227C68.9597 75.6277 68.9452 75.2638 68.3628 74.6232C67.8679 74.0992 67.533 74.1283 67.2564 74.696Z" fill="currentColor" />
  <path d="M56.9785 74.8705C56.9785 74.987 57.0367 75.118 57.1095 75.1617C57.1823 75.2199 57.2114 75.118 57.1678 74.9579C57.0804 74.623 56.9785 74.5793 56.9785 74.8705Z" fill="currentColor" />
  <path d="M48.4766 75.2782C48.4329 75.4674 48.4038 75.7731 48.4038 75.9769C48.4184 76.1953 48.4766 76.0789 48.5494 75.7003C48.6804 75.0161 48.6367 74.7104 48.4766 75.2782Z" fill="currentColor" />
  <path d="M99.706 75.1034C99.7497 75.1762 99.8661 75.249 99.9389 75.249C100.026 75.249 100.041 75.1762 99.9971 75.1034C99.9535 75.0161 99.837 74.9579 99.7642 74.9579C99.6769 74.9579 99.6623 75.0161 99.706 75.1034Z" fill="currentColor" />
  <path d="M41.3725 75.4234C40.8338 75.7291 40.6591 75.9766 40.9648 75.9766C41.0522 75.9766 41.1104 75.9183 41.1104 75.8455C41.1104 75.7728 41.3142 75.6417 41.5472 75.5398C41.9839 75.3651 42.2605 75.1031 42.0276 75.1031C41.9693 75.1031 41.6636 75.2487 41.3725 75.4234Z" fill="currentColor" />
  <path d="M77.1411 75.249C77.1848 75.3217 77.2576 75.3945 77.3013 75.3945C77.3304 75.3945 77.3595 75.3217 77.3595 75.249C77.3595 75.1616 77.2867 75.1034 77.1994 75.1034C77.1266 75.1034 77.0975 75.1616 77.1411 75.249Z" fill="currentColor" />
  <path d="M43.2503 76.0785C43.1921 76.1221 43.1484 76.2386 43.1484 76.3259C43.1484 76.4133 43.2212 76.3987 43.3231 76.2968C43.4105 76.2095 43.4542 76.093 43.425 76.0493C43.3814 76.0057 43.294 76.0202 43.2503 76.0785Z" fill="currentColor" />
  <path d="M72.3519 76.2243C72.2646 76.4281 72.2791 76.4427 72.4247 76.3117C72.5266 76.2098 72.5703 76.0933 72.5266 76.0496C72.4829 76.006 72.3956 76.0787 72.3519 76.2243Z" fill="currentColor" />
  <path d="M59.0894 76.7045C59.133 76.7773 59.2058 76.8501 59.2495 76.8501C59.2786 76.8501 59.3077 76.7773 59.3077 76.7045C59.3077 76.6172 59.2349 76.5589 59.1476 76.5589C59.0748 76.5589 59.0457 76.6172 59.0894 76.7045Z" fill="currentColor" />
  <path d="M73.0651 76.9232C73.1233 77.0833 73.2544 77.491 73.3563 77.8258C73.4582 78.1752 73.7202 78.7429 73.924 79.0923C74.3899 79.8785 74.4044 80.1114 74.0114 79.9804C73.8512 79.9221 73.7348 79.9367 73.7493 80.0095C73.7785 80.0677 73.7057 80.4899 73.5892 80.9412C73.3708 81.8583 73.5019 82.3242 74.2734 83.2559L74.681 83.7363L75.4817 83.5471C76.5736 83.2705 76.6755 83.1686 76.5736 82.4698C76.4717 81.8438 76.0495 81.0868 74.8121 79.267C74.2006 78.3644 74.0551 78.0587 74.1861 77.9131C74.2734 77.8112 74.3171 77.6948 74.288 77.6802C74.2589 77.6657 74.0987 77.5492 73.9386 77.4327C73.6911 77.258 73.6765 77.258 73.8367 77.4327C73.924 77.5492 74.0114 77.6948 74.0114 77.7676C74.0114 77.9714 73.5601 77.5637 73.2398 77.0688C73.0942 76.8213 73.0069 76.7631 73.0651 76.9232Z" fill="currentColor" />
  <path d="M73.5165 76.8943C73.5601 77.0398 73.6475 77.1126 73.6911 77.069C73.7348 77.0253 73.6911 76.9088 73.5892 76.8069C73.4437 76.6759 73.4291 76.6904 73.5165 76.8943Z" fill="currentColor" />
  <path d="M53.5862 77.2C53.528 77.3455 53.5135 77.5057 53.5571 77.5493C53.6882 77.6804 53.8046 77.462 53.7464 77.1854C53.7027 76.9379 53.6882 76.9379 53.5862 77.2Z" fill="currentColor" />
  <path d="M76.9229 77.287C76.9229 77.3598 76.9811 77.4326 77.0539 77.4326C77.1412 77.4326 77.2431 77.3598 77.2868 77.287C77.3305 77.1997 77.2722 77.1415 77.1558 77.1415C77.0248 77.1415 76.9229 77.1997 76.9229 77.287Z" fill="currentColor" />
  <path d="M58.0269 77.5784C58.0269 77.7822 58.056 77.855 58.0996 77.7531C58.1288 77.6657 58.1288 77.4911 58.0996 77.3891C58.056 77.3018 58.0269 77.3746 58.0269 77.5784Z" fill="currentColor" />
  <path d="M81.1445 77.5497C81.1445 77.6807 82.0617 78.8016 83.27 80.1264C84.522 81.4949 85.3518 82.6449 86.3854 84.421C87.1715 85.7895 88.3216 87.1725 91.2332 90.2733C92.3105 91.4234 91.7427 90.6373 90.4907 89.2543C88.0305 86.5465 87.2298 85.5274 86.4873 84.1299C86.3272 83.8533 85.8322 83.0671 85.3809 82.3829C84.915 81.6987 84.3618 80.8106 84.1289 80.4176C83.9105 80.01 83.1972 79.1802 82.5567 78.5542C81.4794 77.506 81.1445 77.2731 81.1445 77.5497Z" fill="currentColor" />
  <path d="M95.2661 77.5781C95.2661 77.6508 95.3389 77.7236 95.4263 77.7236C95.499 77.7236 95.5282 77.6508 95.4845 77.5781C95.4408 77.4907 95.368 77.4325 95.3243 77.4325C95.2952 77.4325 95.2661 77.4907 95.2661 77.5781Z" fill="currentColor" />
  <path d="M53.9214 77.6366C53.9214 77.6658 54.0233 77.724 54.1398 77.7822C54.2562 77.8259 54.3581 77.7968 54.3581 77.724C54.3581 77.6366 54.2562 77.5784 54.1398 77.5784C54.0233 77.5784 53.9214 77.6075 53.9214 77.6366Z" fill="currentColor" />
  <path d="M65.2764 77.855C65.2764 77.9278 65.3492 78.0443 65.4219 78.088C65.5093 78.1316 65.5675 78.1171 65.5675 78.0297C65.5675 77.9569 65.5093 77.8405 65.4219 77.7968C65.3492 77.7531 65.2764 77.7677 65.2764 77.855Z" fill="currentColor" />
  <path d="M37.6893 78.0294C37.5438 78.2478 37.733 78.3933 37.9223 78.2041C38.0242 78.1022 38.0242 78.0148 37.9368 77.9566C37.8495 77.9129 37.733 77.942 37.6893 78.0294Z" fill="currentColor" />
  <path d="M63.2095 78.1022C63.093 78.2041 63.326 79.1795 63.6753 80.0384C64.0102 80.8973 64.5488 81.7854 66.7616 85.1337C66.9072 85.3375 67.1547 85.7888 67.3148 86.1382C67.7225 87.0117 68.4649 88.0599 68.989 88.4966C70.3575 89.6467 71.5221 90.8113 71.9297 91.4664C72.1918 91.874 72.8032 92.6019 73.2836 93.0823C73.764 93.5628 74.4774 94.2907 74.8704 94.7128C75.6129 95.4844 76.1079 95.8047 76.8212 95.9794C77.1997 96.0667 77.2143 96.0522 77.1269 95.6737C77.0687 95.4407 76.9377 95.1787 76.8358 95.0622C76.6756 94.873 76.6319 94.8875 76.5446 95.0913C76.4136 95.4407 76.1515 95.3971 75.6857 94.9312C75.016 94.2615 74.885 93.9704 74.7394 92.733C74.521 90.8259 74.0989 90.1999 71.4639 88.0599C70.9252 87.6231 70.2847 86.968 70.0372 86.6041C69.7897 86.2401 69.353 85.716 69.0764 85.4394C68.7852 85.1483 68.1883 84.5077 67.7516 83.9982C67.3148 83.4886 66.485 82.6006 65.9318 82.0183C64.8982 80.9701 63.7773 79.3105 63.6026 78.5535C63.5007 78.1459 63.3405 77.9566 63.2095 78.1022Z" fill="currentColor" />
  <path d="M99.6769 78.4079C99.8079 78.539 99.9681 78.5972 100.026 78.539C100.085 78.4807 100.041 78.3788 99.9244 78.306C99.5605 78.0731 99.4149 78.1459 99.6769 78.4079Z" fill="currentColor" />
  <path d="M59.5991 78.9468C59.5991 79.0778 59.6719 79.1797 59.7447 79.1797C59.832 79.1797 59.8903 79.1215 59.8903 79.0487C59.8903 78.9613 59.832 78.8594 59.7447 78.8157C59.6719 78.7721 59.5991 78.8303 59.5991 78.9468Z" fill="currentColor" />
  <path d="M28.7358 79.3397C28.7358 79.4125 28.8086 79.4416 28.8814 79.3979C28.9688 79.3543 29.027 79.2815 29.027 79.2378C29.027 79.2087 28.9688 79.1796 28.8814 79.1796C28.8086 79.1796 28.7358 79.2524 28.7358 79.3397Z" fill="currentColor" />
  <path d="M41.8814 79.3977C41.8377 79.5288 41.8377 79.6598 41.8814 79.718C42.027 79.8636 42.42 79.6307 42.42 79.3977C42.42 79.1066 41.9979 79.1066 41.8814 79.3977Z" fill="currentColor" />
  <path d="M58.0996 80.577C58.056 80.6207 58.056 80.7663 58.0996 80.8827C58.1724 81.0574 58.2016 81.0574 58.3035 80.8973C58.5218 80.5624 58.3617 80.315 58.0996 80.577Z" fill="currentColor" />
  <path d="M47.6468 81.9749C47.5594 82.1496 47.079 82.8047 46.5986 83.4016C46.1036 83.9985 45.8125 84.4061 45.9435 84.3042C46.1327 84.1586 46.191 84.1586 46.2346 84.3042C46.2929 84.4498 46.3511 84.4498 46.5549 84.2896C46.6859 84.1732 46.7587 83.9839 46.715 83.8675C46.6714 83.751 46.9334 83.2415 47.3119 82.7174C47.6759 82.2078 47.9525 81.742 47.9088 81.6983C47.8651 81.6692 47.7487 81.7857 47.6468 81.9749Z" fill="currentColor" />
  <path d="M25.6207 82.9499C25.3587 83.0518 25.3587 83.0664 25.5916 83.1537C25.9556 83.2993 26.4069 83.2847 26.4069 83.1246C26.4069 83.0227 26.0284 82.7898 25.9265 82.8334C25.9119 82.8334 25.7663 82.8917 25.6207 82.9499Z" fill="currentColor" />
  <path d="M104.19 83.6195C104.642 84.0271 105.195 84.1436 104.889 83.7796C104.787 83.6631 104.496 83.503 104.249 83.4157L103.783 83.2555L104.19 83.6195Z" fill="currentColor" />
  <path d="M28.0806 84.275C27.6002 84.5953 27.0907 85.0175 26.9451 85.2213C26.7995 85.4251 26.5812 85.5853 26.4793 85.5853C26.3628 85.5853 26.2027 85.7163 26.1153 85.8619C25.7368 86.5752 26.0716 86.4587 27.0761 85.5125C27.5566 85.0757 28.2117 84.5371 28.5611 84.3187C29.1143 83.9548 29.3472 83.6927 29.0706 83.6927C28.9978 83.6927 28.5611 83.9548 28.0806 84.275Z" fill="currentColor" />
  <path d="M78.5244 84.0275C78.5244 84.1294 78.6263 84.3769 78.7573 84.5661C79.0922 85.0611 80.1549 86.1675 80.3005 86.1675C80.3587 86.1675 80.1549 85.8909 79.8346 85.5706C79.2523 84.9737 79.1213 84.7117 79.3979 84.7117C79.4707 84.7117 79.6308 84.9009 79.7618 85.1484C79.8929 85.3814 80.0239 85.5852 80.0676 85.5852C80.2131 85.5852 79.7764 84.9009 79.2814 84.3769C78.7282 83.8091 78.5244 83.7072 78.5244 84.0275Z" fill="currentColor" />
  <path d="M57.1386 84.217C57.1386 84.3771 57.1823 84.4208 57.2259 84.3043C57.2696 84.2024 57.2551 84.0714 57.2114 84.0277C57.1677 83.9695 57.124 84.0568 57.1386 84.217Z" fill="currentColor" />
  <path d="M64.869 86.7644C64.8981 86.8663 65.0146 86.9828 65.1165 87.0119C65.2329 87.0555 65.2912 86.9973 65.2475 86.8808C65.2184 86.7789 65.1019 86.6625 65 86.6334C64.8836 86.5897 64.8253 86.6479 64.869 86.7644Z" fill="currentColor" />
  <path d="M43.5854 87.0555C43.5854 87.1283 43.6582 87.1574 43.731 87.1138C43.8184 87.0701 43.8766 86.9973 43.8766 86.9536C43.8766 86.9245 43.8184 86.8954 43.731 86.8954C43.6582 86.8954 43.5854 86.9682 43.5854 87.0555Z" fill="currentColor" />
  <path d="M55.3187 88.0163C55.2313 88.2201 55.2459 88.2347 55.3915 88.1037C55.4934 88.0018 55.5371 87.8853 55.4934 87.8416C55.4497 87.7979 55.3624 87.8707 55.3187 88.0163Z" fill="currentColor" />
  <path d="M55.0421 88.6276C54.9838 88.875 54.9984 88.9333 55.1148 88.8168C55.1876 88.744 55.2313 88.5839 55.2022 88.482C55.1585 88.3655 55.1003 88.4383 55.0421 88.6276Z" fill="currentColor" />
  <path d="M93.4468 92.5732C93.4905 92.646 93.5633 92.7188 93.6069 92.7188C93.636 92.7188 93.6652 92.646 93.6652 92.5732C93.6652 92.4858 93.5924 92.4276 93.505 92.4276C93.4322 92.4276 93.4031 92.4858 93.4468 92.5732Z" fill="currentColor" />
  <path d="M87.2593 92.8642C87.2593 92.937 87.3321 93.0098 87.4194 93.0098C87.4922 93.0098 87.5213 92.937 87.4776 92.8642C87.434 92.7768 87.3612 92.7186 87.3175 92.7186C87.2884 92.7186 87.2593 92.7768 87.2593 92.8642Z" fill="currentColor" />
  <path d="M44.1675 94.3198C44.1675 94.3925 44.2403 94.4653 44.3276 94.4653C44.4004 94.4653 44.4295 94.3925 44.3859 94.3198C44.3422 94.2324 44.2694 94.1742 44.2257 94.1742C44.1966 94.1742 44.1675 94.2324 44.1675 94.3198Z" fill="currentColor" />
  <path d="M82.4111 94.8445C82.2219 95.0337 82.3092 95.1938 82.6149 95.1938C82.7751 95.1938 82.8915 95.1211 82.8624 95.0192C82.7896 94.8153 82.5421 94.7134 82.4111 94.8445Z" fill="currentColor" />
  <path d="M67.0234 96.2419C67.1836 96.5913 67.3146 96.9844 67.3146 97.1154C67.3146 97.261 67.3874 97.3774 67.4747 97.3774C67.6494 97.3774 67.5475 96.9553 67.1545 96.1691C66.7759 95.4267 66.674 95.4849 67.0234 96.2419Z" fill="currentColor" />
  <path d="M100.653 96.2268C100.245 96.4451 99.954 96.4888 99.2115 96.416L98.2798 96.3287L98.3671 96.8528C98.4108 97.1439 98.5855 97.6535 98.7311 98.0028C98.8912 98.3377 99.1387 98.8763 99.2843 99.1966C99.4153 99.5169 99.9394 100.303 100.42 100.944C100.915 101.584 101.439 102.312 101.584 102.545C101.73 102.792 102.167 103.2 102.56 103.477C102.953 103.739 103.564 104.234 103.928 104.568C104.292 104.903 104.583 105.151 104.583 105.122C104.583 105.078 104.321 104.714 104.016 104.306C103.695 103.899 103.273 103.215 103.055 102.792C102.793 102.268 102.458 101.89 101.992 101.555C101.279 101.075 99.9248 99.7061 99.9248 99.4732C99.9248 99.4004 99.6919 98.9782 99.4153 98.5415C99.1387 98.1048 98.9058 97.668 98.9058 97.5661C98.9058 97.275 99.4299 96.8964 99.8812 96.8382C100.1 96.8091 100.463 96.649 100.682 96.5034C100.9 96.3432 101.148 96.2122 101.235 96.2122C101.308 96.2122 101.381 96.1394 101.381 96.0666C101.381 95.8774 101.264 95.9065 100.653 96.2268Z" fill="currentColor" />
  <path d="M86.7352 98.1342C86.8662 98.3235 87.0991 98.7165 87.2593 99.0077C87.4194 99.3134 87.827 99.7356 88.1473 99.954C88.7296 100.332 88.7588 100.332 88.948 100.07C89.3556 99.5027 88.7151 98.4982 87.8125 98.2944C87.5941 98.2507 87.3321 98.1197 87.2447 98.0177C87.1574 97.9013 86.9536 97.8139 86.7934 97.8139C86.5168 97.8139 86.5023 97.8285 86.7352 98.1342Z" fill="currentColor" />
  <path d="M46.8608 99.2695C46.9045 99.3422 47.0501 99.415 47.1665 99.415C47.283 99.415 47.3703 99.3422 47.3703 99.2695C47.3703 99.1821 47.2393 99.1239 47.0646 99.1239C46.9045 99.1239 46.8171 99.1821 46.8608 99.2695Z" fill="currentColor" />
  <path d="M18.1087 101.235C17.9486 101.424 17.9632 101.438 18.167 101.366C18.298 101.322 18.3999 101.22 18.3999 101.147C18.3999 100.958 18.3125 100.987 18.1087 101.235Z" fill="currentColor" />
  <path d="M95.9941 108.819C95.9941 108.936 96.0669 108.994 96.1397 108.95C96.2271 108.892 96.2562 108.79 96.2125 108.717C96.0815 108.514 95.9941 108.557 95.9941 108.819Z" fill="currentColor" />
  <path d="M66.0049 109.62C66.0049 109.693 66.0777 109.722 66.1505 109.679C66.2378 109.635 66.296 109.562 66.296 109.519C66.296 109.489 66.2378 109.46 66.1505 109.46C66.0777 109.46 66.0049 109.533 66.0049 109.62Z" fill="currentColor" />
  <path d="M89.8361 112.619C89.6178 112.823 89.7488 112.954 90.171 112.954C90.4913 112.954 90.5786 112.896 90.5204 112.736C90.433 112.517 90.0108 112.445 89.8361 112.619Z" fill="currentColor" />
</svg>
