<?xml version="1.0" encoding="UTF-8" standalone="no"?>
<!DOCTYPE svg PUBLIC "-//W3C//DTD SVG 1.1//EN" "http://www.w3.org/Graphics/SVG/1.1/DTD/svg11.dtd">

<!-- Created with Vectornator (http://vectornator.io/) -->
<svg height="100%" stroke-miterlimit="10" style="fill-rule:nonzero;clip-rule:evenodd;stroke-linecap:round;stroke-linejoin:round;" version="1.1" viewBox="0 0 1024 1024" width="100%" xmlSpace="preserve" xmlns="http://www.w3.org/2000/svg" xmlnsXlink="http://www.w3.org/1999/xlink">
<metadata>
<vectornatorSetting key="IsTimeLapseWatermarkDisabled" value="false"/>
<vectornatorSetting key="UndoHistoryDisabled" value="true"/>
<vectornatorSetting key="VNDimensionsVisible" value="true"/>
<vectornatorSetting key="VNSnapToGuides" value="true"/>
<vectornatorSetting key="WDCMYKEnabledKey" value="false"/>
<vectornatorSetting key="WDDisplayWhiteBackground" value="false"/>
<vectornatorSetting key="WDDynamicGuides" value="false"/>
<vectornatorSetting key="WDGuidesVisible" value="true"/>
<vectornatorSetting key="WDIsolateActiveLayer" value="false"/>
<vectornatorSetting key="WDOutlineMode" value="false"/>
<vectornatorSetting key="WDRulersVisible" value="true"/>
<vectornatorSetting key="WDSnapToEdges" value="false"/>
<vectornatorSetting key="WDSnapToGrid" value="false"/>
<vectornatorSetting key="WDSnapToPoints" value="false"/>
<vectornatorSetting key="WDUnits" value="Pixels"/>
</metadata>
<defs/>
<g id="Layer-1" vectornatorLayerName="Layer 1">
<path d="M321.88 919.223C708.212 919.223 919.48 599.411 919.48 322.084C919.48 313.001 919.293 303.958 918.889 294.961C959.895 265.335 995.543 228.367 1023.66 186.281C986.023 202.996 945.523 214.251 903.039 219.324C946.405 193.339 979.693 152.241 995.401 103.239C954.822 127.28 909.88 144.751 862.033 154.187C823.7 113.391 769.135 87.8776 708.718 87.8776C592.73 87.8776 498.672 181.867 498.672 297.719C498.672 314.189 500.515 330.205 504.115 345.572C329.552 336.797 174.765 253.283 71.1696 126.301C53.129 157.315 42.7268 193.339 42.7268 231.785C42.7268 304.595 79.8085 368.874 136.199 406.478C101.739 405.415 69.3666 395.962 41.0719 380.231C41.0435 381.113 41.0435 381.972 41.0435 382.91C41.0435 484.549 113.444 569.41 209.549 588.639C191.895 593.445 173.326 596.027 154.165 596.027C140.652 596.027 127.486 594.696 114.689 592.239C141.426 675.628 218.967 736.312 310.892 738.007C239.01 794.306 148.449 827.839 50.0296 827.839C33.0981 827.839 16.3717 826.877-0.0705394 824.938C92.8838 884.468 203.259 919.206 321.891 919.206" fill="currentColor" fill-rule="evenodd" opacity="1" stroke="none"/>
</g>
</svg>
