<svg viewBox="0 0 18 18" fill="none" xmlns="http://www.w3.org/2000/svg">
  <path fill-rule="evenodd" clip-rule="evenodd" d="M15.2602 3.72356C15.9456 3.90915 16.4859 4.45264 16.6704 5.14196C17.0131 6.40128 16.9999 9.02597 16.9999 9.02597C16.9999 9.02597 16.9999 11.6374 16.6704 12.8967C16.4859 13.586 15.9456 14.1295 15.2602 14.3151C14.0082 14.6465 8.99997 14.6465 8.99997 14.6465C8.99997 14.6465 4.00493 14.6465 2.7397 14.3019C2.05436 14.1163 1.514 13.5728 1.32949 12.8835C1 11.6374 1 9.01271 1 9.01271C1 9.01271 1 6.40128 1.32949 5.14196C1.514 4.45264 2.06754 3.89589 2.7397 3.71031C3.99175 3.37891 8.99997 3.37891 8.99997 3.37891C8.99997 3.37891 14.0082 3.37891 15.2602 3.72356ZM7.40516 6.60026L11.5699 9.01285L7.40516 11.4254V6.60026Z" fill="currentColor" />
</svg>
