<svg viewBox="0 0 24 17" fill="none" xmlns="http://www.w3.org/2000/svg">
  <path d="M10.6736 13.9263C11.0757 13.9263 11.317 14.248 11.317 14.5697C11.317 14.9719 10.9953 15.2131 10.6736 15.2131C10.2714 15.2131 10.0301 14.8914 10.0301 14.5697C10.0301 14.248 10.2714 13.9263 10.6736 13.9263ZM21.2099 9.82433C20.8077 9.82433 20.5665 9.50261 20.5665 9.18089C20.5665 8.85917 20.8882 8.53745 21.2099 8.53745C21.612 8.53745 21.8533 8.85917 21.8533 9.18089C21.8533 9.50261 21.5316 9.82433 21.2099 9.82433ZM21.2099 7.08971C20.0839 7.08971 19.1187 8.05487 19.1187 9.18089C19.1187 9.42218 19.1187 9.66347 19.1991 9.82433L12.3626 13.4437C11.9604 12.8807 11.317 12.559 10.6736 12.559C9.86927 12.559 9.1454 13.0415 8.82368 13.685L2.711 10.4678C2.06756 10.1461 1.58498 9.02003 1.66541 8.05487C1.66541 7.57229 1.9067 7.17014 2.14799 7.00928C2.30885 6.92885 2.55014 6.92885 2.711 7.00928H2.79143C4.40003 7.89401 9.78884 10.6286 9.9497 10.7895C10.2714 10.9504 10.5127 11.0308 11.0757 10.7091L22.0946 4.99853C22.2555 4.9181 22.4163 4.75724 22.4163 4.51595C22.4163 4.19423 22.0946 4.03337 22.0946 4.03337C21.4512 3.71166 20.486 3.30951 19.6013 2.82693C17.5905 1.86177 15.3385 0.816176 14.2929 0.333595C13.4082 -0.148985 12.7647 0.253165 12.6039 0.333595L12.3626 0.414025C7.85852 2.66607 1.82627 5.64197 1.50455 5.80283C0.861114 6.20498 0.539394 6.92885 0.458964 7.81358C0.378534 9.26132 1.1024 10.7895 2.22842 11.3525L8.74325 14.7306C8.90411 15.7761 9.78884 16.5 10.754 16.5C11.88 16.5 12.8452 15.6153 12.8452 14.4893L20.0034 10.6286C20.4056 10.9504 20.8077 11.0308 21.2903 11.0308C22.4163 11.0308 23.3815 10.0656 23.3815 8.9396C23.2206 7.97444 22.3359 7.08971 21.2099 7.08971Z" fill="currentColor" />
</svg>