<svg viewBox="0 0 18 18" fill="none" xmlns="http://www.w3.org/2000/svg">
  <path d="M9.00006 11.6998C9.72904 11.6998 10.35 11.4298 10.899 10.8988C11.43 10.3498 11.7 9.7288 11.7 8.99981C11.7 8.27083 11.43 7.64984 10.899 7.10085C10.35 6.56986 9.72904 6.29987 9.00006 6.29987C8.27107 6.29987 7.65008 6.56986 7.1011 7.10085C6.57011 7.64984 6.30011 8.27083 6.30011 8.99981C6.30011 9.7288 6.57011 10.3498 7.1011 10.8988C7.65008 11.4298 8.27107 11.6998 9.00006 11.6998ZM9.00006 0C11.475 0 13.59 0.899981 15.3449 2.65494C17.0999 4.40991 17.9999 6.52486 17.9999 8.99981V10.3048C17.9999 11.2048 17.6849 11.9697 17.0999 12.5997C16.4699 13.2027 15.7499 13.4997 14.8499 13.4997C13.77 13.4997 12.879 13.0497 12.204 12.1497C11.304 13.0497 10.242 13.4997 9.00006 13.4997C7.76708 13.4997 6.7051 13.0497 5.81412 12.1857C4.95014 11.2948 4.50015 10.2418 4.50015 8.99981C4.50015 7.76684 4.95014 6.70486 5.81412 5.81388C6.7051 4.9499 7.76708 4.49991 9.00006 4.49991C10.242 4.49991 11.295 4.9499 12.186 5.81388C13.05 6.70486 13.5 7.76684 13.5 8.99981V10.3048C13.5 10.6738 13.644 10.9978 13.914 11.2768C14.1839 11.5558 14.4989 11.6998 14.8499 11.6998C15.2279 11.6998 15.5429 11.5558 15.8129 11.2768C16.0829 10.9978 16.1999 10.6738 16.1999 10.3048V8.99981C16.1999 7.02885 15.5069 5.33689 14.0849 3.91492C12.663 2.49295 10.971 1.79996 9.00006 1.79996C7.0291 1.79996 5.33713 2.49295 3.91516 3.91492C2.49319 5.33689 1.80021 7.02885 1.80021 8.99981C1.80021 10.9708 2.49319 12.6627 3.91516 14.0847C5.33713 15.5067 7.0291 16.1997 9.00006 16.1997H13.5V17.9996H9.00006C6.52511 17.9996 4.41015 17.0996 2.65519 15.3447C0.900225 13.5897 0.000244141 11.4748 0.000244141 8.99981C0.000244141 6.52486 0.900225 4.40991 2.65519 2.65494C4.41015 0.899981 6.52511 0 9.00006 0Z" fill="currentColor" />
</svg>