<svg viewBox="0 0 67 54" fill="none" xmlns="http://www.w3.org/2000/svg">
  <path d="M37.1299 0.0860023C36.8691 0.178524 36.6504 0.607487 36.6504 1.03645C36.6504 1.55793 36.4738 1.88597 36.2131 1.84391C36.171 1.84391 36.1458 1.86914 36.1458 1.91961C36.1458 2.02895 35.2458 3.18968 35.0439 3.33266C34.9598 3.39154 34.8841 3.49247 34.8841 3.55976C34.8841 3.61864 34.8168 3.69434 34.7327 3.71957C34.657 3.74481 34.472 3.87097 34.3206 3.99714C34.1776 4.13171 33.9337 4.33358 33.7823 4.45134C33.6225 4.56909 33.4206 4.81301 33.3281 4.99805C33.2356 5.17468 33.0757 5.45225 32.9664 5.61206C32.8655 5.77187 32.7309 6.06625 32.6804 6.26812C32.63 6.4784 32.5459 6.6298 32.4786 6.6298C32.344 6.6298 32.3188 6.76437 32.4449 6.84007C32.5459 6.89895 32.5038 7.0924 32.2767 7.58865C32.1758 7.80734 32.1505 7.99238 32.1926 8.13537C32.2262 8.25313 32.2262 8.5391 32.201 8.77461C32.1674 9.08582 32.201 9.34656 32.344 9.77552C32.5879 10.5241 32.5795 10.5662 32.2599 10.8521L31.9823 11.0876L32.386 10.9026L32.7814 10.7176L33.101 11.0204C33.2692 11.1886 33.6982 11.4661 34.043 11.6344C34.3879 11.811 34.7327 11.996 34.8 12.0549C34.8673 12.1138 34.9935 12.1811 35.0776 12.1895C35.229 12.2231 35.229 12.24 35.0523 12.4502C34.8505 12.711 34.6234 12.753 34.4636 12.5596C34.4047 12.4839 34.3038 12.4418 34.2533 12.4671C34.1944 12.4839 34.1103 12.4671 34.0683 12.425C34.0178 12.3745 33.9169 12.4166 33.7991 12.5259C33.6225 12.6942 33.6225 12.711 33.7486 12.854C33.8832 12.997 33.8748 13.0138 33.7318 13.0895C33.5215 13.1988 33.1935 13.0642 33.143 12.8456C33.1094 12.711 33.0505 12.6857 32.8991 12.7194C32.7898 12.753 32.6973 12.7446 32.6973 12.711C32.6888 12.6689 32.5963 12.5259 32.4786 12.3914L32.2683 12.139L32.4449 12.5343C32.5374 12.753 32.5879 12.9885 32.5543 13.0727C32.5206 13.1652 32.529 13.1988 32.5963 13.1568C32.6468 13.1315 32.7141 13.1484 32.7393 13.1988C32.8402 13.3502 32.7225 13.3755 32.4281 13.2493C32.2767 13.182 31.9066 13.1231 31.6122 13.1231C31.3263 13.1231 31.0319 13.0727 30.9646 13.0138C30.8216 12.896 30.4263 13.039 30.4263 13.2072C30.4263 13.2661 30.2833 13.4091 30.1067 13.5184C29.9384 13.6362 29.745 13.7876 29.6777 13.8549C29.5768 13.9726 29.5683 13.9642 29.6104 13.796C29.6356 13.6951 29.6188 13.611 29.5768 13.611C29.5347 13.611 29.5011 13.6698 29.5011 13.7371C29.5011 13.8044 29.4254 13.8633 29.3328 13.8633C29.2151 13.8633 29.1646 13.8044 29.1646 13.6867C29.1646 13.5269 29.1478 13.5184 29.0216 13.6194C28.9459 13.6867 28.702 13.7371 28.4749 13.7371C28.1132 13.7371 28.0712 13.7203 28.0712 13.5437C28.0712 13.4427 28.0291 13.3586 27.9787 13.3586C27.9366 13.3586 27.9198 13.3082 27.945 13.2493C27.9787 13.1988 27.9366 13.2241 27.8693 13.3082C27.7936 13.4007 27.7347 13.5016 27.7347 13.5353C27.7347 13.5689 27.5749 13.6698 27.3815 13.7624C27.0114 13.9306 26.8095 13.8885 26.8095 13.6446C26.8095 13.3923 26.3806 13.325 25.4553 13.4343C25.0768 13.4848 24.6731 13.5857 24.5554 13.6614C24.3871 13.7708 24.3367 13.7792 24.2778 13.6867C24.2273 13.6026 24.2526 13.5605 24.3535 13.5353C24.4292 13.5184 24.7236 13.3502 25.0011 13.1484C25.5815 12.7446 25.8423 12.6353 25.9264 12.7699C25.9516 12.8119 26.0441 12.854 26.1198 12.854C26.2292 12.8456 26.2123 12.8203 26.0609 12.7362L25.8507 12.6185L26.1451 12.4755C26.3049 12.3914 26.5488 12.2316 26.6918 12.1306C26.8348 12.0213 27.0114 11.9288 27.0871 11.9288C27.1628 11.9288 27.2469 11.8867 27.2721 11.8446C27.3562 11.7101 27.4656 11.7437 27.5245 11.9203C27.5833 12.1222 27.8777 12.1979 28.0964 12.0802C28.1973 12.0297 28.416 11.9792 28.5927 11.9708C28.7693 11.954 29.0132 11.8615 29.131 11.7689C29.2571 11.668 29.3917 11.5923 29.4422 11.5923C29.4926 11.5923 29.6104 11.525 29.7029 11.4325C29.9384 11.2306 30.4599 11.054 30.4936 11.1718C30.5104 11.2138 30.5608 11.2559 30.6113 11.2559C30.6618 11.2559 30.6702 11.197 30.645 11.1297C30.6113 11.0456 30.6618 10.9699 30.7879 10.9278C31.015 10.8353 31.3263 10.5073 31.3431 10.3307C31.4356 9.2961 31.444 8.9933 31.3599 8.51387C31.301 8.21107 31.2001 7.86622 31.1328 7.75687C31.0319 7.60548 31.0066 7.41202 31.0403 6.90736C31.0655 6.54568 31.0571 6.40269 31.0319 6.58774L30.973 6.92418L30.8216 6.69708C30.7291 6.57092 30.6954 6.41952 30.7291 6.36064C30.7711 6.27653 30.7627 6.26812 30.6702 6.35223C30.5188 6.50363 30.4431 6.48681 30.3337 6.28494C30.2665 6.15036 30.2665 6.09149 30.3422 6.04102C30.4179 5.99897 30.4179 5.96532 30.3506 5.92327C30.3001 5.88962 30.2581 5.90644 30.2581 5.9485C30.2581 5.99897 30.216 6.04102 30.1655 6.04102C30.1151 6.04102 30.0898 5.98214 30.1235 5.91486C30.1487 5.83916 30.1235 5.78869 30.0478 5.78869C29.8964 5.78869 29.888 5.68776 30.0225 5.55318C30.0982 5.47748 30.0982 5.42702 30.0225 5.35131C29.9468 5.27562 29.9216 5.28403 29.9216 5.39337C29.9216 5.46907 29.8627 5.53636 29.7954 5.53636C29.7197 5.53636 29.6693 5.46066 29.6693 5.3345C29.6693 5.21674 29.6356 5.09898 29.5852 5.07375C29.5431 5.04852 29.5011 4.81301 29.5011 4.56068C29.5011 4.23265 29.4674 4.10648 29.3833 4.10648C29.3244 4.10648 29.2487 4.18218 29.2235 4.2747C29.1983 4.36723 29.131 4.44292 29.0805 4.44292C29.0132 4.44292 28.9964 4.36723 29.03 4.23265C29.0637 4.11489 29.0553 4.02237 29.0216 4.02237C28.9123 4.02237 28.7441 3.585 28.7441 3.31584C28.7441 3.18127 28.8029 3.00463 28.8786 2.92052C28.9459 2.84483 29.0553 2.51679 29.1057 2.19717C29.1562 1.88597 29.2403 1.59999 29.2908 1.55793C29.3497 1.51588 29.3412 1.47382 29.274 1.43177C29.2151 1.39812 29.173 1.22149 29.1814 1.05327C29.1898 0.87664 29.1562 0.700008 29.1141 0.657955C29.0721 0.615898 28.7693 0.657955 28.3824 0.758884C27.8104 0.918697 27.6506 1.00281 27.1376 1.46541C26.3721 2.1383 26.1955 2.22241 25.9011 2.12148C25.6993 2.04578 25.674 1.99531 25.6909 1.70092C25.7077 1.46541 25.6909 1.40654 25.632 1.49906C25.5899 1.56635 25.5479 1.69251 25.5479 1.78503C25.5479 1.86914 25.2787 2.214 24.9507 2.55044C24.446 3.07192 24.3787 3.18127 24.4965 3.24855C24.6563 3.33266 24.7068 3.27379 23.79 3.95508C22.8984 4.61115 22.7975 4.82142 23.1171 5.3345C23.2432 5.55318 23.3021 5.81392 23.3358 6.41111C23.3778 7.10922 23.3694 7.22698 23.218 7.43726C23.1255 7.57183 22.9741 7.8494 22.8816 8.05967C22.789 8.26995 22.6292 8.52228 22.5283 8.62321C22.4358 8.72414 22.2928 8.96806 22.2171 9.16993C22.1414 9.3718 22.0321 9.64936 21.9648 9.79235C21.662 10.4905 21.3928 11.3736 21.2835 12.097C21.09 13.2661 21.0143 13.5269 20.8713 13.5269C20.7788 13.5269 20.7536 13.4764 20.7956 13.3334C20.8293 13.2325 20.8881 13.1147 20.9302 13.0642C20.9723 13.0222 21.0059 12.8371 21.0059 12.6605C21.0059 12.4082 20.9723 12.3241 20.8377 12.2904C20.7452 12.2652 20.6695 12.1979 20.6695 12.139C20.6695 12.0129 20.4171 11.9035 20.2405 11.9456C20.1816 11.9624 20.0555 12.0381 19.9629 12.1138C19.8704 12.1979 19.7022 12.2652 19.5844 12.2652C19.4667 12.2652 19.1639 12.3577 18.92 12.4755C18.6676 12.5932 18.4153 12.6857 18.348 12.6857C18.2807 12.6857 18.1546 12.7614 18.0536 12.8624C17.9275 12.9885 17.8938 13.0895 17.9359 13.2829C17.9863 13.4848 17.9527 13.5605 17.7845 13.7035C17.6667 13.7876 17.4901 13.9895 17.3976 14.1493C17.1957 14.4773 16.9602 14.5698 16.7415 14.4016C16.5228 14.2418 16.4639 14.2586 16.4639 14.4857C16.4639 14.5951 16.4051 14.7296 16.3378 14.7885C16.2368 14.8726 16.2116 14.8726 16.2116 14.7801C16.22 14.5194 16.4639 13.1147 16.5817 12.6605C16.8508 11.6848 16.7163 11.239 15.9929 10.625C15.749 10.4148 15.4967 10.1372 15.4378 10.011C15.0677 9.23722 13.5705 9.39703 12.8977 10.2886C12.5864 10.6923 12.0481 11.7269 11.9136 12.1643C11.821 12.4923 11.8295 12.5343 12.0313 12.8371C12.2332 13.1231 12.2584 13.2325 12.2668 13.9895C12.2752 14.4521 12.2752 15.0324 12.2668 15.2848L12.2584 15.739L11.9724 15.4446C11.821 15.2848 11.6612 15.0324 11.6276 14.8894C11.5687 14.5866 11.5435 14.5782 11.2491 14.7465C11.1313 14.8137 10.8033 14.8726 10.4921 14.8726C9.64258 14.881 9.15474 15.2343 9.02017 15.924C8.98652 16.109 8.95288 16.5632 8.94447 16.9333C8.93605 17.5305 8.9697 17.6567 9.18839 18.052C9.32296 18.2959 9.5837 18.6071 9.76875 18.7501C10.2482 19.1034 10.6435 19.0697 10.2482 18.7081C10.0043 18.4894 9.8865 18.1361 9.92015 17.724C9.94538 17.4043 9.98744 17.3286 10.3407 17.0595C10.8454 16.681 11.6612 16.4287 11.9556 16.5632C12.2164 16.681 12.5949 17.3791 12.5949 17.7324C12.5949 17.9931 12.6033 18.0015 12.8724 17.9511C13.0154 17.9258 13.192 17.9342 13.2593 17.9763C13.3939 18.0604 13.15 18.338 12.4266 18.9099C12.2248 19.0697 11.9556 19.3052 11.8295 19.4314C11.7033 19.566 11.5182 19.6669 11.4173 19.6669C11.3164 19.6669 11.1566 19.709 11.064 19.7594C10.9211 19.8351 10.9127 19.8688 11.0052 19.9277C11.0893 19.9781 11.0556 20.0034 10.8958 20.0034C10.7697 20.0034 10.6435 20.037 10.6183 20.0875C10.5846 20.1379 10.7024 20.1716 10.9042 20.1716C11.1566 20.1716 11.2659 20.2136 11.3332 20.3398C11.4425 20.5501 11.3753 20.6762 11.1482 20.6762C11.022 20.6762 10.9883 20.6342 11.022 20.508C11.0725 20.2977 10.8454 20.2725 10.7697 20.4744C10.7024 20.651 10.9463 20.8445 11.165 20.7856C11.3837 20.7267 11.3837 20.937 11.1734 21.0716C11.0809 21.1304 10.9883 21.2902 10.9547 21.4332C10.8958 21.6856 10.6687 21.8117 10.3071 21.7865C10.2229 21.7865 10.1388 21.8117 10.1136 21.8622C10.08 21.9043 9.9622 21.9379 9.84445 21.9379C9.48277 21.9379 8.97811 22.1061 8.16224 22.5014C7.6744 22.7285 7.2202 22.8883 6.95105 22.9136C6.40433 22.964 6.18564 23.0818 5.63893 23.6033C4.98286 24.2257 5.04174 24.4107 5.89126 24.4192C6.31181 24.4192 6.40433 24.4528 6.54732 24.6294C6.98469 25.1846 6.9931 25.6556 6.56414 26.1771C6.04266 26.7995 5.89967 27.0013 5.66416 27.4471C5.53799 27.6742 5.30248 28.0948 5.15109 28.3723C4.99128 28.6499 4.781 29.0536 4.68007 29.2723C4.57913 29.4994 4.46979 29.6761 4.42774 29.6761C4.38568 29.6761 4.35204 29.7097 4.35204 29.7602C4.35204 29.8022 4.37727 29.8359 4.41932 29.8359C4.57072 29.8106 4.59596 29.8611 4.51185 30.0714C4.46138 30.206 4.38568 30.82 4.35204 31.4424C4.30157 32.3424 4.2511 32.6536 4.10812 32.9311C4.01559 33.1246 3.93148 33.3433 3.93148 33.4106C3.93148 33.4778 3.84737 33.6377 3.73803 33.7722C3.62869 33.8984 3.45205 34.1591 3.3343 34.3442C2.72029 35.3535 2.64459 35.4376 2.039 35.9002C1.3577 36.4133 1.21472 36.5647 0.928742 37.0778C0.810987 37.2881 0.583889 37.6497 0.424079 37.8936C-0.114227 38.6927 0.171748 39.231 0.970797 38.9282C1.18948 38.8441 1.50069 38.7263 1.6605 38.6759C2.36703 38.4235 2.51002 38.331 2.75394 37.9441C2.89693 37.7254 3.00627 37.4479 3.00627 37.3301C3.00627 37.0441 3.2586 36.8086 3.87261 36.5311C4.14176 36.4133 4.38568 36.2535 4.41091 36.1862C4.43615 36.1273 4.49502 36.0684 4.54549 36.0684C4.781 36.0684 6.74077 34.7143 7.23702 34.2012C7.32114 34.1171 7.48936 33.9993 7.62393 33.9236C7.85103 33.8143 7.86785 33.8143 7.90991 33.9657C7.93514 34.0582 7.9015 34.1676 7.83421 34.2264C7.76692 34.2853 7.71645 34.4788 7.71645 34.6974C7.71645 35.1096 7.99402 35.4797 8.30523 35.4797C8.5155 35.4797 8.5155 35.4629 8.31364 35.0759C8.22953 34.9077 8.12859 34.5292 8.09495 34.2517L8.03607 33.7386L8.38934 33.4526C8.78466 33.1246 9.20521 32.3508 9.28091 31.8293L9.32296 31.4844L9.05381 31.8041C8.91082 31.9807 8.6669 32.1741 8.50709 32.2414C8.33046 32.3171 8.17065 32.4769 8.06131 32.6872C7.81739 33.1582 7.25385 33.7891 6.79965 34.1087C6.58937 34.2517 6.2277 34.5629 6.0006 34.7984C5.71463 35.0844 5.32772 35.3451 4.781 35.6227C4.31839 35.8498 3.76326 36.2114 3.47729 36.4638C3.19972 36.7161 2.93898 36.9011 2.88851 36.8843C2.56048 36.775 2.63618 36.0264 3.0315 35.4292C3.1829 35.2105 3.39318 34.8741 3.50252 34.689C3.61186 34.4956 3.8642 34.1423 4.04924 33.8984C4.24269 33.6461 4.46138 33.3349 4.53708 33.1919C4.61278 33.0489 4.781 32.8218 4.91558 32.6872C5.11744 32.4769 5.13426 32.4265 5.03333 32.2667C4.91558 32.0732 4.81464 30.3742 4.92399 30.2312C4.95763 30.1807 5.04174 29.9873 5.10062 29.8022C5.24361 29.3733 5.72304 28.5658 6.11836 28.078C6.28658 27.8677 6.56414 27.4219 6.73236 27.0855C7.1445 26.2443 7.35478 25.9752 7.69963 25.8322C8.06972 25.6808 8.4398 25.4032 9.13792 24.7808C9.43231 24.5117 9.71828 24.293 9.77716 24.293C9.82763 24.293 9.94538 24.2089 10.0379 24.1164C10.3575 23.7547 11.2491 23.5444 11.2491 23.8304C11.2491 23.8977 11.308 23.9565 11.3753 23.9565C11.4425 23.9565 11.5014 23.9061 11.5014 23.8472C11.5014 23.7883 11.5771 23.6958 11.6696 23.6369C11.8126 23.5528 11.8379 23.5528 11.8379 23.6706C11.8379 23.7379 11.8715 23.7799 11.9136 23.7547C11.9556 23.7294 12.0313 23.7631 12.0902 23.8304C12.1659 23.9229 12.1575 23.9902 12.0566 24.1416C11.9809 24.2425 11.922 24.4192 11.922 24.5201C11.922 24.7135 11.7285 24.7892 11.6276 24.6294C11.5939 24.579 11.493 24.6042 11.3668 24.6799C11.2575 24.7556 11.1818 24.8397 11.1986 24.8649C11.2239 24.8902 11.308 24.8565 11.3753 24.7976C11.4762 24.7135 11.5351 24.7135 11.6024 24.7808C11.6612 24.8397 11.7706 24.8818 11.8463 24.8818C11.9893 24.8818 12.0818 25.1593 12.1154 25.6556C12.1238 25.7902 12.1575 25.8911 12.1827 25.8911C12.2416 25.8911 12.4603 25.4537 12.5528 25.1341C12.6369 24.8734 12.9481 24.3687 13.1079 24.2425C13.1752 24.1921 13.3182 24.1248 13.4276 24.0995C13.6126 24.0575 13.621 24.0659 13.5705 24.3855C13.5369 24.6126 13.5453 24.7051 13.6042 24.6715C13.6462 24.6463 13.6883 24.6799 13.6883 24.7556C13.6883 24.8313 13.6546 24.8734 13.6042 24.8397C13.5621 24.8145 13.4864 24.9575 13.436 25.1509C13.3855 25.3528 13.3098 25.6219 13.2677 25.7565C13.1584 26.0677 13.1584 26.0509 13.3266 26.0257C13.4191 26.0088 13.5033 25.8827 13.5453 25.6892C13.5958 25.4874 13.6967 25.3444 13.8481 25.2687C13.9827 25.193 14.1173 25.0247 14.1845 24.8229C14.4032 24.2005 14.7229 23.9061 14.7986 24.2678C14.8406 24.4864 15.1266 24.007 15.1686 23.6453C15.1939 23.4771 15.2275 23.3173 15.2443 23.2753C15.32 23.1575 15.749 23.3341 15.8499 23.536C15.9509 23.7379 15.9509 23.7379 15.9425 23.4855C15.934 23.1323 16.035 22.8631 16.178 22.8631C16.3462 22.8631 16.4555 23.1827 16.4555 23.679C16.4555 23.8977 16.4892 24.2678 16.5396 24.5033C16.6237 24.949 16.5817 25.0836 16.2537 25.4874C16.1527 25.6051 15.9425 25.9668 15.7995 26.2864C15.6481 26.5976 15.4462 27.0098 15.3453 27.1948C14.992 27.8677 14.95 27.9602 14.8154 28.3471C14.7144 28.6499 14.6303 28.7508 14.5042 28.7508C14.3696 28.7508 14.3528 28.7929 14.3864 28.9779C14.4116 29.1041 14.3612 29.5331 14.2771 29.9284C14.0752 30.8788 13.9911 33.2928 14.1509 33.5115C14.2434 33.6377 14.2939 33.6461 14.4705 33.5704C14.7481 33.4442 15.3705 32.5022 15.3705 32.2162C15.3705 32.09 15.3957 31.7872 15.4294 31.5433C15.4714 31.1312 15.5051 31.0807 15.8079 30.9293C16.0854 30.7863 16.1864 30.6517 16.4639 30.063C16.7163 29.5331 16.8593 29.3228 17.1116 29.1546C17.3555 28.9948 17.4733 28.8181 17.6247 28.4312C17.8013 27.977 17.8097 27.8677 17.734 27.4387C17.6247 26.8668 17.6163 26.2275 17.7088 26.2275C17.7508 26.2275 17.8434 26.3789 17.9275 26.5724C18.0116 26.7574 18.1041 26.892 18.1293 26.8668C18.1546 26.8415 18.1377 26.7322 18.0873 26.6228C17.7004 25.807 17.6751 25.6219 17.9359 25.2687C18.0789 25.0752 18.2303 25.1593 18.163 25.4032C18.1377 25.521 18.1461 25.5631 18.2134 25.521C18.2723 25.4874 18.3144 25.5042 18.3144 25.5546C18.3144 25.6219 18.3985 25.6303 18.5583 25.5967C18.7686 25.5546 18.8022 25.5715 18.8359 25.7565C18.8611 25.8743 18.8359 25.9836 18.7938 26.0004C18.7433 26.0173 18.7349 26.0761 18.7686 26.135C18.8106 26.1939 18.8863 26.2191 18.9452 26.1939C19.0798 26.1434 19.1891 26.5051 19.105 26.749C19.0714 26.8668 19.0798 26.9004 19.1555 26.8584C19.2059 26.8247 19.2396 26.6733 19.2228 26.5219C19.1975 26.1771 19.2816 26.0677 19.3994 26.2948C19.4499 26.3873 19.677 26.5303 19.9041 26.606C20.1312 26.6817 20.3414 26.7995 20.3667 26.8668C20.4592 27.1023 20.4171 27.3798 20.2826 27.4976C20.1396 27.6153 20.1648 27.9013 20.3667 28.3555C20.4255 28.5069 20.4844 28.7929 20.4844 29.0032C20.4928 29.3648 20.6442 29.5919 20.9218 29.6929C20.9638 29.7097 21.0059 29.8106 20.9975 29.9284C20.9975 30.0461 20.9975 30.2732 20.9891 30.4331C20.9891 30.5929 21.0395 30.8788 21.1152 31.0639C21.233 31.3667 21.2498 31.3751 21.2582 31.1732C21.2582 31.0471 21.3003 30.9209 21.3423 30.8957C21.3928 30.8704 21.4265 30.7527 21.4265 30.6433C21.4265 30.3658 21.7124 30.1807 22.0657 30.2396L22.3517 30.2901V29.7013C22.3517 29.1125 22.2339 28.5826 22.0993 28.5826C22.0573 28.5826 21.9479 28.6836 21.847 28.8097C21.5863 29.1462 21.4012 28.9948 21.3171 28.3639C21.2835 28.0948 21.2246 27.8088 21.1994 27.7415C21.1741 27.6742 21.1573 27.5901 21.1573 27.5481C21.1657 27.5144 21.1237 27.4892 21.0564 27.4892C20.9975 27.4892 20.8966 27.4303 20.8377 27.363C20.7031 27.2032 20.4171 25.9836 20.5012 25.9331C20.5265 25.9163 20.5433 25.7817 20.5181 25.6388C20.5012 25.5042 20.5097 25.3864 20.5349 25.3864C20.6106 25.3864 20.7452 25.7649 20.7872 26.093C20.8377 26.5051 21.0227 26.8079 21.4601 27.22C21.7124 27.4555 21.847 27.649 21.847 27.792C21.847 27.9013 21.8807 27.9938 21.9311 27.9938C21.9732 27.9938 21.99 28.0443 21.9648 28.1116C21.9395 28.1873 22.0068 28.2882 22.133 28.3723C22.2591 28.4565 22.3517 28.5994 22.3517 28.7088C22.3517 28.8097 22.4105 28.9443 22.4862 29.0116C22.5704 29.0789 22.5956 29.1882 22.5619 29.3228C22.5367 29.4321 22.5535 29.5751 22.6124 29.6424C22.6629 29.7013 22.6881 29.8022 22.6713 29.8611C22.6292 29.9704 22.9404 30.2648 23.0834 30.2648C23.3862 30.2648 23.5376 31.476 23.2601 31.6779C23.0246 31.8545 23.0834 32.048 23.4619 32.3676C23.8068 32.6704 23.8068 32.6788 23.6722 32.8723C23.5965 32.99 23.5292 33.1162 23.5292 33.1582C23.5292 33.2087 23.5881 33.1582 23.6638 33.0489C23.7647 32.9143 23.8236 32.8891 23.8657 32.9564C23.9834 33.1498 23.8488 33.3517 23.3526 33.7218C22.8479 34.1003 22.7554 34.2685 22.9909 34.361C23.1003 34.4031 23.0834 34.4451 22.8816 34.6133L22.6461 34.8152L22.9236 34.6638C23.2012 34.5124 23.2096 34.5124 23.3274 34.6722C23.4788 34.8825 23.4788 35.118 23.3358 35.2021C22.9993 35.3956 22.8563 36.0853 23.1171 36.2367C23.1675 36.2787 23.1928 36.3628 23.1675 36.4301C23.1423 36.5058 23.1591 36.5815 23.218 36.6068C23.2769 36.6236 23.2264 36.6488 23.1171 36.6488C22.8479 36.6572 22.9404 36.7413 23.2432 36.775C23.5629 36.8086 23.5881 36.9937 23.3526 37.4815C23.2517 37.7002 23.1339 37.9441 23.1003 38.0198C23.0582 38.0955 23.0582 38.1796 23.1003 38.2049C23.1675 38.2469 23.403 37.8432 23.3778 37.7254C23.3442 37.6161 23.6133 37.1619 23.7058 37.1619C23.7647 37.1619 23.7731 37.2208 23.7395 37.3049C23.6386 37.5488 23.647 37.7759 23.7647 37.8095C23.8152 37.8348 23.8657 37.7927 23.8657 37.717C23.8657 37.6413 23.8236 37.5824 23.7815 37.5824C23.7311 37.5824 23.7479 37.4731 23.8236 37.3301C23.8909 37.1955 23.9498 37.0525 23.9414 37.0189C23.8993 36.7918 23.9582 36.7329 24.0843 36.8675C24.16 36.9348 24.2021 37.0441 24.1769 37.103C24.1516 37.1619 24.1853 37.2796 24.2442 37.3638C24.3535 37.5067 24.3619 37.5067 24.446 37.3385C24.5722 37.1114 24.5638 37.0525 24.4124 37.1114C24.3451 37.1367 24.2862 37.1198 24.2862 37.0778C24.2862 36.96 24.5049 36.9768 24.6058 37.103C24.774 37.3049 24.7236 38.1712 24.4965 38.8946C24.3956 39.2226 24.6815 39.088 24.8161 38.7432C24.9591 38.3815 25.0264 38.3563 25.3039 38.5834C25.4806 38.7263 25.489 38.76 25.3965 38.9703C25.3039 39.1637 25.3124 39.2226 25.4301 39.3572C25.531 39.4665 25.5563 39.5927 25.5142 39.8114C25.489 39.9712 25.4385 40.2319 25.4133 40.3749C25.2955 41.0562 25.775 41.4095 26.7338 41.3506C27.3478 41.3169 27.6843 41.1487 27.8693 40.787C27.9618 40.6104 27.9787 40.6188 28.231 41.0226C28.7861 41.8805 29.1983 42.1328 30.073 42.1328C30.9057 42.1328 31.2674 41.9478 32.3356 40.9384C32.8318 40.4674 33.3113 40.0132 33.3954 39.9207C33.5299 39.7861 33.6729 39.7693 34.4972 39.7777C35.372 39.7945 35.4813 39.7777 35.9019 39.5674C36.5243 39.2646 37.1551 38.7432 38.4168 37.4983C39.0055 36.918 39.6364 36.304 39.8214 36.1357C40.1494 35.8414 40.1747 35.8329 40.3092 35.9759C40.427 36.1189 40.427 36.1357 40.3092 36.1778C40.242 36.2114 40.1831 36.2787 40.1831 36.3292C40.1831 36.3965 40.2251 36.3965 40.3177 36.3124C40.4943 36.1694 40.5532 36.2703 40.7382 37.0105C40.8476 37.4731 40.856 37.6329 40.7719 37.8264C40.6962 38.0282 40.6962 38.1123 40.8055 38.3226C40.8812 38.4656 40.9905 38.6086 41.041 38.6422C41.1167 38.6843 41.1167 38.6675 41.0326 38.5665C40.9653 38.4824 40.9569 38.4235 41.0074 38.4235C41.0578 38.4235 41.1756 38.5497 41.2681 38.7011C41.4279 38.9534 41.798 39.4665 42.0335 39.7441C42.1513 39.8871 42.4709 39.8787 42.6728 39.7357C42.8242 39.6179 42.8157 39.5927 42.37 39.1805C41.9915 38.8357 41.9242 38.7348 41.9999 38.617C42.1176 38.4235 42.3279 38.3563 42.2606 38.5329C42.227 38.6254 42.2438 38.6506 42.3195 38.6254C42.3784 38.6002 42.5718 38.6675 42.74 38.76C43.1522 39.0039 43.1269 38.9282 42.698 38.6254C42.412 38.432 42.3615 38.3563 42.3868 38.1628C42.4204 37.9441 42.412 37.9357 42.2522 38.0535C42.0167 38.2217 41.9746 38.2049 41.8232 37.9189C41.7055 37.6834 41.7139 37.6329 41.8905 37.6581C41.983 37.675 41.9662 37.5488 41.8569 37.4394C41.798 37.3806 41.7896 37.2796 41.8232 37.1871C41.8653 37.103 41.8905 36.9768 41.8821 36.9096C41.8737 36.8254 41.8821 36.817 41.9158 36.8843C41.941 36.9432 42.0335 36.9937 42.126 36.9937C42.3111 36.9937 42.4961 37.2628 42.5718 37.6329C42.6391 37.9525 42.984 38.1628 43.5643 38.2301C43.8167 38.2637 44.0522 38.3394 44.111 38.4151C44.1783 38.5077 44.212 38.5161 44.2204 38.4404C44.2288 38.1544 44.3634 38.4067 44.4979 38.9534C44.868 40.459 45.6755 40.9048 48.796 41.3085C49.553 41.4095 50.7558 40.9889 51.6726 40.2992C51.9081 40.1226 52.1856 39.9207 52.295 39.8534C52.3959 39.7861 52.623 39.6263 52.7912 39.5086C52.9595 39.3908 53.1529 39.2731 53.2202 39.2478C53.2959 39.2226 53.5987 39.0123 53.8931 38.7852C54.5407 38.289 56.0379 37.3133 56.5257 37.0694C56.8958 36.8759 57.022 36.7497 56.9547 36.6404C56.8706 36.5058 56.6519 36.5731 56.4837 36.7834C56.0547 37.3217 53.8931 38.5329 52.7996 38.8357C52.1772 39.0123 51.6053 39.2983 51.1595 39.6684C50.9408 39.845 50.8567 39.8702 50.4866 39.8198C49.0483 39.6347 49.082 39.6431 48.8717 39.3824C48.4764 38.903 48.0895 38.289 47.6605 37.4563C47.139 36.4301 47.1306 36.4217 46.7773 36.3544C46.3904 36.2787 45.9699 36.3712 45.7512 36.5731C45.6503 36.6656 45.5325 36.7413 45.4905 36.7413C45.44 36.7413 45.2297 36.9096 45.0278 37.1198C44.8176 37.3301 44.6073 37.4983 44.5568 37.4983C44.5064 37.4983 44.4307 37.5908 44.3886 37.7086C44.3129 37.9021 44.1363 38.003 44.1363 37.8516C44.1363 37.8179 43.9765 37.7927 43.7746 37.7927C43.2699 37.7843 42.9251 37.5908 42.8914 37.3049C42.8746 37.1787 42.8998 37.0778 42.9503 37.0778C43.0008 37.0778 43.0344 37.0273 43.0176 36.9684C43.0092 36.9096 43.0681 36.8759 43.1606 36.8927C43.312 36.918 43.312 36.9096 43.2111 36.7834C43.0849 36.632 43.0849 36.1694 43.2195 36.0348C43.2615 35.9843 43.3709 35.9928 43.497 36.0684C43.741 36.1946 44.0101 36.1189 43.9428 35.9423C43.8671 35.7657 44.1279 35.2946 44.2708 35.3451C44.3381 35.3703 44.3886 35.3535 44.3886 35.3115C44.3886 35.261 44.3465 35.2273 44.2961 35.2273C44.111 35.2273 44.3129 35.0759 44.5568 35.0423C44.8512 35.0002 44.8849 35.0844 44.6241 35.2021C44.4559 35.2778 44.4559 35.2862 44.6998 35.2862C44.8596 35.2862 44.9858 35.2358 45.0194 35.1601C45.0447 35.0759 45.1288 35.0591 45.2802 35.0928C45.44 35.1348 45.4905 35.118 45.4652 35.0423C45.44 34.9666 45.2549 34.933 44.868 34.9414C44.3297 34.9498 44.3045 34.9414 44.3045 34.7563C44.3045 34.6217 44.355 34.5545 44.4559 34.5545C44.5736 34.5545 44.5736 34.5376 44.4811 34.4788C44.4054 34.4283 44.3886 34.3442 44.4222 34.2517C44.4811 34.1003 44.4979 34.1087 44.6325 34.2937C44.7166 34.4031 44.8344 34.4704 44.9017 34.4451C44.9858 34.4115 44.969 34.3947 44.8596 34.3947C44.7587 34.3862 44.725 34.3442 44.7587 34.2601C44.7839 34.1928 44.7671 34.1339 44.7166 34.1339C44.6662 34.1339 44.6493 34.1003 44.6746 34.0582C44.6998 34.0162 44.6493 33.9657 44.5652 33.9405C44.4559 33.9152 44.4138 33.8395 44.4307 33.6713C44.4475 33.5451 44.4054 33.1751 44.3381 32.8554C44.2708 32.5274 44.2372 32.1994 44.2624 32.1068C44.2877 32.0227 44.5821 31.7284 44.9185 31.4424C45.2549 31.1648 45.583 30.8872 45.6503 30.82C45.7175 30.7611 45.9278 30.6854 46.1213 30.6601C46.3063 30.6265 46.5839 30.5424 46.7353 30.4667C46.9624 30.3489 46.996 30.2985 46.9624 30.105C46.9203 29.9116 46.9708 29.8443 47.4334 29.5331C48.3923 28.8938 48.6362 28.7088 48.8633 28.4565C49.0736 28.2294 49.082 28.1957 48.9558 28.0948C48.7539 27.9434 48.6025 27.9686 48.1567 28.2041C47.5175 28.5406 47.3241 28.4817 47.3072 27.9434C47.2988 27.7836 47.2652 27.6574 47.2231 27.6574C47.1811 27.6574 47.1727 27.5985 47.1979 27.5312C47.2652 27.3462 46.7521 26.8499 46.5334 26.8836C46.4409 26.9004 46.34 26.9425 46.2979 26.9761C46.1886 27.0855 45.7344 26.9761 45.7344 26.8415C45.7344 26.7742 45.6755 26.5808 45.5914 26.421C45.4652 26.1518 45.4316 26.1266 45.1708 26.1687C44.9185 26.2107 44.8764 26.1939 44.8007 26.0004C44.6998 25.7229 44.5736 25.1677 44.5148 24.7135C44.4895 24.5117 44.4138 24.2509 44.3381 24.1416C44.1951 23.9229 44.2372 23.7042 44.4222 23.7042C44.54 23.7042 44.725 23.3005 44.725 23.0229C44.725 22.8379 44.9942 22.6781 45.1792 22.7454C45.2802 22.779 45.3054 22.7622 45.2634 22.6697C45.2381 22.6024 45.2549 22.5183 45.3054 22.4846C45.3559 22.4594 45.3979 22.3416 45.3979 22.2239C45.3979 22.1145 45.4484 22.0136 45.5073 22.0136C45.8017 21.9715 45.9531 21.9884 46.0456 22.0472C46.1549 22.1229 46.2727 21.9799 46.2054 21.8622C46.1213 21.736 46.3484 21.6183 46.8446 21.5258C47.5343 21.3996 47.9297 21.1725 48.4427 20.5921C48.939 20.0286 49.0399 19.7763 48.9642 19.3137C48.9053 18.9267 49.0988 18.6155 49.4605 18.4978C49.6119 18.4557 50.1165 18.4053 50.5875 18.38C51.7399 18.3211 51.866 18.2454 52.3455 17.2698C52.951 16.0249 52.9174 15.0408 52.2361 14.2838C51.6053 13.5857 51.0417 13.4007 50.4025 13.6867C50.1165 13.8128 49.9651 13.8381 49.8137 13.7792C49.696 13.7371 49.553 13.7203 49.4857 13.7455C49.41 13.7708 49.3091 13.7035 49.225 13.5773C49.1408 13.4596 49.0399 13.3839 48.9642 13.4175C48.8969 13.4427 48.8465 13.4175 48.8465 13.367C48.8465 13.3166 48.8044 13.2745 48.7455 13.2745C48.5016 13.2745 48.0222 12.9801 47.8371 12.711C47.5512 12.2988 47.2652 12.1643 46.811 12.2568C46.3988 12.3325 46.096 12.2568 46.0203 12.0549C45.9867 11.9876 45.9194 11.9288 45.8689 11.9288C45.6503 11.9288 45.3138 11.7101 45.3138 11.5671C45.3138 11.4914 45.2802 11.4241 45.2297 11.4241C45.1877 11.4241 45.1456 11.3904 45.1456 11.3484C45.1456 11.2306 45.8942 10.4316 46.0624 10.3727C46.1465 10.3475 46.2643 10.2297 46.3316 10.112C46.4409 9.90169 46.4325 9.87646 46.1297 9.61572C45.7091 9.24563 45.3138 9.069 44.9521 9.069C44.7839 9.069 44.6241 9.02694 44.5905 8.96806C44.5568 8.9176 44.54 8.25313 44.5484 7.50454C44.5652 6.16719 44.5652 6.13354 44.355 5.7971C44.2372 5.61206 44.0606 5.41861 43.9681 5.36814C43.8671 5.31767 43.8082 5.20833 43.8251 5.09898C43.8335 4.98964 43.7746 4.8803 43.6737 4.82983C43.5727 4.77095 43.5139 4.67002 43.5307 4.58591C43.5475 4.49339 43.5223 4.44292 43.4466 4.45974C43.3877 4.46815 43.2195 4.40087 43.0681 4.29152C42.6812 4.02237 41.8569 3.95508 41.2597 4.14854C40.1831 4.49339 39.1065 5.25039 38.8794 5.81392C38.7111 6.23447 38.585 7.27745 38.6691 7.51295C38.7616 7.7737 38.77 9.01012 38.6775 9.24563C38.6354 9.36338 38.4672 9.6073 38.299 9.77552C38.1392 9.95216 37.9794 10.1708 37.9542 10.255C37.9205 10.3391 37.8448 10.4736 37.7775 10.5409C37.7018 10.6082 37.685 10.6671 37.7355 10.6671C37.8953 10.6671 37.6429 10.9951 37.3486 11.1802C37.0205 11.3904 36.9196 11.34 36.9701 11.0119C36.9869 10.8774 36.9701 10.7007 36.9196 10.6166C36.7766 10.3559 36.5411 10.8437 36.5327 11.4241C36.5243 11.811 36.499 11.9203 36.3981 11.9119C35.9607 11.8783 35.7421 11.9372 35.7 12.097C35.6495 12.2988 35.5318 12.3157 35.3551 12.139C35.2037 11.9876 35.2626 11.7942 35.4813 11.668C35.6748 11.5671 35.6916 11.4241 35.5065 11.4241C35.3888 11.4241 35.3804 11.3736 35.4393 11.1465C35.5234 10.8017 35.5402 8.73256 35.4477 8.67368C35.414 8.65686 35.271 8.42135 35.128 8.16061C34.9935 7.89986 34.758 7.48772 34.615 7.26062C34.3206 6.78119 34.043 6.05784 34.043 5.75505C34.043 5.51113 34.3795 4.71208 34.5561 4.52703C34.6234 4.45974 34.7832 4.24947 34.9178 4.06443C35.0523 3.87938 35.2794 3.61023 35.4224 3.46724C35.5654 3.32425 35.7421 3.13921 35.8177 3.04669C35.8934 2.96258 36.028 2.81959 36.1121 2.74389C36.1962 2.65978 36.3476 2.5252 36.4318 2.42427C36.642 2.20559 36.6841 2.214 36.9364 2.47474C37.1888 2.7523 37.4074 2.69342 37.4074 2.36539C37.4074 2.22241 37.5252 1.9869 37.6934 1.77662C37.8785 1.54111 37.9962 1.28037 38.0383 1.03645C38.1644 0.161701 37.8448 -0.17474 37.1299 0.0860023ZM25.9684 2.31493C25.96 2.39063 25.4049 2.76072 25.2871 2.76072C25.1105 2.76072 25.3208 2.40745 25.5479 2.31493C25.7329 2.24764 25.9684 2.24764 25.9684 2.31493ZM23.3189 8.81667C23.3189 8.93442 23.3526 9.05217 23.403 9.08582C23.4451 9.11946 23.4283 9.20358 23.3526 9.2961C23.2769 9.38021 23.1928 9.52319 23.176 9.61572C23.1507 9.70824 23.1003 9.85122 23.0666 9.92693C22.9909 10.1204 23.1339 10.1204 23.3274 9.93533C23.4703 9.79235 23.4703 9.80076 23.4199 10.0783C23.3862 10.2381 23.2853 10.5157 23.2012 10.6839C23.1171 10.8605 23.075 11.0035 23.1087 11.0035C23.1928 11.0035 23.6974 10.011 23.6974 9.85122C23.6974 9.78394 23.7395 9.65777 23.79 9.55684C23.8825 9.38862 23.8825 9.38862 24.0591 9.55684C24.16 9.64095 24.303 9.74188 24.3787 9.76711C24.5217 9.81758 24.6563 10.2886 24.5638 10.44C24.5301 10.4905 24.5554 10.4989 24.6227 10.4568C24.7068 10.4064 24.7236 10.4484 24.6899 10.6166C24.6395 10.8521 24.8161 11.0204 25.018 10.9447C25.0768 10.9194 25.1525 10.9783 25.1862 11.0624C25.2198 11.1465 25.3124 11.3147 25.4049 11.4409C25.6404 11.7521 25.5395 12.0129 25.0516 12.425C24.2694 13.0811 23.4451 13.4259 23.4451 13.0979C23.4451 12.9297 23.8741 11.8951 24.0002 11.7521C24.1348 11.6091 24.16 11.34 24.0423 11.34C23.8993 11.34 23.7395 11.6175 23.5124 12.2904C23.3778 12.6689 23.2348 13.0138 23.1928 13.0558C23.1423 13.1063 22.9489 13.0558 22.6713 12.9213C22.4274 12.8035 22.1582 12.6773 22.0657 12.6521C21.9311 12.61 21.9227 12.5764 22.0236 12.4418C22.461 11.8446 22.5031 11.7605 22.1834 12.1138C21.7797 12.5764 21.5947 12.568 21.5947 12.1054C21.5947 11.8278 21.8638 10.9867 22.0152 10.7933C22.0741 10.7092 22.2339 10.2213 22.4274 9.50637C22.6124 8.82508 23.3189 8.27836 23.3189 8.81667ZM36.2131 12.1054C36.129 12.1474 36.0617 12.282 36.0617 12.3914C36.0617 12.5007 36.0196 12.6185 35.9607 12.6521C35.9019 12.6857 35.8934 12.6773 35.9271 12.61C35.9607 12.5596 35.9439 12.4502 35.885 12.3829C35.8009 12.282 35.8177 12.24 35.9439 12.139C36.028 12.0717 36.1626 12.0213 36.2299 12.0213C36.3308 12.0213 36.3224 12.0381 36.2131 12.1054ZM34.2954 13.5605C34.2954 13.5857 34.2617 13.6278 34.2112 13.653C34.1692 13.6782 34.1271 13.6614 34.1271 13.6194C34.1271 13.5689 34.1692 13.5269 34.2112 13.5269C34.2617 13.5269 34.2954 13.5437 34.2954 13.5605ZM24.2021 13.7371C24.2778 13.8296 24.2694 13.8969 24.1685 14.0483C24.0843 14.1661 24.0339 14.41 24.0339 14.6792C24.0339 15.1334 23.9666 15.2175 23.7647 15.0072C23.6722 14.9147 23.6217 14.9147 23.504 14.9988C23.3442 15.1081 23.3105 15.2932 23.4451 15.2932C23.4956 15.2932 23.5292 15.4109 23.5292 15.5455V15.7978L22.8563 15.7558C22.0741 15.7137 21.847 15.6044 21.847 15.2679C21.847 15.0829 21.9059 15.0072 22.133 14.9147C22.5031 14.7549 22.9152 14.4016 23.0666 14.1156C23.1423 13.9642 23.3189 13.8296 23.546 13.754C24.0086 13.5857 24.0759 13.5857 24.2021 13.7371ZM27.9114 14.3091C27.8273 14.3848 27.8188 14.3764 27.8693 14.2586C27.8945 14.1745 27.945 14.1324 27.9702 14.1577C27.9955 14.1829 27.9702 14.2502 27.9114 14.3091ZM32.8655 14.2838C32.8655 14.3259 32.8318 14.368 32.7814 14.368C32.7393 14.368 32.6973 14.3259 32.6973 14.2838C32.6973 14.2334 32.7393 14.1997 32.7814 14.1997C32.8318 14.1997 32.8655 14.2334 32.8655 14.2838ZM31.3935 14.4605C31.3599 14.5025 31.2674 14.5362 31.1749 14.5362C30.9562 14.5362 31.0319 14.41 31.259 14.3932C31.3599 14.3848 31.4188 14.41 31.3935 14.4605ZM30.7964 14.7633C30.5945 14.9147 30.5356 14.9063 30.4263 14.7044C30.3422 14.553 30.3506 14.5446 30.5524 14.6203C30.6786 14.6708 30.7543 14.6708 30.7291 14.6287C30.6954 14.5866 30.7291 14.5362 30.7795 14.5109C30.9562 14.4521 30.9646 14.6371 30.7964 14.7633ZM28.6936 14.7465C28.66 14.8137 28.5506 14.8726 28.4413 14.8726C28.088 14.8726 28.231 14.6455 28.5927 14.6287C28.6936 14.6203 28.7188 14.6623 28.6936 14.7465ZM30.216 14.8726C30.2412 14.9147 30.2244 14.9567 30.1824 14.9567C30.1319 14.9567 30.0898 14.9147 30.0898 14.8726C30.0898 14.8222 30.1067 14.7885 30.1235 14.7885C30.1487 14.7885 30.1908 14.8222 30.216 14.8726ZM21.4265 20.2557C21.4265 20.2977 21.3423 20.3819 21.2414 20.4323C21.0732 20.5248 21.0648 20.5164 21.1489 20.4071C21.2078 20.3398 21.233 20.2557 21.1994 20.2305C21.1741 20.1968 21.2078 20.1716 21.2835 20.1716C21.3676 20.1716 21.4265 20.2052 21.4265 20.2557ZM18.5667 20.3819C18.6088 20.3566 18.6508 20.3482 18.6508 20.365C18.6508 20.4576 18.3985 20.8781 18.3144 20.9286C18.2639 20.9622 18.205 21.0884 18.1798 21.223C18.1209 21.5342 18.0789 21.6015 17.9359 21.6015C17.7424 21.6015 17.6247 21.2734 17.6751 20.8949C17.7256 20.6174 17.7845 20.5248 18.0032 20.4239C18.163 20.3398 18.3144 20.323 18.3732 20.365C18.4321 20.4071 18.5162 20.4155 18.5667 20.3819ZM19.1891 20.8613C19.2648 20.9622 19.3237 21.2145 19.3237 21.408C19.3237 21.6351 19.3657 21.7697 19.433 21.7781C19.4835 21.7781 19.4246 21.8201 19.2816 21.8622C18.9957 21.9547 18.3985 21.879 18.3985 21.7613C18.3985 21.7108 18.4405 21.7024 18.4826 21.7276C18.5331 21.7529 18.5667 21.736 18.5667 21.694C18.5667 21.6435 18.5331 21.6015 18.4826 21.6015C18.3817 21.6015 18.4574 21.3912 18.7097 20.9874C18.9368 20.6258 19.0125 20.6089 19.1891 20.8613ZM16.9181 22.0977C16.9434 22.1313 17.0864 22.1902 17.2378 22.2239L17.5153 22.2827L17.1536 22.6108C16.9518 22.7958 16.7583 22.9472 16.7163 22.9472C16.6658 22.9472 16.6322 22.9809 16.6322 23.0313C16.6322 23.0734 16.5901 23.1154 16.5396 23.1154C16.4639 23.1154 16.4723 23.0818 16.5396 22.9977C16.5901 22.9388 16.6069 22.779 16.5817 22.636C16.506 22.2659 16.7667 21.8454 16.9181 22.0977ZM44.0942 22.5435C43.9344 22.636 43.8419 22.5855 43.9176 22.451C43.9512 22.4005 44.0353 22.3921 44.1026 22.4173C44.2288 22.4594 44.2204 22.4762 44.0942 22.5435ZM9.94538 22.5183C9.97061 22.5603 9.95379 22.6192 9.90333 22.6528C9.78557 22.7285 9.46595 22.6192 9.52483 22.5183C9.59212 22.4173 9.87809 22.4173 9.94538 22.5183ZM9.06222 22.8968C9.06222 22.9556 8.93605 23.0902 8.79307 23.1996C8.64167 23.3089 8.49027 23.4435 8.45663 23.5023C8.41457 23.5612 8.06972 23.6285 7.57347 23.6622C7.11927 23.6958 6.6819 23.7631 6.59778 23.8051C6.38751 23.9145 6.32022 23.8304 6.46321 23.6537C6.66507 23.4098 7.38842 23.1323 7.69963 23.1827C7.91832 23.208 8.02766 23.1743 8.20429 23.0061C8.52391 22.7117 9.06222 22.6444 9.06222 22.8968ZM10.6603 22.9472C10.6603 23.0313 10.6014 23.1154 10.5342 23.1491C10.3828 23.208 10.1136 22.8547 10.2482 22.7706C10.3996 22.6781 10.6603 22.7874 10.6603 22.9472ZM43.7998 22.779C43.7998 22.8211 43.7578 22.8631 43.7073 22.8631C43.64 22.8631 43.64 22.9052 43.7157 22.9893C43.7998 23.0902 43.7998 23.1154 43.6905 23.1154C43.5559 23.1154 43.4382 23.3341 43.5139 23.4603C43.5391 23.5023 43.5139 23.536 43.4718 23.536C43.3456 23.536 43.354 23.7631 43.4886 23.8136C43.5391 23.8388 43.5054 23.864 43.3961 23.864C43.2783 23.8724 43.2195 23.8388 43.2531 23.7883C43.2868 23.7379 43.2615 23.6369 43.1942 23.5612C43.1101 23.4603 43.1101 23.4182 43.1858 23.393C43.2447 23.3762 43.2699 23.3089 43.2447 23.2416C43.2195 23.1827 43.2783 23.0902 43.3709 23.0313C43.4718 22.9809 43.5475 22.8883 43.5475 22.8211C43.5475 22.7538 43.6064 22.6949 43.6737 22.6949C43.741 22.6949 43.7998 22.7285 43.7998 22.779ZM10.1557 23.1575C10.2314 23.25 10.2398 23.3173 10.1809 23.3762C9.95379 23.6033 8.65008 23.7631 8.58279 23.5696C8.56597 23.5192 8.73419 23.3846 8.95288 23.2584C9.41548 23.0061 9.98744 22.9556 10.1557 23.1575ZM12.435 23.3678C12.5864 23.3678 12.679 23.4098 12.679 23.4855C12.679 23.6537 12.4603 23.7126 12.3425 23.578C12.2921 23.5108 12.1911 23.4855 12.1238 23.5108C12.0566 23.536 12.0061 23.5023 12.0061 23.4351C12.0061 23.2753 12.1238 23.1659 12.1575 23.2753C12.1743 23.3257 12.3005 23.3678 12.435 23.3678ZM6.26134 23.7042C6.152 23.9902 6.03425 24.0407 6.03425 23.7883C6.03425 23.6622 6.20247 23.4771 6.34545 23.4519C6.35386 23.4519 6.31181 23.5612 6.26134 23.7042ZM43.8839 23.6201C43.8839 23.6622 43.8503 23.7042 43.7998 23.7042C43.7578 23.7042 43.7157 23.6622 43.7157 23.6201C43.7157 23.5696 43.7578 23.536 43.7998 23.536C43.8503 23.536 43.8839 23.5696 43.8839 23.6201ZM10.0631 23.7799C10.1557 23.8388 10.122 23.8808 9.93697 23.9818C9.80239 24.0491 9.61735 24.1836 9.53324 24.2846C9.44072 24.3855 9.33137 24.4612 9.28932 24.4612C9.23885 24.4612 9.1211 24.5285 9.02858 24.621C8.73419 24.8818 8.09495 25.2098 8.00243 25.1509C7.95196 25.1173 7.8258 24.9238 7.72486 24.722C7.55664 24.4023 7.54823 24.3266 7.64075 24.1079L7.74169 23.8472L8.42298 23.8977C8.87718 23.9229 9.20521 23.9061 9.39866 23.8304C9.76875 23.6958 9.91174 23.6874 10.0631 23.7799ZM17.6667 24.8986C17.6583 25.1593 17.6163 25.5799 17.5658 25.8238C17.5237 26.0677 17.4564 26.4883 17.4228 26.7574C17.3976 27.0182 17.3387 27.2621 17.2966 27.2873C17.2546 27.3126 17.2209 27.464 17.2209 27.6238C17.2209 27.834 17.1452 27.9938 16.9097 28.2546C16.7331 28.448 16.548 28.7593 16.4892 28.9527C16.4387 29.1377 16.3294 29.4994 16.2621 29.7518C16.0854 30.3574 15.8583 30.7274 15.6565 30.7274C15.4462 30.7274 15.3705 30.8368 15.3705 31.148C15.3705 31.2826 15.2359 31.8125 15.0677 32.3087C14.849 32.9732 14.7144 33.2507 14.563 33.3517C14.2939 33.5199 14.1425 33.3937 14.1593 33.0237C14.1761 32.8723 14.2014 32.233 14.235 31.6106C14.3023 30.0125 14.4369 29.5247 15.2191 27.9097C16.1275 26.0341 16.1948 25.9079 16.5649 25.4453C16.7415 25.2182 16.8845 24.9911 16.8845 24.9322C16.8845 24.7304 17.2966 24.3687 17.4985 24.3939C17.6667 24.4192 17.6835 24.4612 17.6667 24.8986ZM16.8004 24.621C16.8004 24.6715 16.7667 24.7304 16.7163 24.7556C16.6742 24.7808 16.6322 24.7472 16.6322 24.6799C16.6322 24.6042 16.6742 24.5453 16.7163 24.5453C16.7667 24.5453 16.8004 24.579 16.8004 24.621ZM12.393 24.9406C12.3089 25.0247 12.2332 24.8986 12.3089 24.7892C12.3593 24.6967 12.3762 24.6967 12.4098 24.7892C12.4266 24.8481 12.4182 24.9154 12.393 24.9406ZM20.5012 25.1257C20.5012 25.1761 20.4676 25.235 20.4171 25.2603C20.3751 25.2855 20.333 25.2518 20.333 25.1846C20.333 25.1089 20.3751 25.05 20.4171 25.05C20.4676 25.05 20.5012 25.0836 20.5012 25.1257ZM17.5658 27.5481C17.4901 27.6742 17.4817 27.649 17.4817 27.4051C17.4817 27.1612 17.4901 27.1359 17.5658 27.2537C17.6247 27.3546 17.6247 27.4555 17.5658 27.5481ZM20.905 29.1882C21.048 29.3312 21.0311 29.5078 20.8797 29.5078C20.7788 29.5078 20.5854 29.2723 20.5854 29.1377C20.5854 29.0452 20.804 29.0873 20.905 29.1882ZM44.683 31.0639C44.397 31.2994 44.3045 31.3246 44.3045 31.1648C44.3045 30.9882 44.4895 30.8536 44.725 30.8536L44.9353 30.862L44.683 31.0639ZM44.2204 32.7124C44.2204 32.7629 44.1867 32.7713 44.1363 32.7461C44.0942 32.7209 44.0522 32.6536 44.0522 32.6115C44.0522 32.561 44.0942 32.5526 44.1363 32.5779C44.1867 32.6031 44.2204 32.6704 44.2204 32.7124ZM43.9008 34.4031L44.2372 34.3947L44.1783 34.7059C44.1026 35.1012 44.0774 35.1432 43.8839 35.1432C43.7914 35.1432 43.5896 35.2526 43.4382 35.3956C43.1269 35.6647 42.841 35.7152 42.6055 35.5301C42.3952 35.3703 42.412 35.2862 42.7485 34.9666C42.9083 34.8068 43.0428 34.6302 43.0428 34.5713C43.0428 34.4535 43.3793 34.2937 43.4886 34.361C43.5307 34.3862 43.7157 34.4031 43.9008 34.4031ZM42.7064 34.6049C42.7064 34.6554 42.6055 34.7731 42.1933 35.2273C42.1092 35.3199 41.9662 35.3619 41.8148 35.3451C41.6887 35.3367 41.4784 35.3787 41.3522 35.446C41.0326 35.6058 40.9737 35.5974 41.1504 35.3956C41.2261 35.3115 41.3186 35.2442 41.3522 35.2442C41.4868 35.2862 41.8569 35.0928 42.1429 34.8404C42.4204 34.5881 42.7064 34.4704 42.7064 34.6049ZM43.9681 35.4713C43.9681 35.5974 43.7578 35.7236 43.5643 35.7068C43.3456 35.69 43.3456 35.6984 43.5139 35.5301C43.6484 35.3872 43.9681 35.3451 43.9681 35.4713ZM41.8148 35.6058C41.6382 35.7404 41.4447 35.7741 41.4447 35.6647C41.4447 35.5386 41.5541 35.4797 41.7728 35.4797C41.9746 35.4797 41.9746 35.4881 41.8148 35.6058ZM42.4961 35.589C42.6643 35.7236 42.6055 35.7825 42.2017 35.9002C41.9158 35.9843 41.8821 35.9002 42.0924 35.6479C42.269 35.446 42.2943 35.446 42.4961 35.589ZM43.0428 36.1273C43.0428 36.4554 42.9167 36.5226 42.6307 36.3544L42.3615 36.1946L42.597 36.0937C42.9251 35.9507 43.0428 35.9591 43.0428 36.1273ZM23.6974 36.4974C23.6974 36.5731 23.4367 36.674 23.3862 36.6236C23.361 36.5983 23.361 36.5479 23.3946 36.5058C23.4451 36.4217 23.6974 36.4049 23.6974 36.4974ZM42.6055 36.5311C42.7316 36.5647 42.7905 36.6404 42.7737 36.7245C42.7148 36.9937 42.1176 36.7582 42.1176 36.4638C42.1176 36.4301 42.1849 36.4133 42.269 36.4385C42.3447 36.4554 42.4961 36.4974 42.6055 36.5311ZM30.3253 38.6254C30.4515 38.6927 30.6113 38.8441 30.6786 38.9618C30.7375 39.0796 30.8216 39.1805 30.8636 39.1805C31.0066 39.1805 30.9225 39.6011 30.7459 39.7945C30.4767 40.0721 30.2665 40.1394 30.1992 39.9544C30.1655 39.8787 30.0141 39.6347 29.8627 39.4245C29.5515 38.9871 29.5263 38.8357 29.7197 38.6422C29.8796 38.474 30.031 38.474 30.3253 38.6254ZM27.2721 38.76C27.7347 38.903 27.8777 39.0544 27.945 39.4413C28.0207 39.8618 27.9282 40.2992 27.7936 40.1899C27.2805 39.7693 27.1123 39.6684 26.8095 39.559C26.6077 39.4917 26.3806 39.4329 26.2964 39.4329C25.918 39.4329 25.7077 38.802 26.0778 38.7263C26.6665 38.6002 26.7843 38.6002 27.2721 38.76ZM42.1681 39.3235C42.1092 39.3824 41.9494 39.2646 41.9494 39.1637C41.9494 39.1132 41.9999 39.1132 42.0756 39.1805C42.1513 39.2394 42.1849 39.3067 42.1681 39.3235ZM28.6515 39.5674C28.9459 39.7188 29.1898 40.1142 29.0216 40.1646C28.9712 40.1815 28.9459 40.274 28.9712 40.3581C28.9964 40.459 28.9712 40.5263 28.9123 40.5263C28.8618 40.5263 28.7945 40.4506 28.7693 40.3581C28.7441 40.274 28.6515 40.173 28.5674 40.1478C28.3572 40.0805 28.2142 39.803 28.2815 39.6011C28.3487 39.3992 28.3235 39.3992 28.6515 39.5674ZM29.8039 39.7188C29.8711 39.7861 29.9216 39.9375 29.9216 40.0469C29.9216 40.2151 29.888 40.2487 29.7618 40.2151C29.6356 40.1815 29.602 40.1058 29.6104 39.8871C29.6272 39.559 29.6356 39.559 29.8039 39.7188Z" fill="currentColor" />
  <path d="M24.2861 11.4745C24.2861 11.5418 24.3282 11.5754 24.3702 11.5502C24.4207 11.5166 24.4375 11.4577 24.4123 11.4156C24.3366 11.2979 24.2861 11.3231 24.2861 11.4745Z" fill="currentColor" />
  <path d="M16.9686 25.2181C16.8676 25.2854 16.876 25.3022 17.0358 25.3022C17.1368 25.3022 17.2209 25.2602 17.2209 25.2181C17.2209 25.1088 17.1284 25.1088 16.9686 25.2181Z" fill="currentColor" />
  <path d="M16.0856 27.3212C16.1108 27.3632 16.1529 27.4053 16.1781 27.4053C16.1949 27.4053 16.2118 27.3632 16.2118 27.3212C16.2118 27.2707 16.1697 27.2371 16.1192 27.2371C16.0772 27.2371 16.0604 27.2707 16.0856 27.3212Z" fill="currentColor" />
  <path d="M15.6652 30.349C15.6904 30.3911 15.7325 30.4331 15.7577 30.4331C15.7745 30.4331 15.7913 30.3911 15.7913 30.349C15.7913 30.2985 15.7493 30.2649 15.6988 30.2649C15.6568 30.2649 15.6399 30.2985 15.6652 30.349Z" fill="currentColor" />
  <path d="M43.9851 0.153462C43.4805 0.271217 43.3207 0.708591 43.6403 1.11232C43.8674 1.3983 44.2375 1.40671 44.515 1.12073C44.7842 0.85999 44.7758 0.666536 44.4982 0.346916C44.2879 0.119818 44.2291 0.0945849 43.9851 0.153462Z" fill="currentColor" />
  <path d="M20.1562 0.969348C20.0048 1.00299 19.8281 1.33943 19.8281 1.57494C19.8281 1.78522 20.0973 2.00391 20.3412 2.00391C20.6524 2.00391 20.8375 1.83569 20.8879 1.49083C20.9636 1.02823 20.6776 0.82636 20.1562 0.969348Z" fill="currentColor" />
  <path d="M45.3979 1.16259C45.3979 1.35604 45.6166 1.48221 45.7428 1.35604C45.8606 1.23829 45.7428 0.994369 45.5578 0.994369C45.4568 0.994369 45.3979 1.05325 45.3979 1.16259Z" fill="currentColor" />
  <path d="M56.0801 1.76016C56.0801 1.80222 56.1221 1.81904 56.1642 1.79381C56.2147 1.76858 56.2483 1.72652 56.2483 1.70129C56.2483 1.68446 56.2147 1.66764 56.1642 1.66764C56.1221 1.66764 56.0801 1.7097 56.0801 1.76016Z" fill="currentColor" />
  <path d="M58.0146 1.83581C58.0146 1.87787 58.0567 1.91992 58.0988 1.91992C58.1492 1.91992 58.1829 1.87787 58.1829 1.83581C58.1829 1.78535 58.1492 1.7517 58.0988 1.7517C58.0567 1.7517 58.0146 1.78535 58.0146 1.83581Z" fill="currentColor" />
  <path d="M12.2583 2.88679C12.2583 2.96249 12.3592 3.05501 12.477 3.09707C12.8303 3.23165 12.8891 3.198 12.6789 2.9709C12.4602 2.73539 12.2583 2.69334 12.2583 2.88679Z" fill="currentColor" />
  <path d="M29.7955 3.18151C29.8208 3.22357 29.8628 3.26562 29.8881 3.26562C29.9049 3.26562 29.9217 3.22357 29.9217 3.18151C29.9217 3.13105 29.8797 3.0974 29.8292 3.0974C29.7871 3.0974 29.7703 3.13105 29.7955 3.18151Z" fill="currentColor" />
  <path d="M30.0059 3.50133C30.0059 3.54338 30.0647 3.62749 30.132 3.68637C30.1993 3.74525 30.2582 3.75366 30.2582 3.70319C30.2582 3.66114 30.1993 3.57703 30.132 3.51815C30.0647 3.45927 30.0059 3.45086 30.0059 3.50133Z" fill="currentColor" />
  <path d="M35.3887 3.8963C35.3887 3.96358 35.4307 4.02246 35.4728 4.02246C35.5232 4.02246 35.5569 3.96358 35.5569 3.8963C35.5569 3.82901 35.5232 3.77013 35.4728 3.77013C35.4307 3.77013 35.3887 3.82901 35.3887 3.8963Z" fill="currentColor" />
  <path d="M47.585 3.9303C47.585 4.05647 47.6354 4.10693 47.7616 4.10693C47.8793 4.10693 47.9214 4.06488 47.9046 3.96395C47.8625 3.74526 47.585 3.72003 47.585 3.9303Z" fill="currentColor" />
  <path d="M32.1591 5.9992C32.0834 6.19265 32.0918 6.20947 32.2348 6.20947C32.3777 6.20947 32.3946 6.13377 32.2852 5.97396C32.2263 5.88144 32.2011 5.88985 32.1591 5.9992Z" fill="currentColor" />
  <path d="M50.1504 6.20935C50.1251 6.2514 50.1588 6.29346 50.2345 6.29346C50.3102 6.29346 50.3438 6.2514 50.3186 6.20935C50.2934 6.15888 50.2513 6.12524 50.2345 6.12524C50.2177 6.12524 50.1756 6.15888 50.1504 6.20935Z" fill="currentColor" />
  <path d="M49.519 6.29333C49.519 6.33539 49.5611 6.37744 49.6032 6.37744C49.6536 6.37744 49.6873 6.33539 49.6873 6.29333C49.6873 6.24286 49.6536 6.20922 49.6032 6.20922C49.5611 6.20922 49.519 6.24286 49.519 6.29333Z" fill="currentColor" />
  <path d="M19.0713 6.37732C19.0713 6.41937 19.1133 6.46143 19.1638 6.46143C19.2059 6.46143 19.2227 6.41937 19.1975 6.37732C19.1722 6.32685 19.1302 6.2932 19.1049 6.2932C19.0881 6.2932 19.0713 6.32685 19.0713 6.37732Z" fill="currentColor" />
  <path d="M36.314 7.05899C36.314 7.10105 36.356 7.11787 36.3981 7.09264C36.4485 7.0674 36.4822 7.02535 36.4822 7.00012C36.4822 6.98329 36.4485 6.96647 36.3981 6.96647C36.356 6.96647 36.314 7.00853 36.314 7.05899Z" fill="currentColor" />
  <path d="M35.9357 7.21862C35.9105 7.26068 35.9273 7.30273 35.9693 7.30273C36.0198 7.30273 36.0618 7.26068 36.0618 7.21862C36.0618 7.16816 36.045 7.13451 36.0282 7.13451C36.003 7.13451 35.9609 7.16816 35.9357 7.21862Z" fill="currentColor" />
  <path d="M61.505 7.89196C61.4798 7.93402 61.4966 7.97607 61.5387 7.97607C61.5891 7.97607 61.6312 7.93402 61.6312 7.89196C61.6312 7.8415 61.6144 7.80785 61.5975 7.80785C61.5723 7.80785 61.5303 7.8415 61.505 7.89196Z" fill="currentColor" />
  <path d="M20.0387 8.05993C20.0639 8.10199 20.106 8.14404 20.1312 8.14404C20.1481 8.14404 20.1649 8.10199 20.1649 8.05993C20.1649 8.00947 20.1228 7.97582 20.0724 7.97582C20.0303 7.97582 20.0135 8.00947 20.0387 8.05993Z" fill="currentColor" />
  <path d="M60.2349 8.74147C60.134 8.90969 60.4368 9.07791 60.6302 8.96016C60.7228 8.90128 60.7816 8.82558 60.7648 8.77512C60.7228 8.64895 60.3106 8.62372 60.2349 8.74147Z" fill="currentColor" />
  <path d="M51.462 9.62418C51.2601 9.88492 51.2433 10.0616 51.4031 10.2634C51.5629 10.4737 51.8489 10.4485 52.0844 10.2045C52.3283 9.96903 52.3535 9.72511 52.1601 9.54007C51.9666 9.3382 51.6554 9.38026 51.462 9.62418Z" fill="currentColor" />
  <path d="M16.1693 10.4905C16.1188 10.583 16.245 10.6839 16.3291 10.6082C16.4048 10.5325 16.388 10.4148 16.3038 10.4148C16.2534 10.4148 16.2029 10.4484 16.1693 10.4905Z" fill="currentColor" />
  <path d="M57.1314 10.5073C57.0473 10.6334 57.1566 10.7175 57.266 10.6082C57.3249 10.5493 57.3249 10.4988 57.2744 10.4652C57.2239 10.44 57.1566 10.4568 57.1314 10.5073Z" fill="currentColor" />
  <path d="M29.1479 12.5766C29.2068 12.6018 29.2825 12.5934 29.3077 12.5682C29.3413 12.5429 29.2909 12.5177 29.1983 12.5261C29.1058 12.5261 29.0806 12.5513 29.1479 12.5766Z" fill="currentColor" />
  <path d="M54.1032 12.6859C54.0779 12.728 54.0948 12.77 54.1368 12.77C54.1873 12.77 54.2293 12.728 54.2293 12.6859C54.2293 12.6354 54.2125 12.6018 54.1957 12.6018C54.1705 12.6018 54.1284 12.6354 54.1032 12.6859Z" fill="currentColor" />
  <path d="M64.4997 13.4682C64.3819 13.6112 64.5249 13.813 64.6931 13.7542C64.7688 13.7205 64.8277 13.6448 64.8277 13.5775C64.8277 13.4177 64.609 13.342 64.4997 13.4682Z" fill="currentColor" />
  <path d="M58.4351 14.5784C58.4351 14.6457 58.4939 14.7046 58.5612 14.7046C58.6285 14.7046 58.6874 14.6457 58.6874 14.5784C58.6874 14.5111 58.6285 14.4523 58.5612 14.4523C58.4939 14.4523 58.4351 14.5111 58.4351 14.5784Z" fill="currentColor" />
  <path d="M66.0894 15.8066C66.0894 15.8486 66.1314 15.8654 66.1735 15.8402C66.2239 15.815 66.2576 15.7729 66.2576 15.7477C66.2576 15.7309 66.2239 15.714 66.1735 15.714C66.1314 15.714 66.0894 15.7561 66.0894 15.8066Z" fill="currentColor" />
  <path d="M0.0201565 17.3124C0.0453896 17.3544 0.0874448 17.3965 0.112678 17.3965C0.1295 17.3965 0.146322 17.3544 0.146322 17.3124C0.146322 17.2619 0.104267 17.2283 0.0538007 17.2283C0.0117454 17.2283 -0.00507665 17.2619 0.0201565 17.3124Z" fill="currentColor" />
  <path d="M65.2566 18.9351C65.1893 19.0192 65.1977 19.0865 65.2734 19.1958C65.4248 19.4061 65.6855 19.3388 65.7528 19.0781C65.8033 18.8846 65.7865 18.8594 65.5846 18.8426C65.4584 18.8341 65.3154 18.8762 65.2566 18.9351Z" fill="currentColor" />
  <path d="M5.7315 19.339C5.64739 19.482 5.84085 19.6418 5.9586 19.524C6.05954 19.4231 5.99225 19.2465 5.86608 19.2465C5.82403 19.2465 5.76515 19.2885 5.7315 19.339Z" fill="currentColor" />
  <path d="M50.0239 21.265C50.0239 21.3071 50.066 21.3491 50.1164 21.3491C50.1585 21.3491 50.1753 21.3071 50.1501 21.265C50.1249 21.2145 50.0828 21.1809 50.0576 21.1809C50.0407 21.1809 50.0239 21.2145 50.0239 21.265Z" fill="currentColor" />
  <path d="M8.05322 21.349C8.05322 21.3911 8.09528 21.4331 8.13733 21.4331C8.1878 21.4331 8.22144 21.3911 8.22144 21.349C8.22144 21.2985 8.1878 21.2649 8.13733 21.2649C8.09528 21.2649 8.05322 21.2985 8.05322 21.349Z" fill="currentColor" />
  <path d="M1.26509 21.4081C0.995938 21.4586 1.00435 21.8034 1.2735 21.9801C1.53425 22.1483 1.91274 22.0726 1.91274 21.8455C1.91274 21.6857 1.62677 21.3408 1.51742 21.3576C1.47537 21.366 1.36602 21.3913 1.26509 21.4081Z" fill="currentColor" />
  <path d="M50.1084 21.7194C50.1084 21.7951 50.1505 21.854 50.1925 21.854C50.243 21.854 50.2766 21.8204 50.2766 21.7783C50.2766 21.7278 50.243 21.669 50.1925 21.6437C50.1505 21.6185 50.1084 21.6521 50.1084 21.7194Z" fill="currentColor" />
  <path d="M46.5757 22.3671C46.5757 22.4092 46.6177 22.426 46.6598 22.4007C46.7103 22.3755 46.7439 22.3335 46.7439 22.3082C46.7439 22.2914 46.7103 22.2746 46.6598 22.2746C46.6177 22.2746 46.5757 22.3166 46.5757 22.3671Z" fill="currentColor" />
  <path d="M56.0129 22.4595C55.8783 22.5941 55.8867 22.838 56.0297 22.8885C56.097 22.9137 56.2147 22.8633 56.2904 22.7792C56.4166 22.6446 56.4166 22.5941 56.3325 22.4848C56.2063 22.3334 56.1475 22.325 56.0129 22.4595Z" fill="currentColor" />
  <path d="M54.9028 23.494C54.9028 23.5612 54.9449 23.6201 54.9869 23.6201C55.0374 23.6201 55.0711 23.5612 55.0711 23.494C55.0711 23.4267 55.0374 23.3678 54.9869 23.3678C54.9449 23.3678 54.9028 23.4267 54.9028 23.494Z" fill="currentColor" />
  <path d="M46.9961 24.3773C46.9961 24.4194 47.055 24.4614 47.1307 24.4614C47.198 24.4614 47.2316 24.4194 47.2064 24.3773C47.1811 24.3268 47.1223 24.2932 47.0718 24.2932C47.0297 24.2932 46.9961 24.3268 46.9961 24.3773Z" fill="currentColor" />
  <path d="M14.6978 24.5458C14.6978 24.5878 14.7398 24.6299 14.7819 24.6299C14.8323 24.6299 14.866 24.5878 14.866 24.5458C14.866 24.4953 14.8323 24.4617 14.7819 24.4617C14.7398 24.4617 14.6978 24.4953 14.6978 24.5458Z" fill="currentColor" />
  <path d="M60.067 24.8061C60.0081 24.907 60.1931 25.1509 60.2941 25.0836C60.4118 25.0164 60.3866 24.8229 60.2436 24.7724C60.1763 24.7388 60.1006 24.7556 60.067 24.8061Z" fill="currentColor" />
  <path d="M14.6978 25.2773C14.6978 25.311 14.7398 25.4035 14.7819 25.4708C14.8492 25.5801 14.866 25.5801 14.866 25.4539C14.866 25.3782 14.8323 25.2857 14.7819 25.2605C14.7398 25.2353 14.6978 25.2353 14.6978 25.2773Z" fill="currentColor" />
  <path d="M4.55385 25.4286C4.47815 25.6136 4.57908 25.7987 4.78936 25.8828C5.11739 26.0089 5.34448 25.6557 5.09215 25.4033C4.94917 25.2604 4.61272 25.2772 4.55385 25.4286Z" fill="currentColor" />
  <path d="M14.2352 25.5549C14.1679 25.6643 14.2688 25.8241 14.3697 25.7652C14.4707 25.6979 14.4707 25.4708 14.3697 25.4708C14.3193 25.4708 14.2604 25.5044 14.2352 25.5549Z" fill="currentColor" />
  <path d="M18.4907 25.7484C18.415 25.8493 18.4318 25.8829 18.5664 25.9166C18.743 25.9586 18.7766 25.9166 18.6589 25.7399C18.6084 25.6558 18.5748 25.6558 18.4907 25.7484Z" fill="currentColor" />
  <path d="M15.2443 25.807C15.219 25.8491 15.2695 25.8911 15.362 25.8911C15.463 25.8911 15.5387 25.8491 15.5387 25.807C15.5387 25.7565 15.4882 25.7229 15.4209 25.7229C15.3536 25.7229 15.2695 25.7565 15.2443 25.807Z" fill="currentColor" />
  <path d="M17.978 26.1014C17.978 26.1687 18.0369 26.2275 18.1042 26.2275C18.1715 26.2275 18.2304 26.1687 18.2304 26.1014C18.2304 26.0341 18.1715 25.9752 18.1042 25.9752C18.0369 25.9752 17.978 26.0341 17.978 26.1014Z" fill="currentColor" />
  <path d="M11.7539 26.1858C11.7539 26.2531 11.796 26.312 11.838 26.312C11.8885 26.312 11.9221 26.2531 11.9221 26.1858C11.9221 26.1186 11.8885 26.0597 11.838 26.0597C11.796 26.0597 11.7539 26.1186 11.7539 26.1858Z" fill="currentColor" />
  <path d="M12.4014 26.1773C12.351 26.3035 12.4099 26.396 12.5276 26.396C12.6201 26.396 12.6117 26.1689 12.5192 26.11C12.4771 26.0848 12.4267 26.11 12.4014 26.1773Z" fill="currentColor" />
  <path d="M11.9722 26.6063C12.0058 26.6735 12.0815 26.7324 12.1488 26.7324C12.2582 26.7324 12.2582 26.7072 12.1741 26.6063C12.1152 26.539 12.0395 26.4801 11.9974 26.4801C11.9554 26.4801 11.947 26.539 11.9722 26.6063Z" fill="currentColor" />
  <path d="M10.5592 27.4727C9.64237 28.3811 9.48256 28.6419 10.3153 27.8765C10.5928 27.6241 10.9713 27.3214 11.1479 27.2036C11.5517 26.9513 11.6358 26.8335 11.5096 26.7073C11.4507 26.6485 11.1816 26.8587 10.5592 27.4727Z" fill="currentColor" />
  <path d="M12.8053 27.0687C12.8305 27.1108 12.8894 27.1528 12.9398 27.1528C12.9819 27.1528 13.0155 27.1108 13.0155 27.0687C13.0155 27.0183 12.9567 26.9846 12.881 26.9846C12.8137 26.9846 12.78 27.0183 12.8053 27.0687Z" fill="currentColor" />
  <path d="M13.2341 27.3887C13.0743 27.5737 13.0743 27.9186 13.2425 27.9691C13.3013 27.9943 13.3686 27.8849 13.3939 27.7083C13.478 27.2962 13.4191 27.1868 13.2341 27.3887Z" fill="currentColor" />
  <path d="M7.76707 27.548C7.7166 27.6657 7.72501 27.6742 7.80912 27.5985C7.868 27.5396 7.89323 27.4723 7.868 27.4471C7.84277 27.4218 7.7923 27.4639 7.76707 27.548Z" fill="currentColor" />
  <path d="M8.30518 27.7416C8.30518 27.7836 8.34723 27.8257 8.38929 27.8257C8.43975 27.8257 8.4734 27.7836 8.4734 27.7416C8.4734 27.6911 8.43975 27.6575 8.38929 27.6575C8.34723 27.6575 8.30518 27.6911 8.30518 27.7416Z" fill="currentColor" />
  <path d="M17.9864 27.8847C17.9864 27.9856 17.9528 28.137 17.9275 28.2211C17.8855 28.3389 17.8939 28.3473 17.9696 28.28C18.0285 28.2295 18.0621 28.0781 18.0369 27.9436C18.0116 27.7669 18.0032 27.7501 17.9864 27.8847Z" fill="currentColor" />
  <path d="M8.22119 28.0364C8.22119 28.1037 8.26325 28.1626 8.3053 28.1626C8.35577 28.1626 8.38941 28.1037 8.38941 28.0364C8.38941 27.9691 8.35577 27.9103 8.3053 27.9103C8.26325 27.9103 8.22119 27.9691 8.22119 28.0364Z" fill="currentColor" />
  <path d="M11.8634 28.1034C11.7708 28.2043 11.5017 28.566 11.2578 28.894C10.854 29.4491 10.7447 29.5501 10.5596 29.5164C10.526 29.5164 10.5176 29.5585 10.5428 29.6173C10.5596 29.6762 10.5092 29.8024 10.4083 29.8865C10.24 30.0379 10.24 30.0379 10.24 29.8276C10.24 29.5753 10.0466 29.3818 9.86994 29.4491C9.69331 29.5164 9.39893 30.1304 9.39893 30.4332C9.39893 30.7192 9.44939 30.7444 9.66808 30.5426C9.75219 30.4669 9.89518 30.3996 9.9877 30.3912C10.1727 30.3827 11.0559 29.508 11.5437 28.8603C11.855 28.4314 11.8802 28.423 12.2082 28.465C12.5783 28.5155 13.0157 28.3977 13.0157 28.2379C13.0157 28.1791 12.8811 28.1622 12.5951 28.2043C12.2503 28.2548 12.1746 28.2379 12.1746 28.137C12.1746 27.9183 12.04 27.9015 11.8634 28.1034Z" fill="currentColor" />
  <path d="M13.3521 28.9696C13.3521 29.0369 13.3941 29.0706 13.4362 29.0453C13.4866 29.0117 13.5034 28.9528 13.4782 28.9108C13.4025 28.793 13.3521 28.8182 13.3521 28.9696Z" fill="currentColor" />
  <path d="M13.2344 29.3146C13.1839 29.4323 13.1923 29.4408 13.2764 29.3651C13.3353 29.3062 13.3605 29.2389 13.3353 29.2137C13.3101 29.1884 13.2596 29.2305 13.2344 29.3146Z" fill="currentColor" />
  <path d="M17.9945 29.2554C18.0198 29.3227 18.1123 29.4152 18.2132 29.4657C18.3141 29.5077 18.3983 29.5919 18.3983 29.6423C18.3983 29.6928 18.4824 29.8021 18.5833 29.8947C18.7515 30.0461 18.7599 30.0461 18.7095 29.9031C18.6758 29.819 18.6506 29.6255 18.6506 29.4825C18.6506 29.3311 18.6169 29.2554 18.5833 29.3059C18.4992 29.432 18.1543 29.3984 18.045 29.247C17.9777 29.1461 17.9693 29.1461 17.9945 29.2554Z" fill="currentColor" />
  <path d="M48.4679 29.4237C48.4931 29.4658 48.5352 29.5078 48.5604 29.5078C48.5773 29.5078 48.5941 29.4658 48.5941 29.4237C48.5941 29.3732 48.552 29.3396 48.5016 29.3396C48.4595 29.3396 48.4427 29.3732 48.4679 29.4237Z" fill="currentColor" />
  <path d="M13.2257 29.8446C13.2005 29.8867 13.2173 29.9287 13.2594 29.9287C13.3098 29.9287 13.3519 29.8867 13.3519 29.8446C13.3519 29.7941 13.3351 29.7605 13.3182 29.7605C13.293 29.7605 13.251 29.7941 13.2257 29.8446Z" fill="currentColor" />
  <path d="M7.14419 30.6182C7.0769 30.7024 7.0769 30.7865 7.1526 30.9295C7.27035 31.1565 7.38811 31.1734 7.50586 30.9883C7.62362 30.8033 7.28718 30.45 7.14419 30.6182Z" fill="currentColor" />
  <path d="M20.5939 31.1566C20.5939 31.2492 20.6192 31.2744 20.6444 31.2071C20.6696 31.1482 20.6612 31.0725 20.636 31.0473C20.6108 31.0136 20.5855 31.0641 20.5939 31.1566Z" fill="currentColor" />
  <path d="M21.0228 32.4266C20.821 33.1163 20.8546 33.3686 21.1238 33.2677C21.2247 33.2256 21.2415 33.1667 21.1911 33.0238C21.149 32.9144 21.1322 32.6705 21.1574 32.4686C21.1995 32.0312 21.149 32.0144 21.0228 32.4266Z" fill="currentColor" />
  <path d="M18.945 33.1249C18.9702 33.1669 19.0122 33.209 19.0375 33.209C19.0543 33.209 19.0711 33.1669 19.0711 33.1249C19.0711 33.0744 19.0291 33.0408 18.9786 33.0408C18.9366 33.0408 18.9197 33.0744 18.945 33.1249Z" fill="currentColor" />
  <path d="M14.5378 34.0165C14.5378 34.109 14.563 34.1343 14.5882 34.067C14.6135 34.0081 14.6051 33.9324 14.5798 33.9072C14.5546 33.8735 14.5294 33.924 14.5378 34.0165Z" fill="currentColor" />
  <path d="M45.3984 33.9657C45.2891 34.033 45.2975 34.0498 45.4236 34.0498C45.4993 34.0498 45.5666 34.0077 45.5666 33.9657C45.5666 33.8648 45.5582 33.8648 45.3984 33.9657Z" fill="currentColor" />
  <path d="M21.5947 34.1002C21.5947 34.2011 21.9143 34.5459 21.9648 34.4955C22.0489 34.4114 22.0237 34.3273 21.8807 34.1843C21.7545 34.0497 21.5947 34.0076 21.5947 34.1002Z" fill="currentColor" />
  <path d="M9.37329 34.8237C9.18825 34.9751 8.93592 35.32 8.75929 35.6564C8.3892 36.405 8.37238 36.9938 8.70041 37.9358C8.93592 38.6423 9.1462 38.9283 9.39012 38.9283C9.50787 38.9283 9.54151 38.9704 9.50787 39.0965C9.44058 39.3405 9.6088 39.2984 9.92842 38.9872C10.0882 38.8442 10.4247 38.5414 10.6854 38.3227C11.249 37.8433 11.5013 37.3555 11.5013 36.7667C11.5013 36.3125 11.6443 36.0686 11.9134 36.0686C12.0816 36.0686 12.2583 35.9088 12.2583 35.7574C12.2583 35.6901 12.1573 35.648 12.0144 35.648C11.8798 35.648 11.7284 35.5891 11.6695 35.5218C11.6106 35.4546 11.5349 35.3957 11.4929 35.3957C11.4592 35.3957 11.3331 35.3116 11.2153 35.2022C10.4079 34.4621 9.93683 34.3611 9.37329 34.8237ZM11.762 35.7574C11.7536 35.791 11.7536 35.8751 11.7536 35.9424C11.7536 36.0097 11.72 36.0686 11.6779 36.0686C11.577 36.0686 11.4845 35.8246 11.5518 35.7237C11.6022 35.6312 11.7704 35.6564 11.762 35.7574Z" fill="currentColor" />
  <path d="M1.87089 34.723C1.89613 34.765 1.97183 34.7819 2.03911 34.7482C2.21575 34.6893 2.19892 34.6389 1.98865 34.6389C1.89613 34.6389 1.83725 34.6725 1.87089 34.723Z" fill="currentColor" />
  <path d="M46.9542 34.723C46.929 34.7651 46.9458 34.8071 46.9879 34.8071C47.0383 34.8071 47.0804 34.7651 47.0804 34.723C47.0804 34.6726 47.0636 34.6389 47.0468 34.6389C47.0215 34.6389 46.9795 34.6726 46.9542 34.723Z" fill="currentColor" />
  <path d="M20.0892 35.0002C19.9799 35.0507 19.8116 35.2021 19.7191 35.3282L19.5425 35.5637L19.7191 35.7908C19.963 36.1273 20.2742 36.1357 20.5854 35.8245C20.8882 35.5301 20.9051 35.3198 20.6443 35.0759C20.4172 34.8656 20.3668 34.8572 20.0892 35.0002Z" fill="currentColor" />
  <path d="M3.93164 35.3622C3.93164 35.4379 3.99052 35.4799 4.07463 35.4631C4.2849 35.4211 4.31014 35.2276 4.10827 35.2276C4.00734 35.2276 3.93164 35.2781 3.93164 35.3622Z" fill="currentColor" />
  <path d="M17.1788 35.5638C17.2041 35.6059 17.2713 35.6479 17.3134 35.6479C17.3639 35.6479 17.3723 35.6059 17.347 35.5638C17.3218 35.5134 17.2545 35.4797 17.2125 35.4797C17.162 35.4797 17.1536 35.5134 17.1788 35.5638Z" fill="currentColor" />
  <path d="M16.1273 35.7323C16.0516 35.7828 16.0432 35.8164 16.1021 35.8164C16.1526 35.8164 16.2283 35.7744 16.2535 35.7323C16.3208 35.6314 16.2872 35.6314 16.1273 35.7323Z" fill="currentColor" />
  <path d="M17.4312 35.7576C17.3976 35.8417 17.3891 35.9342 17.4228 35.9595C17.5069 36.0436 17.5742 35.9258 17.5321 35.7576C17.4985 35.6146 17.4985 35.6146 17.4312 35.7576Z" fill="currentColor" />
  <path d="M14.0414 35.8331C13.9825 35.892 13.9404 35.9677 13.9404 36.0013C13.9404 36.1023 14.1759 36.0854 14.2432 35.9761C14.3273 35.8331 14.1591 35.7154 14.0414 35.8331Z" fill="currentColor" />
  <path d="M0.0204168 35.9845C-0.0384605 36.0854 0.0372389 36.2368 0.154994 36.2368C0.197049 36.2368 0.230693 36.1611 0.230693 36.0686C0.230693 35.892 0.104527 35.8415 0.0204168 35.9845Z" fill="currentColor" />
  <path d="M12.048 36.2372C12.0732 36.2792 12.1153 36.3213 12.1405 36.3213C12.1573 36.3213 12.1742 36.2792 12.1742 36.2372C12.1742 36.1867 12.1321 36.1531 12.0816 36.1531C12.0396 36.1531 12.0228 36.1867 12.048 36.2372Z" fill="currentColor" />
  <path d="M20.9893 37.204C20.5856 37.3554 20.2323 37.4563 20.2071 37.4311C20.1819 37.4059 20.165 37.4311 20.165 37.4816C20.165 37.5993 20.4678 37.6161 20.5351 37.5068C20.5856 37.4311 21.6874 37.0274 22.0155 36.9685C22.2005 36.9349 22.1921 36.9349 21.9734 36.9264C21.8388 36.9264 21.3931 37.0526 20.9893 37.204Z" fill="currentColor" />
  <path d="M43.1857 37.1701C43.2446 37.229 43.3119 37.2543 43.3371 37.229C43.3624 37.2038 43.3203 37.1533 43.2362 37.1281C43.1184 37.0776 43.11 37.086 43.1857 37.1701Z" fill="currentColor" />
  <path d="M23.8826 38.003C23.7312 38.146 23.664 38.2554 23.7228 38.2554C23.7817 38.2554 23.9163 38.1376 24.0172 38.003C24.2527 37.6918 24.2359 37.6918 23.8826 38.003Z" fill="currentColor" />
  <path d="M21.4352 38.5247C21.4268 38.6593 21.4688 38.7603 21.5109 38.7603C21.6118 38.7603 21.6118 38.693 21.5109 38.4659C21.4436 38.3145 21.4352 38.3229 21.4352 38.5247Z" fill="currentColor" />
  <path d="M22.52 38.6845C22.52 38.7265 22.5621 38.7434 22.6041 38.7181C22.6546 38.6929 22.6882 38.6508 22.6882 38.6256C22.6882 38.6088 22.6546 38.592 22.6041 38.592C22.5621 38.592 22.52 38.634 22.52 38.6845Z" fill="currentColor" />
  <path d="M22.604 38.9281C22.604 38.9786 22.6629 39.0122 22.7302 39.0122C22.7975 39.0122 22.8563 38.9954 22.8563 38.9786C22.8563 38.9617 22.7975 38.9281 22.7302 38.8945C22.6629 38.8692 22.604 38.886 22.604 38.9281Z" fill="currentColor" />
  <path d="M43.2954 38.9786C43.2954 39.0207 43.3543 39.1216 43.4216 39.2057C43.5057 39.3319 43.573 39.3487 43.6907 39.273C43.7917 39.2141 43.8085 39.1889 43.7244 39.1805C43.6571 39.1805 43.5309 39.1216 43.4468 39.0375C43.3627 38.9618 43.2954 38.9366 43.2954 38.9786Z" fill="currentColor" />
  <path d="M38.8374 39.265C38.8374 39.3071 38.8795 39.3491 38.9215 39.3491C38.972 39.3491 39.0056 39.3071 39.0056 39.265C39.0056 39.2145 38.972 39.1809 38.9215 39.1809C38.8795 39.1809 38.8374 39.2145 38.8374 39.265Z" fill="currentColor" />
  <path d="M23.193 40.0467C23.193 40.2234 23.1257 40.3916 23.0248 40.4841C22.9323 40.5682 22.8566 40.686 22.8566 40.7449C22.8566 40.8963 22.4444 41.3673 22.3014 41.3673C22.2341 41.3673 22.1837 41.3084 22.1837 41.2327C22.1837 40.9635 21.9482 41.2832 21.7463 41.8131C21.5949 42.2168 21.4351 42.4523 21.0314 42.8392C20.737 43.1252 20.5015 43.3775 20.5015 43.4112C20.5015 43.4532 20.594 43.3943 20.7033 43.285C20.8127 43.1756 21.0482 42.957 21.2164 42.7971C21.393 42.6373 21.6285 42.3009 21.7547 42.057C21.9566 41.6617 21.9986 41.6196 22.0912 41.7374C22.1837 41.8467 22.1753 41.9308 22.0659 42.2084C21.9902 42.3934 21.9313 42.6542 21.9313 42.7887C21.9313 42.9233 21.8809 43.1588 21.8136 43.3102C21.6706 43.6719 21.5528 46.069 21.679 46.2457C21.7379 46.3382 21.7631 46.2709 21.7631 45.9681C21.7631 45.7494 21.822 45.4466 21.8977 45.3036C22.0155 45.0681 22.0155 45.0345 21.9061 44.9672C21.8052 44.9167 21.7968 44.841 21.8472 44.6223C21.8893 44.4794 21.9398 44.084 21.965 43.7644C22.0575 42.4691 22.2257 41.9392 22.6799 41.5018C22.9154 41.2747 23.1846 41.2663 23.05 41.4766C22.9743 41.6028 22.8734 42.3766 22.9323 42.3682C22.9575 42.3682 23.0752 42.1663 23.193 41.9308C23.4033 41.5018 23.4033 41.4766 23.2855 40.9804C23.1846 40.5178 23.1846 40.4336 23.3023 40.1897C23.4369 39.9206 23.4285 39.7692 23.2687 39.7692C23.2266 39.7692 23.193 39.8953 23.193 40.0467Z" fill="currentColor" />
  <path d="M18.8614 40.2739C18.8362 40.3243 18.8698 40.3327 18.9371 40.3075C19.0885 40.2486 19.1137 40.1898 18.996 40.1898C18.9455 40.1898 18.8866 40.2234 18.8614 40.2739Z" fill="currentColor" />
  <path d="M61.2949 41.5355C61.2949 41.5776 61.337 41.6196 61.379 41.6196C61.4295 41.6196 61.4631 41.5776 61.4631 41.5355C61.4631 41.4851 61.4295 41.4514 61.379 41.4514C61.337 41.4514 61.2949 41.4851 61.2949 41.5355Z" fill="currentColor" />
  <path d="M46.2393 42.0404C46.2393 42.0825 46.2981 42.1245 46.3738 42.1245C46.4411 42.1245 46.4748 42.0825 46.4495 42.0404C46.4243 41.9899 46.3654 41.9563 46.315 41.9563C46.2729 41.9563 46.2393 41.9899 46.2393 42.0404Z" fill="currentColor" />
  <path d="M35.1367 42.8061C35.1367 42.8481 35.1788 42.8649 35.2208 42.8397C35.2713 42.8145 35.3049 42.7724 35.3049 42.7472C35.3049 42.7304 35.2713 42.7135 35.2208 42.7135C35.1788 42.7135 35.1367 42.7556 35.1367 42.8061Z" fill="currentColor" />
  <path d="M22.9404 43.1339C22.9404 43.3694 22.9573 43.3947 23.0666 43.3021C23.1675 43.218 23.1759 43.1676 23.0918 43.0582C23.033 42.9825 22.9741 42.9068 22.9657 42.89C22.9488 42.8732 22.9404 42.9741 22.9404 43.1339Z" fill="currentColor" />
  <path d="M30.5107 43.6385C30.5107 43.6806 30.5528 43.7227 30.6033 43.7227C30.6453 43.7227 30.6621 43.6806 30.6369 43.6385C30.6117 43.5881 30.5696 43.5544 30.5444 43.5544C30.5276 43.5544 30.5107 43.5881 30.5107 43.6385Z" fill="currentColor" />
  <path d="M27.7349 44.4289C27.7349 44.5046 27.7769 44.5635 27.819 44.5635C27.8694 44.5635 27.9031 44.5298 27.9031 44.4878C27.9031 44.4373 27.8694 44.3784 27.819 44.3532C27.7769 44.328 27.7349 44.3616 27.7349 44.4289Z" fill="currentColor" />
  <path d="M19.6685 44.8918C19.6012 44.9339 19.5928 44.9843 19.6433 45.018C19.6853 45.0432 19.7694 45.0096 19.8283 44.9423C19.9461 44.8077 19.8536 44.7741 19.6685 44.8918Z" fill="currentColor" />
  <path d="M18.4577 44.9589C18.3567 45.0514 18.3904 45.1523 18.5165 45.1523C18.5754 45.1523 18.6763 45.0935 18.7352 45.0262C18.8193 44.9252 18.8109 44.9 18.6763 44.9C18.5838 44.9 18.4829 44.9252 18.4577 44.9589Z" fill="currentColor" />
  <path d="M15.4212 45.9853C15.3876 46.0274 15.4044 46.0863 15.4465 46.1115C15.4885 46.1451 15.5474 46.1283 15.5726 46.0863C15.6063 46.0442 15.5894 45.9853 15.5474 45.9601C15.5053 45.9265 15.4465 45.9433 15.4212 45.9853Z" fill="currentColor" />
  <path d="M33.505 46.1535C33.4797 46.1955 33.5134 46.246 33.5807 46.2796C33.6479 46.3049 33.7068 46.2881 33.7068 46.246C33.7068 46.1367 33.5554 46.061 33.505 46.1535Z" fill="currentColor" />
  <path d="M8.93617 46.246C8.91094 46.288 8.92776 46.3301 8.96982 46.3301C9.02028 46.3301 9.06234 46.288 9.06234 46.246C9.06234 46.1955 9.04552 46.1619 9.02869 46.1619C9.00346 46.1619 8.96141 46.1955 8.93617 46.246Z" fill="currentColor" />
  <path d="M29.6694 46.9691C29.6694 47.0364 29.7115 47.0701 29.7535 47.0448C29.804 47.0196 29.8377 46.9607 29.8377 46.9103C29.8377 46.8682 29.804 46.8346 29.7535 46.8346C29.7115 46.8346 29.6694 46.8934 29.6694 46.9691Z" fill="currentColor" />
  <path d="M21.4856 47.0535C21.3931 47.146 21.4183 47.4908 21.5193 47.5581C21.5697 47.5834 21.6707 47.5497 21.7463 47.474C21.8557 47.3731 21.8641 47.2974 21.7968 47.1964C21.6959 47.0282 21.5697 46.9778 21.4856 47.0535Z" fill="currentColor" />
  <path d="M15.4548 50.8468C15.11 51.1665 15.0427 51.587 15.2866 51.9066C15.6567 52.3692 16.2791 52.1085 16.38 51.4524C16.4557 50.9394 16.2959 50.6197 15.9595 50.6197C15.8081 50.6197 15.6146 50.7123 15.4548 50.8468Z" fill="currentColor" />
  <path d="M5.24369 51.2841C5.04183 51.5112 5.15117 51.6878 5.36986 51.4943C5.52967 51.3513 5.58854 51.1242 5.46238 51.1242C5.42032 51.1242 5.31939 51.1999 5.24369 51.2841Z" fill="currentColor" />
  <path d="M51.2856 52.0497C51.2856 52.0917 51.3277 52.1338 51.3698 52.1338C51.4202 52.1338 51.4539 52.0917 51.4539 52.0497C51.4539 51.9992 51.4202 51.9656 51.3698 51.9656C51.3277 51.9656 51.2856 51.9992 51.2856 52.0497Z" fill="currentColor" />
  <path d="M4.05775 52.5546C4.03252 52.5966 4.04934 52.6387 4.0914 52.6387C4.14186 52.6387 4.18392 52.5966 4.18392 52.5546C4.18392 52.5041 4.1671 52.4705 4.15028 52.4705C4.12504 52.4705 4.08299 52.5041 4.05775 52.5546Z" fill="currentColor" />
  <path d="M15.791 53.1518C15.791 53.1938 15.8331 53.2106 15.8751 53.1854C15.9256 53.1602 15.9592 53.1181 15.9592 53.0929C15.9592 53.0761 15.9256 53.0592 15.8751 53.0592C15.8331 53.0592 15.791 53.1013 15.791 53.1518Z" fill="currentColor" />
  <path d="M15.5975 53.4542C15.5638 53.4795 15.5386 53.5468 15.5386 53.5972C15.5386 53.6477 15.5806 53.6393 15.6395 53.5804C15.69 53.5299 15.7152 53.4627 15.6984 53.4374C15.6732 53.4122 15.6227 53.4206 15.5975 53.4542Z" fill="currentColor" />
</svg>
